<svg width="41" height="41" viewBox="0 0 41 41" fill="none" xmlns="http://www.w3.org/2000/svg">
<g clip-path="url(#clip0_712_5085)">
<path d="M27.8184 13.8093L27.2966 13.2874L26.7486 12.7394C23.1736 9.16436 17.4066 9.16436 13.8317 12.7394L3.15888 23.386C-0.4683 27.0394 -0.311816 32.8324 3.18497 36.303L4.25474 37.3728C7.80364 40.9478 13.5968 40.9478 17.1717 37.3728L27.8183 26.7262C31.3936 23.1512 31.3936 17.3843 27.8184 13.8093ZM24.1392 23.0207L13.4925 33.6936C11.9529 35.2331 9.44777 35.2072 7.96036 33.6936L7.41247 33.1456L6.86442 32.6237C5.32474 31.0842 5.32474 28.6052 6.83833 27.0916L17.5372 16.4188C19.0767 14.853 21.5557 14.9052 23.0693 16.4188L24.1392 17.4886C25.6788 19.0543 25.6527 21.5333 24.1392 23.0207Z" fill="#FDD945"/>
<path d="M37.8184 3.81318L37.2966 3.2913L36.7486 2.74326C33.1736 -0.831736 27.4066 -0.831736 23.8317 2.74326L13.1589 13.3899C9.5317 17.0432 9.68818 22.8362 13.185 26.3068L14.2547 27.3766C17.8036 30.9516 23.5968 30.9516 27.1717 27.3766L37.8184 16.73C41.3935 13.155 41.3935 7.38817 37.8184 3.81318ZM34.1391 13.0246L23.4924 23.6974C21.9528 25.237 19.4477 25.211 17.9603 23.6974L17.4124 23.1494L16.8643 22.6275C15.3247 21.088 15.3247 18.609 16.8382 17.0954L27.5371 6.4227C29.0767 4.85692 31.5556 4.90911 33.0692 6.4227L34.139 7.49247C35.6788 9.05824 35.6527 11.5371 34.1391 13.0246Z" fill="#32BBFF"/>
<path d="M37.8188 16.7302L27.1722 27.3768C23.5972 30.9518 17.8041 30.9518 14.2553 27.3768L13.7334 26.855L17.4128 23.1496L17.9607 23.6976C19.4482 25.2112 21.9533 25.2372 23.4928 23.6976L34.1396 13.0248C35.6532 11.5373 35.6793 9.05845 34.1396 7.49267L33.6177 6.97079L37.2972 3.2915L37.819 3.81338C41.3939 7.38829 41.3939 13.1552 37.8188 16.7302Z" fill="#2C9FD9"/>
<path d="M24.1388 17.4885C25.6784 19.0543 25.6523 21.5332 24.1388 23.0206L13.4921 33.6936C11.9525 35.2331 9.44737 35.2072 7.95995 33.6936L7.41206 33.1455L3.71973 36.8379L4.25457 37.3729C7.80347 40.9479 13.5966 40.9479 17.1715 37.3729L27.8181 26.7263C31.3933 23.1511 31.3933 17.3843 27.8181 13.8093L27.2963 13.2875L27.2833 13.2744L23.604 16.9537L24.1388 17.4885Z" fill="#FFAA00"/>
</g>
<defs>
<clipPath id="clip0_712_5085">
<rect width="40" height="40" fill="white" transform="translate(0.5 0.0581055)"/>
</clipPath>
</defs>
</svg>
