<svg width="41" height="31" viewBox="0 0 41 31" fill="none" xmlns="http://www.w3.org/2000/svg">
<g clip-path="url(#clip0_712_5090)">
<path d="M9.59319 29.9103V14.5357L4.80109 10.1736L0.503906 7.75293V27.1971C0.503906 28.6984 1.72634 29.9103 3.23075 29.9103H9.59319Z" fill="#4285F4"/>
<path d="M31.4072 29.9102H37.7697C39.2786 29.9102 40.4965 28.6937 40.4965 27.197V7.75293L35.6293 10.5255L31.4072 14.5356V29.9102Z" fill="#34A853"/>
<path d="M9.5925 14.5357L8.94043 8.52839L9.5925 2.77881L20.4996 10.9183L31.4066 2.77881L32.136 8.21798L31.4066 14.5357L20.4996 22.6752L9.5925 14.5357Z" fill="#EA4335"/>
<path d="M31.4072 2.77889V14.5358L40.4965 7.75298V4.13542C40.4965 0.780234 36.6472 -1.13246 33.9524 0.879715L31.4072 2.77889Z" fill="#FBBC04"/>
<path d="M0.503906 7.75305L4.68424 10.8727L9.59319 14.5358V2.77896L7.04803 0.879787C4.34852 -1.13254 0.503906 0.780305 0.503906 4.13533V7.75305Z" fill="#C5221F"/>
</g>
<defs>
<clipPath id="clip0_712_5090">
<rect width="40" height="30" fill="white" transform="translate(0.5 0.0581055)"/>
</clipPath>
</defs>
</svg>
