<svg width="18" height="17" viewBox="0 0 18 17" fill="none" xmlns="http://www.w3.org/2000/svg">
<g clip-path="url(#clip0_539_6085)">
<path d="M15.3886 4.41406H2.54683C1.90207 4.41406 1.37939 4.93675 1.37939 5.5815V14.921C1.37939 15.5657 1.90207 16.0884 2.54683 16.0884H15.3886C16.0334 16.0884 16.556 15.5657 16.556 14.921V5.5815C16.556 4.93675 16.0334 4.41406 15.3886 4.41406Z" stroke="#404040" stroke-width="0.817204" stroke-linecap="round" stroke-linejoin="round"/>
<path d="M12.4701 4.41441V2.07954C12.4701 1.76992 12.3471 1.47298 12.1281 1.25404C11.9092 1.03511 11.6123 0.912109 11.3026 0.912109H6.63289C6.32326 0.912109 6.02632 1.03511 5.80738 1.25404C5.58846 1.47298 5.46545 1.76992 5.46545 2.07954V4.41441" stroke="#404040" stroke-width="0.817204" stroke-linecap="round" stroke-linejoin="round"/>
</g>
<defs>
<clipPath id="clip0_539_6085">
<rect width="16.3441" height="16.3441" fill="white" transform="translate(0.795776 0.328125)"/>
</clipPath>
</defs>
</svg>
