<svg width="610" height="320" viewBox="0 0 610 320" fill="none" xmlns="http://www.w3.org/2000/svg">
<path d="M28.6818 28.4091C28.5303 26.7424 27.8561 25.447 26.6591 24.5227C25.4773 23.5833 23.7879 23.1136 21.5909 23.1136C20.1364 23.1136 18.9242 23.303 17.9545 23.6818C16.9848 24.0606 16.2576 24.5833 15.7727 25.25C15.2879 25.9015 15.0379 26.6515 15.0227 27.5C14.9924 28.197 15.1288 28.8106 15.4318 29.3409C15.75 29.8712 16.2045 30.3409 16.7955 30.75C17.4015 31.1439 18.1288 31.4924 18.9773 31.7955C19.8258 32.0985 20.7803 32.3636 21.8409 32.5909L25.8409 33.5C28.1439 34 30.1742 34.6667 31.9318 35.5C33.7045 36.3333 35.1894 37.3258 36.3864 38.4773C37.5985 39.6288 38.5152 40.9545 39.1364 42.4545C39.7576 43.9545 40.0758 45.6364 40.0909 47.5C40.0758 50.4394 39.3333 52.9621 37.8636 55.0682C36.3939 57.1742 34.2803 58.7879 31.5227 59.9091C28.7803 61.0303 25.4697 61.5909 21.5909 61.5909C17.697 61.5909 14.303 61.0076 11.4091 59.8409C8.51515 58.6742 6.26515 56.9015 4.65909 54.5227C3.05303 52.1439 2.22727 49.1364 2.18182 45.5H12.9545C13.0455 47 13.447 48.25 14.1591 49.25C14.8712 50.25 15.8485 51.0076 17.0909 51.5227C18.3485 52.0379 19.803 52.2955 21.4545 52.2955C22.9697 52.2955 24.2576 52.0909 25.3182 51.6818C26.3939 51.2727 27.2197 50.7045 27.7955 49.9773C28.3712 49.25 28.6667 48.4167 28.6818 47.4773C28.6667 46.5985 28.3939 45.8485 27.8636 45.2273C27.3333 44.5909 26.5152 44.0455 25.4091 43.5909C24.3182 43.1212 22.9242 42.6894 21.2273 42.2955L16.3636 41.1591C12.3333 40.2348 9.15909 38.7424 6.84091 36.6818C4.52273 34.6061 3.37121 31.803 3.38636 28.2727C3.37121 25.3939 4.14394 22.8712 5.70455 20.7045C7.26515 18.5379 9.42424 16.8485 12.1818 15.6364C14.9394 14.4242 18.0833 13.8182 21.6136 13.8182C25.2197 13.8182 28.3485 14.4318 31 15.6591C33.6667 16.8712 35.7348 18.5758 37.2045 20.7727C38.6742 22.9697 39.4242 25.5151 39.4545 28.4091H28.6818ZM56.5664 41.0909V61H45.4527V14.4545H56.2027V32.5H56.5891C57.377 30.3485 58.6648 28.6667 60.4527 27.4545C62.2558 26.2424 64.4603 25.6364 67.0664 25.6364C69.5209 25.6364 71.6573 26.1818 73.4755 27.2727C75.2936 28.3485 76.7027 29.8712 77.7027 31.8409C78.7179 33.8106 79.2179 36.1136 79.2027 38.75V61H68.0891V40.9318C68.1042 38.9924 67.6194 37.4773 66.6345 36.3864C65.6497 35.2955 64.2633 34.75 62.4755 34.75C61.3088 34.75 60.2785 35.0076 59.3845 35.5227C58.5058 36.0227 57.8164 36.7424 57.3164 37.6818C56.8315 38.6212 56.5815 39.7576 56.5664 41.0909ZM95.6611 61.5909C93.4339 61.5909 91.4566 61.2197 89.7293 60.4773C88.0172 59.7197 86.6611 58.5833 85.6611 57.0682C84.6763 55.5379 84.1839 53.6212 84.1839 51.3182C84.1839 49.3788 84.5248 47.7424 85.2066 46.4091C85.8884 45.0758 86.8278 43.9924 88.0248 43.1591C89.2217 42.3258 90.6005 41.697 92.1611 41.2727C93.7217 40.8333 95.3884 40.5379 97.1611 40.3864C99.146 40.2045 100.744 40.0152 101.957 39.8182C103.169 39.6061 104.048 39.3106 104.593 38.9318C105.154 38.5379 105.434 37.9848 105.434 37.2727V37.1591C105.434 35.9924 105.032 35.0909 104.229 34.4545C103.426 33.8182 102.343 33.5 100.979 33.5C99.5096 33.5 98.3278 33.8182 97.4339 34.4545C96.5399 35.0909 95.9717 35.9697 95.7293 37.0909L85.4793 36.7273C85.7823 34.6061 86.5627 32.7121 87.8202 31.0455C89.093 29.3636 90.8354 28.0455 93.0475 27.0909C95.2748 26.1212 97.949 25.6364 101.07 25.6364C103.298 25.6364 105.351 25.9015 107.229 26.4318C109.108 26.947 110.744 27.7045 112.138 28.7045C113.532 29.6894 114.608 30.9015 115.366 32.3409C116.138 33.7803 116.525 35.4242 116.525 37.2727V61H106.07V56.1364H105.798C105.176 57.3182 104.381 58.3182 103.411 59.1364C102.457 59.9545 101.328 60.5682 100.025 60.9773C98.7369 61.3864 97.2823 61.5909 95.6611 61.5909ZM99.093 54.3182C100.29 54.3182 101.366 54.0758 102.32 53.5909C103.29 53.1061 104.063 52.4394 104.638 51.5909C105.214 50.7273 105.502 49.7273 105.502 48.5909V45.2727C105.184 45.4394 104.798 45.5909 104.343 45.7273C103.904 45.8636 103.419 45.9924 102.888 46.1136C102.358 46.2348 101.813 46.3409 101.252 46.4318C100.691 46.5227 100.154 46.6061 99.6384 46.6818C98.593 46.8485 97.699 47.1061 96.9566 47.4545C96.2293 47.803 95.6687 48.2576 95.2748 48.8182C94.896 49.3636 94.7066 50.0152 94.7066 50.7727C94.7066 51.9242 95.1157 52.803 95.9339 53.4091C96.7672 54.0152 97.8202 54.3182 99.093 54.3182ZM123 61V26.0909H133.796V32.4545H134.159C134.796 30.1515 135.834 28.4394 137.273 27.3182C138.712 26.1818 140.387 25.6136 142.296 25.6136C142.811 25.6136 143.341 25.6515 143.887 25.7273C144.432 25.7879 144.94 25.8864 145.409 26.0227V35.6818C144.879 35.5 144.182 35.3561 143.318 35.25C142.47 35.1439 141.712 35.0909 141.046 35.0909C139.728 35.0909 138.538 35.3864 137.478 35.9773C136.432 36.553 135.606 37.3636 135 38.4091C134.409 39.4394 134.114 40.6515 134.114 42.0455V61H123ZM149.618 61V26.0909H160.731V61H149.618ZM155.186 22.0227C153.625 22.0227 152.284 21.5076 151.163 20.4773C150.042 19.4318 149.481 18.1742 149.481 16.7045C149.481 15.25 150.042 14.0076 151.163 12.9773C152.284 11.9318 153.625 11.4091 155.186 11.4091C156.762 11.4091 158.103 11.9318 159.209 12.9773C160.33 14.0076 160.89 15.25 160.89 16.7045C160.89 18.1742 160.33 19.4318 159.209 20.4773C158.103 21.5076 156.762 22.0227 155.186 22.0227ZM178.599 41.0909V61H167.485V26.0909H178.053V32.5H178.44C179.212 30.3636 180.531 28.6894 182.394 27.4773C184.258 26.25 186.478 25.6364 189.053 25.6364C191.508 25.6364 193.637 26.1894 195.44 27.2955C197.258 28.3864 198.667 29.9167 199.667 31.8864C200.682 33.8409 201.182 36.1288 201.167 38.75V61H190.053V40.9318C190.069 38.9924 189.576 37.4773 188.576 36.3864C187.591 35.2955 186.22 34.75 184.462 34.75C183.296 34.75 182.266 35.0076 181.372 35.5227C180.493 36.0227 179.811 36.7424 179.326 37.6818C178.856 38.6212 178.614 39.7576 178.599 41.0909ZM224 74.8182C220.682 74.8182 217.841 74.3561 215.478 73.4318C213.114 72.5076 211.258 71.2424 209.91 69.6364C208.561 68.0303 207.75 66.2121 207.478 64.1818L218 63.5909C218.197 64.303 218.561 64.9242 219.091 65.4545C219.637 65.9848 220.341 66.3939 221.205 66.6818C222.084 66.9697 223.114 67.1136 224.296 67.1136C226.16 67.1136 227.697 66.6591 228.91 65.75C230.137 64.8561 230.75 63.2879 230.75 61.0455V54.9091H230.364C229.925 55.9848 229.258 56.947 228.364 57.7955C227.47 58.6439 226.357 59.3106 225.023 59.7955C223.705 60.2803 222.19 60.5227 220.478 60.5227C217.932 60.5227 215.599 59.9318 213.478 58.75C211.372 57.553 209.682 55.7045 208.41 53.2045C207.152 50.6894 206.523 47.4545 206.523 43.5C206.523 39.4242 207.175 36.0682 208.478 33.4318C209.781 30.7803 211.485 28.8182 213.591 27.5455C215.713 26.2727 217.993 25.6364 220.432 25.6364C222.266 25.6364 223.834 25.9545 225.137 26.5909C226.455 27.2121 227.538 28.0152 228.387 29C229.235 29.9848 229.879 31.0076 230.319 32.0682H230.637V26.0909H241.705V61.1364C241.705 64.0909 240.963 66.5833 239.478 68.6136C237.993 70.6439 235.917 72.1818 233.25 73.2273C230.584 74.2879 227.5 74.8182 224 74.8182ZM224.341 52.4318C225.69 52.4318 226.841 52.0758 227.796 51.3636C228.75 50.6515 229.485 49.6288 230 48.2955C230.516 46.9621 230.773 45.3636 230.773 43.5C230.773 41.6061 230.516 39.9773 230 38.6136C229.5 37.2348 228.766 36.1742 227.796 35.4318C226.841 34.6894 225.69 34.3182 224.341 34.3182C222.963 34.3182 221.796 34.697 220.841 35.4545C219.887 36.2121 219.16 37.2803 218.66 38.6591C218.175 40.0227 217.932 41.6364 217.932 43.5C217.932 45.3636 218.182 46.9621 218.682 48.2955C219.182 49.6288 219.902 50.6515 220.841 51.3636C221.796 52.0758 222.963 52.4318 224.341 52.4318ZM261.9 61V26.0909H273.014V61H261.9ZM267.468 22.0227C265.908 22.0227 264.567 21.5076 263.446 20.4773C262.324 19.4318 261.764 18.1742 261.764 16.7045C261.764 15.25 262.324 14.0076 263.446 12.9773C264.567 11.9318 265.908 11.4091 267.468 11.4091C269.044 11.4091 270.385 11.9318 271.491 12.9773C272.612 14.0076 273.173 15.25 273.173 16.7045C273.173 18.1742 272.612 19.4318 271.491 20.4773C270.385 21.5076 269.044 22.0227 267.468 22.0227ZM310.245 36.75L300.04 37.0227C299.934 36.2955 299.647 35.6515 299.177 35.0909C298.707 34.5152 298.093 34.0682 297.336 33.75C296.593 33.4167 295.73 33.25 294.745 33.25C293.457 33.25 292.359 33.5076 291.45 34.0227C290.556 34.5379 290.116 35.2348 290.131 36.1136C290.116 36.7955 290.389 37.3864 290.95 37.8864C291.525 38.3864 292.548 38.7879 294.018 39.0909L300.745 40.3636C304.23 41.0303 306.821 42.1364 308.518 43.6818C310.23 45.2273 311.093 47.2727 311.109 49.8182C311.093 52.2121 310.381 54.2955 308.972 56.0682C307.578 57.8409 305.669 59.2197 303.245 60.2045C300.821 61.1742 298.048 61.6591 294.927 61.6591C289.942 61.6591 286.01 60.6364 283.131 58.5909C280.268 56.5303 278.631 53.7727 278.222 50.3182L289.2 50.0455C289.442 51.3182 290.071 52.2879 291.086 52.9545C292.101 53.6212 293.397 53.9545 294.972 53.9545C296.397 53.9545 297.556 53.6894 298.45 53.1591C299.343 52.6288 299.798 51.9242 299.813 51.0455C299.798 50.2576 299.45 49.6288 298.768 49.1591C298.086 48.6742 297.018 48.2955 295.563 48.0227L289.472 46.8636C285.972 46.2273 283.366 45.053 281.654 43.3409C279.942 41.6136 279.093 39.4167 279.109 36.75C279.093 34.4167 279.715 32.4242 280.972 30.7727C282.23 29.1061 284.018 27.8333 286.336 26.9545C288.654 26.0758 291.389 25.6364 294.54 25.6364C299.268 25.6364 302.995 26.6288 305.722 28.6136C308.45 30.5833 309.957 33.2955 310.245 36.75ZM340.849 61L327.304 14.4545H339.736L346.758 44.9545H347.145L355.168 14.4545H365.304L373.327 45.0227H373.713L380.758 14.4545H393.168L379.645 61H368.804L360.418 32.7727H360.054L351.668 61H340.849ZM397.495 61V26.0909H408.609V61H397.495ZM403.063 22.0227C401.503 22.0227 400.162 21.5076 399.041 20.4773C397.919 19.4318 397.359 18.1742 397.359 16.7045C397.359 15.25 397.919 14.0076 399.041 12.9773C400.162 11.9318 401.503 11.4091 403.063 11.4091C404.639 11.4091 405.98 11.9318 407.086 12.9773C408.207 14.0076 408.768 15.25 408.768 16.7045C408.768 18.1742 408.207 19.4318 407.086 20.4773C405.98 21.5076 404.639 22.0227 403.063 22.0227ZM426.476 41.0909V61H415.363V26.0909H425.931V32.5H426.317C427.09 30.3636 428.408 28.6894 430.272 27.4773C432.135 26.25 434.355 25.6364 436.931 25.6364C439.385 25.6364 441.514 26.1894 443.317 27.2955C445.135 28.3864 446.545 29.9167 447.545 31.8864C448.56 33.8409 449.06 36.1288 449.045 38.75V61H437.931V40.9318C437.946 38.9924 437.454 37.4773 436.454 36.3864C435.469 35.2955 434.098 34.75 432.34 34.75C431.173 34.75 430.143 35.0076 429.249 35.5227C428.37 36.0227 427.688 36.7424 427.204 37.6818C426.734 38.6212 426.492 39.7576 426.476 41.0909ZM466.719 41.0909V61H455.605V26.0909H466.173V32.5H466.56C467.332 30.3636 468.651 28.6894 470.514 27.4773C472.378 26.25 474.598 25.6364 477.173 25.6364C479.628 25.6364 481.757 26.1894 483.56 27.2955C485.378 28.3864 486.787 29.9167 487.787 31.8864C488.802 33.8409 489.302 36.1288 489.287 38.75V61H478.173V40.9318C478.189 38.9924 477.696 37.4773 476.696 36.3864C475.711 35.2955 474.34 34.75 472.582 34.75C471.416 34.75 470.386 35.0076 469.492 35.5227C468.613 36.0227 467.931 36.7424 467.446 37.6818C466.976 38.6212 466.734 39.7576 466.719 41.0909ZM495.848 61V26.0909H506.961V61H495.848ZM501.416 22.0227C499.855 22.0227 498.514 21.5076 497.393 20.4773C496.272 19.4318 495.711 18.1742 495.711 16.7045C495.711 15.25 496.272 14.0076 497.393 12.9773C498.514 11.9318 499.855 11.4091 501.416 11.4091C502.992 11.4091 504.333 11.9318 505.439 12.9773C506.56 14.0076 507.12 15.25 507.12 16.7045C507.12 18.1742 506.56 19.4318 505.439 20.4773C504.333 21.5076 502.992 22.0227 501.416 22.0227ZM524.829 41.0909V61H513.715V26.0909H524.283V32.5H524.67C525.443 30.3636 526.761 28.6894 528.624 27.4773C530.488 26.25 532.708 25.6364 535.283 25.6364C537.738 25.6364 539.867 26.1894 541.67 27.2955C543.488 28.3864 544.897 29.9167 545.897 31.8864C546.912 33.8409 547.412 36.1288 547.397 38.75V61H536.283V40.9318C536.299 38.9924 535.806 37.4773 534.806 36.3864C533.821 35.2955 532.45 34.75 530.693 34.75C529.526 34.75 528.496 35.0076 527.602 35.5227C526.723 36.0227 526.041 36.7424 525.556 37.6818C525.086 38.6212 524.844 39.7576 524.829 41.0909ZM570.23 74.8182C566.912 74.8182 564.071 74.3561 561.708 73.4318C559.344 72.5076 557.488 71.2424 556.14 69.6364C554.791 68.0303 553.98 66.2121 553.708 64.1818L564.23 63.5909C564.427 64.303 564.791 64.9242 565.321 65.4545C565.867 65.9848 566.571 66.3939 567.435 66.6818C568.314 66.9697 569.344 67.1136 570.526 67.1136C572.39 67.1136 573.927 66.6591 575.14 65.75C576.367 64.8561 576.98 63.2879 576.98 61.0455V54.9091H576.594C576.155 55.9848 575.488 56.947 574.594 57.7955C573.7 58.6439 572.587 59.3106 571.253 59.7955C569.935 60.2803 568.42 60.5227 566.708 60.5227C564.162 60.5227 561.829 59.9318 559.708 58.75C557.602 57.553 555.912 55.7045 554.64 53.2045C553.382 50.6894 552.753 47.4545 552.753 43.5C552.753 39.4242 553.405 36.0682 554.708 33.4318C556.011 30.7803 557.715 28.8182 559.821 27.5455C561.943 26.2727 564.223 25.6364 566.662 25.6364C568.496 25.6364 570.064 25.9545 571.367 26.5909C572.685 27.2121 573.768 28.0152 574.617 29C575.465 29.9848 576.109 31.0076 576.549 32.0682H576.867V26.0909H587.935V61.1364C587.935 64.0909 587.193 66.5833 585.708 68.6136C584.223 70.6439 582.147 72.1818 579.48 73.2273C576.814 74.2879 573.73 74.8182 570.23 74.8182ZM570.571 52.4318C571.92 52.4318 573.071 52.0758 574.026 51.3636C574.98 50.6515 575.715 49.6288 576.23 48.2955C576.746 46.9621 577.003 45.3636 577.003 43.5C577.003 41.6061 576.746 39.9773 576.23 38.6136C575.73 37.2348 574.996 36.1742 574.026 35.4318C573.071 34.6894 571.92 34.3182 570.571 34.3182C569.193 34.3182 568.026 34.697 567.071 35.4545C566.117 36.2121 565.39 37.2803 564.89 38.6591C564.405 40.0227 564.162 41.6364 564.162 43.5C564.162 45.3636 564.412 46.9621 564.912 48.2955C565.412 49.6288 566.132 50.6515 567.071 51.3636C568.026 52.0758 569.193 52.4318 570.571 52.4318ZM607.768 14.4545L606.723 46.75H597.382L596.337 14.4545H607.768ZM602.041 61.6591C600.42 61.6591 599.026 61.0833 597.859 59.9318C596.708 58.7803 596.132 57.3864 596.132 55.75C596.132 54.1439 596.708 52.7727 597.859 51.6364C599.026 50.4848 600.42 49.9091 602.041 49.9091C603.602 49.9091 604.973 50.4848 606.155 51.6364C607.352 52.7727 607.95 54.1439 607.95 55.75C607.95 56.8409 607.67 57.8333 607.109 58.7273C606.564 59.6212 605.844 60.3333 604.95 60.8636C604.071 61.3939 603.102 61.6591 602.041 61.6591Z" fill="black"/>
<path d="M1.59801 117V102.455H10.6179V104.344H3.79261V108.776H9.97159V110.658H3.79261V117H1.59801ZM16.8407 117.22C15.818 117.22 14.9254 116.986 14.1631 116.517C13.4008 116.048 12.809 115.393 12.3876 114.55C11.9662 113.707 11.7555 112.722 11.7555 111.595C11.7555 110.464 11.9662 109.474 12.3876 108.626C12.809 107.779 13.4008 107.121 14.1631 106.652C14.9254 106.183 15.818 105.949 16.8407 105.949C17.8634 105.949 18.7559 106.183 19.5183 106.652C20.2806 107.121 20.8724 107.779 21.2938 108.626C21.7152 109.474 21.9259 110.464 21.9259 111.595C21.9259 112.722 21.7152 113.707 21.2938 114.55C20.8724 115.393 20.2806 116.048 19.5183 116.517C18.7559 116.986 17.8634 117.22 16.8407 117.22ZM16.8478 115.438C17.5107 115.438 18.0599 115.262 18.4955 114.912C18.9311 114.562 19.2531 114.095 19.4614 113.513C19.6745 112.93 19.781 112.289 19.781 111.588C19.781 110.892 19.6745 110.253 19.4614 109.67C19.2531 109.083 18.9311 108.612 18.4955 108.257C18.0599 107.902 17.5107 107.724 16.8478 107.724C16.1802 107.724 15.6262 107.902 15.1859 108.257C14.7503 108.612 14.4259 109.083 14.2129 109.67C14.0045 110.253 13.9004 110.892 13.9004 111.588C13.9004 112.289 14.0045 112.93 14.2129 113.513C14.4259 114.095 14.7503 114.562 15.1859 114.912C15.6262 115.262 16.1802 115.438 16.8478 115.438ZM24.1963 117V106.091H26.2489V107.824H26.3625C26.5614 107.237 26.9117 106.775 27.4136 106.439C27.9203 106.098 28.4932 105.928 29.1324 105.928C29.265 105.928 29.4212 105.932 29.6011 105.942C29.7858 105.951 29.9302 105.963 30.0344 105.977V108.009C29.9491 107.985 29.7976 107.959 29.5798 107.93C29.362 107.897 29.1442 107.881 28.9264 107.881C28.4245 107.881 27.9771 107.987 27.5841 108.2C27.1958 108.409 26.8881 108.7 26.6608 109.074C26.4335 109.443 26.3199 109.865 26.3199 110.338V117H24.1963ZM38.3074 121.091C37.9902 121.091 37.7013 121.065 37.4409 121.013C37.1805 120.965 36.9864 120.913 36.8585 120.857L37.3699 119.116C37.7581 119.221 38.1038 119.266 38.4068 119.251C38.7098 119.237 38.9774 119.124 39.2094 118.911C39.4461 118.697 39.6544 118.349 39.8344 117.866L40.0972 117.142L36.1057 106.091H38.3784L41.1412 114.557H41.2548L44.0176 106.091H46.2974L41.8017 118.456C41.5934 119.024 41.3282 119.505 41.0062 119.898C40.6843 120.295 40.3008 120.594 39.8557 120.793C39.4106 120.991 38.8945 121.091 38.3074 121.091ZM52.4173 117.22C51.3945 117.22 50.502 116.986 49.7397 116.517C48.9774 116.048 48.3855 115.393 47.9641 114.55C47.5427 113.707 47.332 112.722 47.332 111.595C47.332 110.464 47.5427 109.474 47.9641 108.626C48.3855 107.779 48.9774 107.121 49.7397 106.652C50.502 106.183 51.3945 105.949 52.4173 105.949C53.44 105.949 54.3325 106.183 55.0948 106.652C55.8571 107.121 56.449 107.779 56.8704 108.626C57.2918 109.474 57.5025 110.464 57.5025 111.595C57.5025 112.722 57.2918 113.707 56.8704 114.55C56.449 115.393 55.8571 116.048 55.0948 116.517C54.3325 116.986 53.44 117.22 52.4173 117.22ZM52.4244 115.438C53.0872 115.438 53.6365 115.262 54.0721 114.912C54.5077 114.562 54.8297 114.095 55.038 113.513C55.2511 112.93 55.3576 112.289 55.3576 111.588C55.3576 110.892 55.2511 110.253 55.038 109.67C54.8297 109.083 54.5077 108.612 54.0721 108.257C53.6365 107.902 53.0872 107.724 52.4244 107.724C51.7567 107.724 51.2028 107.902 50.7624 108.257C50.3268 108.612 50.0025 109.083 49.7894 109.67C49.5811 110.253 49.4769 110.892 49.4769 111.588C49.4769 112.289 49.5811 112.93 49.7894 113.513C50.0025 114.095 50.3268 114.562 50.7624 114.912C51.2028 115.262 51.7567 115.438 52.4244 115.438ZM66.6834 112.476V106.091H68.8141V117H66.726V115.111H66.6124C66.3614 115.693 65.959 116.179 65.405 116.567C64.8557 116.95 64.1715 117.142 63.3524 117.142C62.6517 117.142 62.0314 116.988 61.4916 116.68C60.9566 116.368 60.5352 115.906 60.2274 115.295C59.9244 114.685 59.7729 113.929 59.7729 113.03V106.091H61.8965V112.774C61.8965 113.518 62.1024 114.109 62.5143 114.55C62.9263 114.99 63.4613 115.21 64.1195 115.21C64.5172 115.21 64.9125 115.111 65.3055 114.912C65.7033 114.713 66.0323 114.412 66.2928 114.01C66.5579 113.607 66.6881 113.096 66.6834 112.476ZM79.9351 117.241C79.2438 117.241 78.6188 117.114 78.0601 116.858C77.5014 116.598 77.0587 116.221 76.732 115.729C76.41 115.236 76.249 114.633 76.249 113.918C76.249 113.302 76.3674 112.795 76.6041 112.398C76.8409 112 77.1605 111.685 77.5629 111.453C77.9654 111.221 78.4152 111.046 78.9124 110.928C79.4095 110.809 79.9161 110.719 80.4322 110.658C81.0857 110.582 81.616 110.52 82.0232 110.473C82.4303 110.421 82.7263 110.338 82.9109 110.224C83.0956 110.111 83.1879 109.926 83.1879 109.67V109.621C83.1879 109 83.0127 108.52 82.6624 108.179C82.3167 107.838 81.8006 107.668 81.1141 107.668C80.3991 107.668 79.8357 107.826 79.4237 108.143C79.0165 108.456 78.7348 108.804 78.5785 109.188L76.5828 108.733C76.8196 108.07 77.1652 107.535 77.6197 107.128C78.079 106.716 78.607 106.418 79.2035 106.233C79.8001 106.044 80.4275 105.949 81.0857 105.949C81.5213 105.949 81.9829 106.001 82.4706 106.105C82.963 106.205 83.4223 106.389 83.8484 106.659C84.2793 106.929 84.6321 107.315 84.9067 107.817C85.1813 108.314 85.3186 108.96 85.3186 109.756V117H83.2447V115.509H83.1595C83.0222 115.783 82.8162 116.053 82.5416 116.318C82.267 116.583 81.9142 116.804 81.4834 116.979C81.0525 117.154 80.5364 117.241 79.9351 117.241ZM80.3967 115.537C80.9839 115.537 81.4857 115.421 81.9024 115.189C82.3238 114.957 82.6434 114.654 82.8612 114.28C83.0838 113.901 83.195 113.496 83.195 113.065V111.659C83.1193 111.735 82.9725 111.806 82.7547 111.872C82.5416 111.934 82.2978 111.988 82.0232 112.036C81.7485 112.078 81.481 112.118 81.2206 112.156C80.9602 112.189 80.7424 112.218 80.5672 112.241C80.1553 112.294 79.7788 112.381 79.4379 112.504C79.1017 112.627 78.8319 112.805 78.6283 113.037C78.4294 113.264 78.33 113.567 78.33 113.946C78.33 114.472 78.5241 114.869 78.9124 115.139C79.3006 115.404 79.7954 115.537 80.3967 115.537ZM90.1707 110.523V117H88.0471V106.091H90.0854V107.866H90.2204C90.4713 107.289 90.8643 106.825 91.3994 106.474C91.9391 106.124 92.6186 105.949 93.4377 105.949C94.1811 105.949 94.8321 106.105 95.3908 106.418C95.9495 106.725 96.3828 107.185 96.6906 107.795C96.9983 108.406 97.1522 109.161 97.1522 110.061V117H95.0286V110.317C95.0286 109.526 94.8227 108.908 94.4107 108.463C93.9988 108.013 93.433 107.788 92.7133 107.788C92.2209 107.788 91.7829 107.895 91.3994 108.108C91.0206 108.321 90.7199 108.634 90.4974 109.045C90.2796 109.453 90.1707 109.945 90.1707 110.523ZM103.984 117.213C103.103 117.213 102.317 116.988 101.626 116.538C100.94 116.084 100.4 115.437 100.007 114.599C99.6185 113.757 99.4244 112.746 99.4244 111.567C99.4244 110.388 99.6209 109.379 100.014 108.541C100.412 107.703 100.956 107.062 101.647 106.616C102.339 106.171 103.122 105.949 103.998 105.949C104.675 105.949 105.22 106.062 105.632 106.29C106.048 106.512 106.37 106.773 106.598 107.071C106.83 107.369 107.01 107.632 107.137 107.859H107.265V102.455H109.389V117H107.315V115.303H107.137C107.01 115.535 106.825 115.8 106.583 116.098C106.347 116.396 106.02 116.657 105.603 116.879C105.187 117.102 104.647 117.213 103.984 117.213ZM104.453 115.402C105.064 115.402 105.58 115.241 106.001 114.919C106.427 114.592 106.749 114.14 106.967 113.562C107.19 112.985 107.301 112.312 107.301 111.545C107.301 110.788 107.192 110.125 106.974 109.557C106.756 108.989 106.437 108.546 106.015 108.229C105.594 107.911 105.073 107.753 104.453 107.753C103.814 107.753 103.281 107.919 102.855 108.25C102.429 108.581 102.107 109.034 101.889 109.607C101.676 110.179 101.569 110.826 101.569 111.545C101.569 112.275 101.678 112.93 101.896 113.513C102.114 114.095 102.436 114.557 102.862 114.898C103.293 115.234 103.823 115.402 104.453 115.402ZM118.855 121.091C118.538 121.091 118.249 121.065 117.989 121.013C117.728 120.965 117.534 120.913 117.406 120.857L117.918 119.116C118.306 119.221 118.651 119.266 118.954 119.251C119.258 119.237 119.525 119.124 119.757 118.911C119.994 118.697 120.202 118.349 120.382 117.866L120.645 117.142L116.653 106.091H118.926L121.689 114.557H121.802L124.565 106.091H126.845L122.349 118.456C122.141 119.024 121.876 119.505 121.554 119.898C121.232 120.295 120.848 120.594 120.403 120.793C119.958 120.991 119.442 121.091 118.855 121.091ZM132.965 117.22C131.942 117.22 131.05 116.986 130.287 116.517C129.525 116.048 128.933 115.393 128.512 114.55C128.09 113.707 127.88 112.722 127.88 111.595C127.88 110.464 128.09 109.474 128.512 108.626C128.933 107.779 129.525 107.121 130.287 106.652C131.05 106.183 131.942 105.949 132.965 105.949C133.988 105.949 134.88 106.183 135.642 106.652C136.405 107.121 136.997 107.779 137.418 108.626C137.839 109.474 138.05 110.464 138.05 111.595C138.05 112.722 137.839 113.707 137.418 114.55C136.997 115.393 136.405 116.048 135.642 116.517C134.88 116.986 133.988 117.22 132.965 117.22ZM132.972 115.438C133.635 115.438 134.184 115.262 134.62 114.912C135.055 114.562 135.377 114.095 135.586 113.513C135.799 112.93 135.905 112.289 135.905 111.588C135.905 110.892 135.799 110.253 135.586 109.67C135.377 109.083 135.055 108.612 134.62 108.257C134.184 107.902 133.635 107.724 132.972 107.724C132.304 107.724 131.75 107.902 131.31 108.257C130.874 108.612 130.55 109.083 130.337 109.67C130.129 110.253 130.025 110.892 130.025 111.588C130.025 112.289 130.129 112.93 130.337 113.513C130.55 114.095 130.874 114.562 131.31 114.912C131.75 115.262 132.304 115.438 132.972 115.438ZM147.231 112.476V106.091H149.362V117H147.274V115.111H147.16C146.909 115.693 146.507 116.179 145.953 116.567C145.403 116.95 144.719 117.142 143.9 117.142C143.199 117.142 142.579 116.988 142.039 116.68C141.504 116.368 141.083 115.906 140.775 115.295C140.472 114.685 140.321 113.929 140.321 113.03V106.091H142.444V112.774C142.444 113.518 142.65 114.109 143.062 114.55C143.474 114.99 144.009 115.21 144.667 115.21C145.065 115.21 145.46 115.111 145.853 114.912C146.251 114.713 146.58 114.412 146.84 114.01C147.106 113.607 147.236 113.096 147.231 112.476ZM152.115 117V106.091H154.168V107.824H154.281C154.48 107.237 154.83 106.775 155.332 106.439C155.839 106.098 156.412 105.928 157.051 105.928C157.184 105.928 157.34 105.932 157.52 105.942C157.705 105.951 157.849 105.963 157.953 105.977V108.009C157.868 107.985 157.716 107.959 157.499 107.93C157.281 107.897 157.063 107.881 156.845 107.881C156.343 107.881 155.896 107.987 155.503 108.2C155.115 108.409 154.807 108.7 154.58 109.074C154.352 109.443 154.239 109.865 154.239 110.338V117H152.115ZM170.076 106.091V107.795H163.911V106.091H170.076ZM165.601 117V104.827C165.601 104.145 165.75 103.579 166.049 103.129C166.347 102.675 166.742 102.336 167.235 102.114C167.727 101.886 168.262 101.773 168.84 101.773C169.266 101.773 169.63 101.808 169.934 101.879C170.237 101.946 170.461 102.007 170.608 102.064L170.111 103.783C170.012 103.754 169.884 103.721 169.728 103.683C169.571 103.641 169.382 103.619 169.159 103.619C168.643 103.619 168.274 103.747 168.051 104.003C167.834 104.259 167.725 104.628 167.725 105.111V117H165.601ZM172.167 117V106.091H174.219V107.824H174.333C174.532 107.237 174.882 106.775 175.384 106.439C175.891 106.098 176.463 105.928 177.103 105.928C177.235 105.928 177.392 105.932 177.571 105.942C177.756 105.951 177.901 105.963 178.005 105.977V108.009C177.919 107.985 177.768 107.959 177.55 107.93C177.332 107.897 177.115 107.881 176.897 107.881C176.395 107.881 175.947 107.987 175.554 108.2C175.166 108.409 174.858 108.7 174.631 109.074C174.404 109.443 174.29 109.865 174.29 110.338V117H172.167ZM179.742 117V106.091H181.866V117H179.742ZM180.815 104.408C180.446 104.408 180.128 104.285 179.863 104.038C179.603 103.787 179.473 103.489 179.473 103.143C179.473 102.793 179.603 102.495 179.863 102.249C180.128 101.998 180.446 101.872 180.815 101.872C181.184 101.872 181.499 101.998 181.759 102.249C182.025 102.495 182.157 102.793 182.157 103.143C182.157 103.489 182.025 103.787 181.759 104.038C181.499 104.285 181.184 104.408 180.815 104.408ZM189.325 117.22C188.25 117.22 187.324 116.991 186.548 116.531C185.776 116.067 185.179 115.416 184.758 114.578C184.341 113.735 184.133 112.748 184.133 111.616C184.133 110.499 184.341 109.514 184.758 108.662C185.179 107.81 185.766 107.144 186.519 106.666C187.277 106.188 188.162 105.949 189.175 105.949C189.791 105.949 190.388 106.051 190.965 106.254C191.543 106.458 192.061 106.777 192.521 107.213C192.98 107.649 193.342 108.214 193.607 108.911C193.872 109.602 194.005 110.442 194.005 111.432V112.185H185.333V110.594H191.924C191.924 110.035 191.81 109.54 191.583 109.109C191.356 108.674 191.036 108.33 190.624 108.08C190.217 107.829 189.739 107.703 189.19 107.703C188.593 107.703 188.072 107.85 187.627 108.143C187.187 108.432 186.846 108.811 186.604 109.28C186.368 109.744 186.249 110.248 186.249 110.793V112.036C186.249 112.765 186.377 113.385 186.633 113.896C186.893 114.408 187.255 114.798 187.719 115.068C188.183 115.333 188.726 115.466 189.346 115.466C189.748 115.466 190.115 115.409 190.447 115.295C190.778 115.177 191.065 115.002 191.306 114.77C191.548 114.538 191.732 114.251 191.86 113.911L193.87 114.273C193.709 114.865 193.42 115.383 193.004 115.828C192.592 116.268 192.073 116.612 191.448 116.858C190.828 117.099 190.12 117.22 189.325 117.22ZM198.385 110.523V117H196.261V106.091H198.299V107.866H198.434C198.685 107.289 199.078 106.825 199.613 106.474C200.153 106.124 200.833 105.949 201.652 105.949C202.395 105.949 203.046 106.105 203.605 106.418C204.164 106.725 204.597 107.185 204.905 107.795C205.212 108.406 205.366 109.161 205.366 110.061V117H203.243V110.317C203.243 109.526 203.037 108.908 202.625 108.463C202.213 108.013 201.647 107.788 200.927 107.788C200.435 107.788 199.997 107.895 199.613 108.108C199.235 108.321 198.934 108.634 198.711 109.045C198.494 109.453 198.385 109.945 198.385 110.523ZM212.198 117.213C211.317 117.213 210.531 116.988 209.84 116.538C209.154 116.084 208.614 115.437 208.221 114.599C207.833 113.757 207.638 112.746 207.638 111.567C207.638 110.388 207.835 109.379 208.228 108.541C208.626 107.703 209.17 107.062 209.861 106.616C210.553 106.171 211.336 105.949 212.212 105.949C212.889 105.949 213.434 106.062 213.846 106.29C214.262 106.512 214.584 106.773 214.812 107.071C215.044 107.369 215.224 107.632 215.351 107.859H215.479V102.455H217.603V117H215.529V115.303H215.351C215.224 115.535 215.039 115.8 214.798 116.098C214.561 116.396 214.234 116.657 213.817 116.879C213.401 117.102 212.861 117.213 212.198 117.213ZM212.667 115.402C213.278 115.402 213.794 115.241 214.215 114.919C214.641 114.592 214.963 114.14 215.181 113.562C215.404 112.985 215.515 112.312 215.515 111.545C215.515 110.788 215.406 110.125 215.188 109.557C214.97 108.989 214.651 108.546 214.229 108.229C213.808 107.911 213.287 107.753 212.667 107.753C212.028 107.753 211.495 107.919 211.069 108.25C210.643 108.581 210.321 109.034 210.103 109.607C209.89 110.179 209.783 110.826 209.783 111.545C209.783 112.275 209.892 112.93 210.11 113.513C210.328 114.095 210.65 114.557 211.076 114.898C211.507 115.234 212.037 115.402 212.667 115.402ZM223.211 102.455L223.027 112.817H221.059L220.875 102.455H223.211ZM222.047 117.135C221.654 117.135 221.317 116.998 221.038 116.723C220.759 116.444 220.621 116.107 220.626 115.714C220.621 115.326 220.759 114.995 221.038 114.72C221.317 114.441 221.654 114.301 222.047 114.301C222.43 114.301 222.762 114.441 223.041 114.72C223.32 114.995 223.462 115.326 223.467 115.714C223.462 115.975 223.394 116.214 223.261 116.432C223.133 116.645 222.963 116.815 222.75 116.943C222.537 117.071 222.302 117.135 222.047 117.135Z" fill="black"/>
<rect y="175" width="516" height="135" rx="20" fill="#AC1B2A"/>
<path d="M355.922 178.271H347.001C343.951 178.271 341.479 175.799 341.479 172.749C341.479 169.7 343.951 167.228 347.001 167.228H507.317C510.716 167.228 513.743 169.375 514.867 172.583L516 175.817V312C516 316.419 512.418 320 508 320H325.637C320.312 320 316.474 314.897 317.951 309.781L355.922 178.271Z" fill="#FCB038"/>
<path d="M341.479 172.749C341.479 169.022 344.501 166 348.228 166H506C511.523 166 516 170.477 516 176V179.498H348.228C344.501 179.498 341.479 176.476 341.479 172.749Z" fill="#F6941A"/>
<path d="M28.5568 235.5V212.227H36.8523C38.6553 212.227 40.1515 212.538 41.3409 213.159C42.5379 213.78 43.4318 214.64 44.0227 215.739C44.6136 216.83 44.9091 218.091 44.9091 219.523C44.9091 220.947 44.6098 222.201 44.0114 223.284C43.4205 224.36 42.5265 225.197 41.3295 225.795C40.1402 226.394 38.6439 226.693 36.8409 226.693H30.5568V223.67H36.5227C37.6591 223.67 38.5833 223.508 39.2955 223.182C40.0152 222.856 40.5417 222.383 40.875 221.761C41.2083 221.14 41.375 220.394 41.375 219.523C41.375 218.644 41.2045 217.883 40.8636 217.239C40.5303 216.595 40.0038 216.102 39.2841 215.761C38.572 215.413 37.6364 215.239 36.4773 215.239H32.0682V235.5H28.5568ZM40.0455 225L45.7955 235.5H41.7955L36.1591 225H40.0455ZM56.0531 235.852C54.3334 235.852 52.8523 235.485 51.6099 234.75C50.375 234.008 49.4205 232.966 48.7463 231.625C48.0796 230.277 47.7463 228.697 47.7463 226.886C47.7463 225.098 48.0796 223.523 48.7463 222.159C49.4205 220.795 50.3599 219.731 51.5644 218.966C52.7766 218.201 54.1932 217.818 55.8144 217.818C56.7993 217.818 57.7538 217.981 58.6781 218.307C59.6023 218.633 60.4319 219.144 61.1667 219.841C61.9016 220.538 62.4811 221.443 62.9053 222.557C63.3296 223.663 63.5417 225.008 63.5417 226.591V227.795H49.6667V225.25H60.2122C60.2122 224.356 60.0303 223.564 59.6667 222.875C59.3031 222.178 58.7917 221.629 58.1326 221.227C57.4811 220.826 56.7159 220.625 55.8372 220.625C54.8826 220.625 54.0493 220.86 53.3372 221.33C52.6326 221.792 52.0872 222.398 51.7008 223.148C51.322 223.89 51.1326 224.697 51.1326 225.568V227.557C51.1326 228.723 51.3372 229.716 51.7463 230.534C52.1629 231.352 52.7425 231.977 53.4849 232.409C54.2273 232.833 55.0947 233.045 56.0872 233.045C56.7311 233.045 57.3182 232.955 57.8485 232.773C58.3788 232.583 58.8372 232.303 59.2235 231.932C59.6099 231.561 59.9053 231.102 60.1099 230.557L63.3258 231.136C63.0682 232.083 62.6061 232.913 61.9394 233.625C61.2803 234.33 60.4508 234.879 59.4508 235.273C58.4584 235.659 57.3258 235.852 56.0531 235.852ZM75.4584 218.045V220.773H65.5948V218.045H75.4584ZM68.2993 235.5V216.023C68.2993 214.932 68.538 214.027 69.0152 213.307C69.4925 212.58 70.1251 212.038 70.913 211.682C71.7008 211.318 72.5569 211.136 73.4811 211.136C74.163 211.136 74.7463 211.193 75.2311 211.307C75.716 211.413 76.0758 211.511 76.3107 211.602L75.5152 214.352C75.3561 214.307 75.1516 214.254 74.9016 214.193C74.6516 214.125 74.3486 214.091 73.9925 214.091C73.1667 214.091 72.5758 214.295 72.2198 214.705C71.8713 215.114 71.697 215.705 71.697 216.477V235.5H68.2993ZM85.6393 235.852C83.9196 235.852 82.4386 235.485 81.1961 234.75C79.9613 234.008 79.0067 232.966 78.3325 231.625C77.6658 230.277 77.3325 228.697 77.3325 226.886C77.3325 225.098 77.6658 223.523 78.3325 222.159C79.0067 220.795 79.9461 219.731 81.1507 218.966C82.3628 218.201 83.7795 217.818 85.4007 217.818C86.3855 217.818 87.3401 217.981 88.2643 218.307C89.1886 218.633 90.0181 219.144 90.753 219.841C91.4878 220.538 92.0673 221.443 92.4916 222.557C92.9158 223.663 93.128 225.008 93.128 226.591V227.795H79.253V225.25H89.7984C89.7984 224.356 89.6166 223.564 89.253 222.875C88.8893 222.178 88.378 221.629 87.7189 221.227C87.0673 220.826 86.3022 220.625 85.4234 220.625C84.4689 220.625 83.6355 220.86 82.9234 221.33C82.2189 221.792 81.6734 222.398 81.287 223.148C80.9083 223.89 80.7189 224.697 80.7189 225.568V227.557C80.7189 228.723 80.9234 229.716 81.3325 230.534C81.7492 231.352 82.3287 231.977 83.0711 232.409C83.8136 232.833 84.681 233.045 85.6734 233.045C86.3173 233.045 86.9045 232.955 87.4348 232.773C87.9651 232.583 88.4234 232.303 88.8098 231.932C89.1961 231.561 89.4916 231.102 89.6961 230.557L92.912 231.136C92.6545 232.083 92.1923 232.913 91.5257 233.625C90.8666 234.33 90.037 234.879 89.037 235.273C88.0446 235.659 86.912 235.852 85.6393 235.852ZM96.7378 235.5V218.045H100.022V220.818H100.204C100.522 219.879 101.083 219.14 101.886 218.602C102.696 218.057 103.613 217.784 104.636 217.784C104.848 217.784 105.098 217.792 105.386 217.807C105.681 217.822 105.912 217.841 106.079 217.864V221.114C105.942 221.076 105.7 221.034 105.351 220.989C105.003 220.936 104.655 220.909 104.306 220.909C103.503 220.909 102.787 221.08 102.158 221.42C101.537 221.754 101.045 222.22 100.681 222.818C100.317 223.409 100.136 224.083 100.136 224.841V235.5H96.7378ZM119.316 242.045C118.808 242.045 118.346 242.004 117.929 241.92C117.513 241.845 117.202 241.761 116.997 241.67L117.816 238.886C118.437 239.053 118.99 239.125 119.475 239.102C119.96 239.08 120.388 238.898 120.759 238.557C121.138 238.216 121.471 237.659 121.759 236.886L122.179 235.727L115.793 218.045H119.429L123.85 231.591H124.031L128.452 218.045H132.1L124.906 237.83C124.573 238.739 124.149 239.508 123.634 240.136C123.119 240.773 122.505 241.25 121.793 241.568C121.081 241.886 120.255 242.045 119.316 242.045ZM141.891 235.852C140.255 235.852 138.827 235.477 137.607 234.727C136.388 233.977 135.441 232.928 134.766 231.58C134.092 230.231 133.755 228.655 133.755 226.852C133.755 225.042 134.092 223.458 134.766 222.102C135.441 220.746 136.388 219.693 137.607 218.943C138.827 218.193 140.255 217.818 141.891 217.818C143.528 217.818 144.956 218.193 146.175 218.943C147.395 219.693 148.342 220.746 149.016 222.102C149.691 223.458 150.028 225.042 150.028 226.852C150.028 228.655 149.691 230.231 149.016 231.58C148.342 232.928 147.395 233.977 146.175 234.727C144.956 235.477 143.528 235.852 141.891 235.852ZM141.903 233C142.963 233 143.842 232.72 144.539 232.159C145.236 231.598 145.751 230.852 146.085 229.92C146.425 228.989 146.596 227.962 146.596 226.841C146.596 225.727 146.425 224.705 146.085 223.773C145.751 222.833 145.236 222.08 144.539 221.511C143.842 220.943 142.963 220.659 141.903 220.659C140.835 220.659 139.948 220.943 139.244 221.511C138.547 222.08 138.028 222.833 137.687 223.773C137.353 224.705 137.187 225.727 137.187 226.841C137.187 227.962 137.353 228.989 137.687 229.92C138.028 230.852 138.547 231.598 139.244 232.159C139.948 232.72 140.835 233 141.903 233ZM164.717 228.261V218.045H168.126V235.5H164.785V232.477H164.604C164.202 233.409 163.558 234.186 162.672 234.807C161.793 235.42 160.698 235.727 159.388 235.727C158.266 235.727 157.274 235.481 156.41 234.989C155.554 234.489 154.88 233.75 154.388 232.773C153.903 231.795 153.66 230.587 153.66 229.148V218.045H157.058V228.739C157.058 229.928 157.388 230.875 158.047 231.58C158.706 232.284 159.562 232.636 160.615 232.636C161.251 232.636 161.884 232.477 162.513 232.159C163.149 231.841 163.675 231.36 164.092 230.716C164.516 230.072 164.725 229.254 164.717 228.261ZM172.532 235.5V218.045H175.816V220.818H175.997C176.316 219.879 176.876 219.14 177.679 218.602C178.49 218.057 179.407 217.784 180.429 217.784C180.641 217.784 180.891 217.792 181.179 217.807C181.475 217.822 181.706 217.841 181.872 217.864V221.114C181.736 221.076 181.494 221.034 181.145 220.989C180.797 220.936 180.448 220.909 180.1 220.909C179.297 220.909 178.581 221.08 177.952 221.42C177.331 221.754 176.838 222.22 176.475 222.818C176.111 223.409 175.929 224.083 175.929 224.841V235.5H172.532ZM201.268 218.045V220.773H191.405V218.045H201.268ZM194.109 235.5V216.023C194.109 214.932 194.348 214.027 194.825 213.307C195.303 212.58 195.935 212.038 196.723 211.682C197.511 211.318 198.367 211.136 199.291 211.136C199.973 211.136 200.556 211.193 201.041 211.307C201.526 211.413 201.886 211.511 202.121 211.602L201.325 214.352C201.166 214.307 200.962 214.254 200.712 214.193C200.462 214.125 200.159 214.091 199.803 214.091C198.977 214.091 198.386 214.295 198.03 214.705C197.681 215.114 197.507 215.705 197.507 216.477V235.5H194.109ZM204.614 235.5V218.045H207.898V220.818H208.08C208.398 219.879 208.959 219.14 209.762 218.602C210.572 218.057 211.489 217.784 212.512 217.784C212.724 217.784 212.974 217.792 213.262 217.807C213.557 217.822 213.788 217.841 213.955 217.864V221.114C213.819 221.076 213.576 221.034 213.228 220.989C212.879 220.936 212.531 220.909 212.182 220.909C211.379 220.909 210.663 221.08 210.035 221.42C209.413 221.754 208.921 222.22 208.557 222.818C208.194 223.409 208.012 224.083 208.012 224.841V235.5H204.614ZM216.735 235.5V218.045H220.133V235.5H216.735ZM218.451 215.352C217.86 215.352 217.353 215.155 216.929 214.761C216.512 214.36 216.304 213.883 216.304 213.33C216.304 212.769 216.512 212.292 216.929 211.898C217.353 211.496 217.86 211.295 218.451 211.295C219.042 211.295 219.546 211.496 219.963 211.898C220.387 212.292 220.599 212.769 220.599 213.33C220.599 213.883 220.387 214.36 219.963 214.761C219.546 215.155 219.042 215.352 218.451 215.352ZM232.067 235.852C230.347 235.852 228.866 235.485 227.624 234.75C226.389 234.008 225.434 232.966 224.76 231.625C224.093 230.277 223.76 228.697 223.76 226.886C223.76 225.098 224.093 223.523 224.76 222.159C225.434 220.795 226.374 219.731 227.578 218.966C228.79 218.201 230.207 217.818 231.828 217.818C232.813 217.818 233.768 217.981 234.692 218.307C235.616 218.633 236.446 219.144 237.18 219.841C237.915 220.538 238.495 221.443 238.919 222.557C239.343 223.663 239.555 225.008 239.555 226.591V227.795H225.68V225.25H236.226C236.226 224.356 236.044 223.564 235.68 222.875C235.317 222.178 234.805 221.629 234.146 221.227C233.495 220.826 232.73 220.625 231.851 220.625C230.896 220.625 230.063 220.86 229.351 221.33C228.646 221.792 228.101 222.398 227.715 223.148C227.336 223.89 227.146 224.697 227.146 225.568V227.557C227.146 228.723 227.351 229.716 227.76 230.534C228.177 231.352 228.756 231.977 229.499 232.409C230.241 232.833 231.108 233.045 232.101 233.045C232.745 233.045 233.332 232.955 233.862 232.773C234.393 232.583 234.851 232.303 235.237 231.932C235.624 231.561 235.919 231.102 236.124 230.557L239.34 231.136C239.082 232.083 238.62 232.913 237.953 233.625C237.294 234.33 236.465 234.879 235.465 235.273C234.472 235.659 233.34 235.852 232.067 235.852ZM246.563 225.136V235.5H243.165V218.045H246.427V220.886H246.643C247.044 219.962 247.673 219.22 248.529 218.659C249.393 218.098 250.48 217.818 251.79 217.818C252.98 217.818 254.021 218.068 254.915 218.568C255.809 219.061 256.502 219.795 256.995 220.773C257.487 221.75 257.734 222.958 257.734 224.398V235.5H254.336V224.807C254.336 223.542 254.006 222.553 253.347 221.841C252.688 221.121 251.783 220.761 250.631 220.761C249.843 220.761 249.143 220.932 248.529 221.273C247.923 221.614 247.442 222.114 247.086 222.773C246.737 223.424 246.563 224.212 246.563 225.136ZM268.664 235.841C267.255 235.841 265.998 235.481 264.892 234.761C263.793 234.034 262.93 233 262.301 231.659C261.68 230.311 261.369 228.693 261.369 226.807C261.369 224.92 261.683 223.307 262.312 221.966C262.949 220.625 263.82 219.598 264.926 218.886C266.032 218.174 267.286 217.818 268.687 217.818C269.77 217.818 270.642 218 271.301 218.364C271.967 218.72 272.483 219.136 272.846 219.614C273.217 220.091 273.505 220.511 273.71 220.875H273.914V212.227H277.312V235.5H273.994V232.784H273.71C273.505 233.155 273.21 233.58 272.824 234.057C272.445 234.534 271.922 234.951 271.255 235.307C270.589 235.663 269.725 235.841 268.664 235.841ZM269.414 232.943C270.392 232.943 271.217 232.686 271.892 232.17C272.574 231.648 273.089 230.924 273.437 230C273.793 229.076 273.971 228 273.971 226.773C273.971 225.561 273.797 224.5 273.449 223.591C273.1 222.682 272.589 221.973 271.914 221.466C271.24 220.958 270.407 220.705 269.414 220.705C268.392 220.705 267.539 220.97 266.858 221.5C266.176 222.03 265.661 222.754 265.312 223.67C264.971 224.587 264.801 225.621 264.801 226.773C264.801 227.939 264.975 228.989 265.324 229.92C265.672 230.852 266.187 231.591 266.869 232.136C267.558 232.674 268.407 232.943 269.414 232.943Z" fill="white"/>
<path d="M26.8807 258.844V256.955H38.1378V258.844H33.5994V271.5H31.4119V258.844H26.8807ZM43.368 271.72C42.3453 271.72 41.4528 271.486 40.6905 271.017C39.9282 270.548 39.3363 269.893 38.9149 269.05C38.4935 268.207 38.2828 267.222 38.2828 266.095C38.2828 264.964 38.4935 263.974 38.9149 263.126C39.3363 262.279 39.9282 261.621 40.6905 261.152C41.4528 260.683 42.3453 260.449 43.368 260.449C44.3908 260.449 45.2833 260.683 46.0456 261.152C46.8079 261.621 47.3998 262.279 47.8212 263.126C48.2426 263.974 48.4533 264.964 48.4533 266.095C48.4533 267.222 48.2426 268.207 47.8212 269.05C47.3998 269.893 46.8079 270.548 46.0456 271.017C45.2833 271.486 44.3908 271.72 43.368 271.72ZM43.3751 269.938C44.038 269.938 44.5873 269.762 45.0229 269.412C45.4585 269.062 45.7804 268.595 45.9888 268.013C46.2018 267.43 46.3084 266.789 46.3084 266.088C46.3084 265.392 46.2018 264.753 45.9888 264.17C45.7804 263.583 45.4585 263.112 45.0229 262.757C44.5873 262.402 44.038 262.224 43.3751 262.224C42.7075 262.224 42.1536 262.402 41.7132 262.757C41.2776 263.112 40.9533 263.583 40.7402 264.17C40.5319 264.753 40.4277 265.392 40.4277 266.088C40.4277 266.789 40.5319 267.43 40.7402 268.013C40.9533 268.595 41.2776 269.062 41.7132 269.412C42.1536 269.762 42.7075 269.938 43.3751 269.938ZM57.8811 271.5H55.0857L61.3669 254.045H64.4095L70.6908 271.5H67.8953L62.9607 257.216H62.8243L57.8811 271.5ZM58.3499 264.665H67.418V266.881H58.3499V264.665ZM75.4351 263.727V271.5H72.8868V258.409H75.3328V260.54H75.4948C75.7959 259.847 76.2675 259.29 76.9095 258.869C77.5573 258.449 78.3726 258.239 79.3556 258.239C80.2476 258.239 81.0289 258.426 81.6993 258.801C82.3698 259.17 82.8897 259.722 83.259 260.455C83.6283 261.187 83.813 262.094 83.813 263.173V271.5H81.2647V263.48C81.2647 262.531 81.0175 261.79 80.5232 261.256C80.0289 260.716 79.3499 260.446 78.4863 260.446C77.8953 260.446 77.3698 260.574 76.9095 260.83C76.455 261.085 76.0942 261.46 75.8272 261.955C75.5658 262.443 75.4351 263.034 75.4351 263.727ZM95.4032 266.071V258.409H97.96V271.5H95.4543V269.233H95.318C95.0168 269.932 94.5339 270.514 93.8691 270.98C93.21 271.44 92.389 271.67 91.406 271.67C90.5651 271.67 89.8208 271.486 89.1731 271.116C88.531 270.741 88.0253 270.188 87.656 269.455C87.2924 268.722 87.1106 267.815 87.1106 266.736V258.409H89.6589V266.429C89.6589 267.321 89.906 268.031 90.4003 268.56C90.8947 269.088 91.5367 269.352 92.3265 269.352C92.8037 269.352 93.2782 269.233 93.7498 268.994C94.227 268.756 94.6219 268.395 94.9344 267.912C95.2526 267.429 95.4089 266.815 95.4032 266.071ZM101.264 271.5V258.409H103.71V260.54H103.872C104.145 259.818 104.591 259.256 105.21 258.852C105.829 258.443 106.571 258.239 107.434 258.239C108.309 258.239 109.042 258.443 109.633 258.852C110.23 259.261 110.67 259.824 110.954 260.54H111.091C111.403 259.841 111.9 259.284 112.582 258.869C113.264 258.449 114.077 258.239 115.02 258.239C116.207 258.239 117.176 258.611 117.926 259.355C118.682 260.099 119.059 261.222 119.059 262.722V271.5H116.511V262.96C116.511 262.074 116.27 261.432 115.787 261.034C115.304 260.636 114.727 260.438 114.057 260.438C113.227 260.438 112.582 260.693 112.122 261.205C111.662 261.71 111.432 262.361 111.432 263.156V271.5H108.892V262.798C108.892 262.088 108.67 261.517 108.227 261.085C107.784 260.653 107.207 260.438 106.497 260.438C106.014 260.438 105.568 260.565 105.159 260.821C104.755 261.071 104.429 261.42 104.179 261.869C103.934 262.318 103.812 262.838 103.812 263.429V271.5H101.264ZM126.165 271.79C125.335 271.79 124.585 271.636 123.915 271.33C123.244 271.017 122.713 270.565 122.321 269.974C121.934 269.384 121.741 268.659 121.741 267.801C121.741 267.062 121.883 266.455 122.167 265.977C122.452 265.5 122.835 265.122 123.318 264.844C123.801 264.565 124.341 264.355 124.937 264.213C125.534 264.071 126.142 263.963 126.761 263.889C127.545 263.798 128.182 263.724 128.67 263.668C129.159 263.605 129.514 263.506 129.736 263.369C129.957 263.233 130.068 263.011 130.068 262.705V262.645C130.068 261.901 129.858 261.324 129.437 260.915C129.023 260.506 128.403 260.301 127.579 260.301C126.721 260.301 126.045 260.491 125.551 260.872C125.062 261.247 124.724 261.665 124.537 262.125L122.142 261.58C122.426 260.784 122.841 260.142 123.386 259.653C123.937 259.159 124.571 258.801 125.287 258.58C126.003 258.352 126.756 258.239 127.545 258.239C128.068 258.239 128.622 258.301 129.207 258.426C129.798 258.545 130.349 258.767 130.861 259.091C131.378 259.415 131.801 259.878 132.131 260.48C132.46 261.077 132.625 261.852 132.625 262.807V271.5H130.136V269.71H130.034C129.869 270.04 129.622 270.364 129.292 270.682C128.963 271 128.54 271.264 128.023 271.474C127.506 271.685 126.886 271.79 126.165 271.79ZM126.719 269.744C127.423 269.744 128.025 269.605 128.525 269.327C129.031 269.048 129.415 268.685 129.676 268.236C129.943 267.781 130.077 267.295 130.077 266.778V265.091C129.986 265.182 129.809 265.267 129.548 265.347C129.292 265.42 129 265.486 128.67 265.543C128.341 265.594 128.02 265.642 127.707 265.688C127.395 265.727 127.133 265.761 126.923 265.79C126.429 265.852 125.977 265.957 125.568 266.105C125.165 266.253 124.841 266.466 124.596 266.744C124.358 267.017 124.238 267.381 124.238 267.835C124.238 268.466 124.471 268.943 124.937 269.267C125.403 269.585 125.997 269.744 126.719 269.744ZM138.447 263.727V271.5H135.899V258.409H138.345V260.54H138.507C138.808 259.847 139.28 259.29 139.922 258.869C140.569 258.449 141.385 258.239 142.368 258.239C143.26 258.239 144.041 258.426 144.712 258.801C145.382 259.17 145.902 259.722 146.271 260.455C146.64 261.187 146.825 262.094 146.825 263.173V271.5H144.277V263.48C144.277 262.531 144.03 261.79 143.535 261.256C143.041 260.716 142.362 260.446 141.498 260.446C140.908 260.446 140.382 260.574 139.922 260.83C139.467 261.085 139.106 261.46 138.839 261.955C138.578 262.443 138.447 263.034 138.447 263.727ZM153.932 271.79C153.103 271.79 152.353 271.636 151.682 271.33C151.012 271.017 150.481 270.565 150.089 269.974C149.702 269.384 149.509 268.659 149.509 267.801C149.509 267.062 149.651 266.455 149.935 265.977C150.219 265.5 150.603 265.122 151.086 264.844C151.569 264.565 152.109 264.355 152.705 264.213C153.302 264.071 153.91 263.963 154.529 263.889C155.313 263.798 155.949 263.724 156.438 263.668C156.927 263.605 157.282 263.506 157.503 263.369C157.725 263.233 157.836 263.011 157.836 262.705V262.645C157.836 261.901 157.626 261.324 157.205 260.915C156.79 260.506 156.171 260.301 155.347 260.301C154.489 260.301 153.813 260.491 153.319 260.872C152.83 261.247 152.492 261.665 152.305 262.125L149.91 261.58C150.194 260.784 150.609 260.142 151.154 259.653C151.705 259.159 152.339 258.801 153.055 258.58C153.77 258.352 154.523 258.239 155.313 258.239C155.836 258.239 156.39 258.301 156.975 258.426C157.566 258.545 158.117 258.767 158.628 259.091C159.145 259.415 159.569 259.878 159.898 260.48C160.228 261.077 160.393 261.852 160.393 262.807V271.5H157.904V269.71H157.802C157.637 270.04 157.39 270.364 157.06 270.682C156.731 271 156.307 271.264 155.79 271.474C155.273 271.685 154.654 271.79 153.932 271.79ZM154.486 269.744C155.191 269.744 155.793 269.605 156.293 269.327C156.799 269.048 157.182 268.685 157.444 268.236C157.711 267.781 157.844 267.295 157.844 266.778V265.091C157.753 265.182 157.577 265.267 157.316 265.347C157.06 265.42 156.768 265.486 156.438 265.543C156.109 265.594 155.788 265.642 155.475 265.688C155.163 265.727 154.901 265.761 154.691 265.79C154.197 265.852 153.745 265.957 153.336 266.105C152.932 266.253 152.609 266.466 152.364 266.744C152.126 267.017 152.006 267.381 152.006 267.835C152.006 268.466 152.239 268.943 152.705 269.267C153.171 269.585 153.765 269.744 154.486 269.744ZM171.749 271.741C171.058 271.741 170.433 271.614 169.874 271.358C169.315 271.098 168.873 270.721 168.546 270.229C168.224 269.736 168.063 269.133 168.063 268.418C168.063 267.802 168.181 267.295 168.418 266.898C168.655 266.5 168.974 266.185 169.377 265.953C169.779 265.721 170.229 265.546 170.726 265.428C171.223 265.309 171.73 265.219 172.246 265.158C172.9 265.082 173.43 265.02 173.837 264.973C174.244 264.921 174.54 264.838 174.725 264.724C174.909 264.611 175.002 264.426 175.002 264.17V264.121C175.002 263.5 174.827 263.02 174.476 262.679C174.131 262.338 173.615 262.168 172.928 262.168C172.213 262.168 171.65 262.326 171.238 262.643C170.83 262.956 170.549 263.304 170.392 263.688L168.397 263.233C168.633 262.57 168.979 262.035 169.434 261.628C169.893 261.216 170.421 260.918 171.017 260.733C171.614 260.544 172.241 260.449 172.9 260.449C173.335 260.449 173.797 260.501 174.284 260.605C174.777 260.705 175.236 260.889 175.662 261.159C176.093 261.429 176.446 261.815 176.721 262.317C176.995 262.814 177.133 263.46 177.133 264.256V271.5H175.059V270.009H174.973C174.836 270.283 174.63 270.553 174.356 270.818C174.081 271.083 173.728 271.304 173.297 271.479C172.866 271.654 172.35 271.741 171.749 271.741ZM172.211 270.037C172.798 270.037 173.3 269.921 173.716 269.689C174.138 269.457 174.457 269.154 174.675 268.78C174.898 268.401 175.009 267.996 175.009 267.565V266.159C174.933 266.235 174.786 266.306 174.569 266.372C174.356 266.434 174.112 266.488 173.837 266.536C173.562 266.578 173.295 266.618 173.034 266.656C172.774 266.689 172.556 266.718 172.381 266.741C171.969 266.794 171.593 266.881 171.252 267.004C170.916 267.127 170.646 267.305 170.442 267.537C170.243 267.764 170.144 268.067 170.144 268.446C170.144 268.972 170.338 269.369 170.726 269.639C171.115 269.904 171.609 270.037 172.211 270.037ZM181.985 265.023V271.5H179.861V260.591H181.899V262.366H182.034C182.285 261.789 182.678 261.325 183.213 260.974C183.753 260.624 184.432 260.449 185.252 260.449C185.995 260.449 186.646 260.605 187.205 260.918C187.763 261.225 188.197 261.685 188.504 262.295C188.812 262.906 188.966 263.661 188.966 264.561V271.5H186.843V264.817C186.843 264.026 186.637 263.408 186.225 262.963C185.813 262.513 185.247 262.288 184.527 262.288C184.035 262.288 183.597 262.395 183.213 262.608C182.834 262.821 182.534 263.134 182.311 263.545C182.093 263.953 181.985 264.445 181.985 265.023ZM195.798 271.713C194.917 271.713 194.131 271.488 193.44 271.038C192.753 270.584 192.214 269.937 191.821 269.099C191.432 268.257 191.238 267.246 191.238 266.067C191.238 264.888 191.435 263.879 191.828 263.041C192.225 262.203 192.77 261.562 193.461 261.116C194.153 260.671 194.936 260.449 195.812 260.449C196.489 260.449 197.034 260.562 197.446 260.79C197.862 261.012 198.184 261.273 198.412 261.571C198.644 261.869 198.823 262.132 198.951 262.359H199.079V256.955H201.203V271.5H199.129V269.803H198.951C198.823 270.035 198.639 270.3 198.397 270.598C198.161 270.896 197.834 271.157 197.417 271.379C197.001 271.602 196.461 271.713 195.798 271.713ZM196.267 269.902C196.877 269.902 197.394 269.741 197.815 269.419C198.241 269.092 198.563 268.64 198.781 268.062C199.003 267.485 199.115 266.812 199.115 266.045C199.115 265.288 199.006 264.625 198.788 264.057C198.57 263.489 198.251 263.046 197.829 262.729C197.408 262.411 196.887 262.253 196.267 262.253C195.627 262.253 195.095 262.419 194.669 262.75C194.243 263.081 193.921 263.534 193.703 264.107C193.49 264.679 193.383 265.326 193.383 266.045C193.383 266.775 193.492 267.43 193.71 268.013C193.928 268.595 194.25 269.057 194.676 269.398C195.107 269.734 195.637 269.902 196.267 269.902ZM214.028 271.72C212.954 271.72 212.028 271.491 211.251 271.031C210.48 270.567 209.883 269.916 209.462 269.078C209.045 268.235 208.837 267.248 208.837 266.116C208.837 264.999 209.045 264.014 209.462 263.162C209.883 262.31 210.47 261.644 211.223 261.166C211.981 260.688 212.866 260.449 213.879 260.449C214.495 260.449 215.091 260.551 215.669 260.754C216.247 260.958 216.765 261.277 217.224 261.713C217.684 262.149 218.046 262.714 218.311 263.411C218.576 264.102 218.709 264.942 218.709 265.932V266.685H210.037V265.094H216.628C216.628 264.535 216.514 264.04 216.287 263.609C216.06 263.174 215.74 262.83 215.328 262.58C214.921 262.329 214.443 262.203 213.893 262.203C213.297 262.203 212.776 262.35 212.331 262.643C211.891 262.932 211.55 263.311 211.308 263.78C211.071 264.244 210.953 264.748 210.953 265.293V266.536C210.953 267.265 211.081 267.885 211.337 268.396C211.597 268.908 211.959 269.298 212.423 269.568C212.887 269.833 213.429 269.966 214.05 269.966C214.452 269.966 214.819 269.909 215.15 269.795C215.482 269.677 215.768 269.502 216.01 269.27C216.251 269.038 216.436 268.751 216.564 268.411L218.574 268.773C218.413 269.365 218.124 269.883 217.707 270.328C217.295 270.768 216.777 271.112 216.152 271.358C215.532 271.599 214.824 271.72 214.028 271.72ZM224.14 271.741C223.448 271.741 222.823 271.614 222.265 271.358C221.706 271.098 221.263 270.721 220.936 270.229C220.615 269.736 220.454 269.133 220.454 268.418C220.454 267.802 220.572 267.295 220.809 266.898C221.045 266.5 221.365 266.185 221.767 265.953C222.17 265.721 222.62 265.546 223.117 265.428C223.614 265.309 224.121 265.219 224.637 265.158C225.29 265.082 225.82 265.02 226.228 264.973C226.635 264.921 226.931 264.838 227.115 264.724C227.3 264.611 227.392 264.426 227.392 264.17V264.121C227.392 263.5 227.217 263.02 226.867 262.679C226.521 262.338 226.005 262.168 225.319 262.168C224.604 262.168 224.04 262.326 223.628 262.643C223.221 262.956 222.939 263.304 222.783 263.688L220.787 263.233C221.024 262.57 221.37 262.035 221.824 261.628C222.284 261.216 222.811 260.918 223.408 260.733C224.005 260.544 224.632 260.449 225.29 260.449C225.726 260.449 226.187 260.501 226.675 260.605C227.168 260.705 227.627 260.889 228.053 261.159C228.484 261.429 228.837 261.815 229.111 262.317C229.386 262.814 229.523 263.46 229.523 264.256V271.5H227.449V270.009H227.364C227.227 270.283 227.021 270.553 226.746 270.818C226.472 271.083 226.119 271.304 225.688 271.479C225.257 271.654 224.741 271.741 224.14 271.741ZM224.601 270.037C225.188 270.037 225.69 269.921 226.107 269.689C226.528 269.457 226.848 269.154 227.066 268.78C227.288 268.401 227.4 267.996 227.4 267.565V266.159C227.324 266.235 227.177 266.306 226.959 266.372C226.746 266.434 226.502 266.488 226.228 266.536C225.953 266.578 225.686 266.618 225.425 266.656C225.165 266.689 224.947 266.718 224.772 266.741C224.36 266.794 223.983 266.881 223.642 267.004C223.306 267.127 223.036 267.305 222.833 267.537C222.634 267.764 222.534 268.067 222.534 268.446C222.534 268.972 222.729 269.369 223.117 269.639C223.505 269.904 224 270.037 224.601 270.037ZM232.252 271.5V260.591H234.304V262.324H234.418C234.617 261.737 234.967 261.275 235.469 260.939C235.976 260.598 236.548 260.428 237.188 260.428C237.32 260.428 237.477 260.432 237.656 260.442C237.841 260.451 237.986 260.463 238.09 260.477V262.509C238.004 262.485 237.853 262.459 237.635 262.43C237.417 262.397 237.2 262.381 236.982 262.381C236.48 262.381 236.032 262.487 235.639 262.7C235.251 262.909 234.943 263.2 234.716 263.574C234.489 263.943 234.375 264.365 234.375 264.838V271.5H232.252ZM241.951 265.023V271.5H239.827V260.591H241.866V262.366H242.001C242.252 261.789 242.645 261.325 243.18 260.974C243.719 260.624 244.399 260.449 245.218 260.449C245.961 260.449 246.612 260.605 247.171 260.918C247.73 261.225 248.163 261.685 248.471 262.295C248.779 262.906 248.933 263.661 248.933 264.561V271.5H246.809V264.817C246.809 264.026 246.603 263.408 246.191 262.963C245.779 262.513 245.213 262.288 244.494 262.288C244.001 262.288 243.563 262.395 243.18 262.608C242.801 262.821 242.5 263.134 242.278 263.545C242.06 263.953 241.951 264.445 241.951 265.023Z" fill="white"/>
<path d="M407.273 197.955H409.475V207.521C409.475 208.539 409.235 209.441 408.757 210.227C408.279 211.009 407.607 211.624 406.74 212.074C405.874 212.519 404.858 212.741 403.693 212.741C402.533 212.741 401.52 212.519 400.653 212.074C399.787 211.624 399.115 211.009 398.636 210.227C398.158 209.441 397.919 208.539 397.919 207.521V197.955H400.114V207.344C400.114 208.002 400.258 208.587 400.547 209.098C400.841 209.609 401.255 210.012 401.79 210.305C402.325 210.594 402.959 210.739 403.693 210.739C404.432 210.739 405.069 210.594 405.604 210.305C406.144 210.012 406.555 209.609 406.84 209.098C407.128 208.587 407.273 208.002 407.273 207.344V197.955ZM412.395 216.591V201.591H414.469V203.359H414.646C414.769 203.132 414.947 202.869 415.179 202.571C415.411 202.273 415.733 202.012 416.145 201.79C416.557 201.562 417.101 201.449 417.778 201.449C418.659 201.449 419.445 201.671 420.136 202.116C420.828 202.562 421.37 203.203 421.763 204.041C422.16 204.879 422.359 205.888 422.359 207.067C422.359 208.246 422.163 209.257 421.77 210.099C421.377 210.937 420.837 211.584 420.15 212.038C419.464 212.488 418.68 212.713 417.8 212.713C417.137 212.713 416.595 212.602 416.173 212.379C415.756 212.157 415.43 211.896 415.193 211.598C414.956 211.3 414.774 211.035 414.646 210.803H414.518V216.591H412.395ZM414.476 207.045C414.476 207.812 414.587 208.485 414.81 209.062C415.032 209.64 415.354 210.092 415.775 210.419C416.197 210.741 416.713 210.902 417.324 210.902C417.958 210.902 418.488 210.734 418.915 210.398C419.341 210.057 419.663 209.595 419.881 209.013C420.103 208.43 420.214 207.775 420.214 207.045C420.214 206.326 420.105 205.679 419.888 205.107C419.675 204.534 419.353 204.081 418.922 203.75C418.496 203.419 417.963 203.253 417.324 203.253C416.708 203.253 416.187 203.411 415.761 203.729C415.34 204.046 415.02 204.489 414.802 205.057C414.585 205.625 414.476 206.288 414.476 207.045ZM434.924 201.591V203.295H428.965V201.591H434.924ZM430.563 198.977H432.687V209.297C432.687 209.709 432.748 210.019 432.871 210.227C432.994 210.431 433.153 210.571 433.347 210.646C433.546 210.717 433.761 210.753 433.993 210.753C434.164 210.753 434.313 210.741 434.441 210.717C434.569 210.694 434.668 210.675 434.739 210.661L435.123 212.415C435 212.462 434.824 212.509 434.597 212.557C434.37 212.609 434.086 212.637 433.745 212.642C433.186 212.652 432.665 212.552 432.182 212.344C431.699 212.135 431.309 211.813 431.01 211.378C430.712 210.942 430.563 210.395 430.563 209.737V198.977ZM441.651 212.72C440.628 212.72 439.736 212.486 438.973 212.017C438.211 211.548 437.619 210.893 437.198 210.05C436.776 209.207 436.566 208.222 436.566 207.095C436.566 205.964 436.776 204.974 437.198 204.126C437.619 203.279 438.211 202.621 438.973 202.152C439.736 201.683 440.628 201.449 441.651 201.449C442.674 201.449 443.566 201.683 444.328 202.152C445.091 202.621 445.683 203.279 446.104 204.126C446.525 204.974 446.736 205.964 446.736 207.095C446.736 208.222 446.525 209.207 446.104 210.05C445.683 210.893 445.091 211.548 444.328 212.017C443.566 212.486 442.674 212.72 441.651 212.72ZM441.658 210.938C442.321 210.938 442.87 210.762 443.306 210.412C443.741 210.062 444.063 209.595 444.272 209.013C444.485 208.43 444.591 207.789 444.591 207.088C444.591 206.392 444.485 205.753 444.272 205.17C444.063 204.583 443.741 204.112 443.306 203.757C442.87 203.402 442.321 203.224 441.658 203.224C440.99 203.224 440.436 203.402 439.996 203.757C439.56 204.112 439.236 204.583 439.023 205.17C438.815 205.753 438.711 206.392 438.711 207.088C438.711 207.789 438.815 208.43 439.023 209.013C439.236 209.595 439.56 210.062 439.996 210.412C440.436 210.762 440.99 210.938 441.658 210.938Z" fill="#404040"/>
<path d="M394.753 257.898C392.746 257.898 390.956 257.528 389.384 256.79C387.821 256.051 386.581 255.033 385.662 253.736C384.744 252.438 384.266 250.952 384.228 249.276H390.194C390.26 250.402 390.733 251.316 391.614 252.017C392.495 252.718 393.541 253.068 394.753 253.068C395.719 253.068 396.571 252.855 397.31 252.429C398.058 251.993 398.641 251.392 399.057 250.625C399.483 249.848 399.696 248.958 399.696 247.955C399.696 246.932 399.479 246.032 399.043 245.256C398.617 244.479 398.025 243.873 397.267 243.438C396.51 243.002 395.643 242.779 394.668 242.77C393.816 242.77 392.987 242.945 392.182 243.295C391.387 243.646 390.767 244.124 390.321 244.73L384.853 243.75L386.231 228.409H404.015V233.438H391.302L390.549 240.724H390.719C391.231 240.005 392.002 239.408 393.035 238.935C394.067 238.461 395.222 238.224 396.5 238.224C398.252 238.224 399.815 238.636 401.188 239.46C402.561 240.284 403.645 241.416 404.441 242.855C405.236 244.285 405.629 245.933 405.62 247.798C405.629 249.759 405.175 251.501 404.256 253.026C403.347 254.541 402.073 255.734 400.435 256.605C398.806 257.467 396.912 257.898 394.753 257.898ZM421.116 258.139C418.673 258.13 416.57 257.528 414.809 256.335C413.057 255.142 411.708 253.414 410.761 251.151C409.823 248.887 409.359 246.165 409.369 242.983C409.369 239.811 409.837 237.107 410.775 234.872C411.722 232.637 413.071 230.937 414.823 229.773C416.585 228.598 418.682 228.011 421.116 228.011C423.549 228.011 425.642 228.598 427.394 229.773C429.156 230.947 430.51 232.652 431.457 234.886C432.404 237.112 432.872 239.811 432.863 242.983C432.863 246.174 432.389 248.902 431.442 251.165C430.505 253.428 429.16 255.156 427.408 256.349C425.656 257.543 423.559 258.139 421.116 258.139ZM421.116 253.04C422.782 253.04 424.113 252.202 425.107 250.526C426.102 248.849 426.594 246.335 426.585 242.983C426.585 240.777 426.357 238.939 425.903 237.472C425.458 236.004 424.823 234.901 423.999 234.162C423.185 233.423 422.224 233.054 421.116 233.054C419.459 233.054 418.133 233.883 417.138 235.54C416.144 237.197 415.642 239.678 415.633 242.983C415.633 245.218 415.855 247.083 416.3 248.58C416.755 250.066 417.394 251.184 418.218 251.932C419.042 252.67 420.008 253.04 421.116 253.04ZM448.455 258.139C446.012 258.13 443.909 257.528 442.148 256.335C440.396 255.142 439.047 253.414 438.1 251.151C437.162 248.887 436.698 246.165 436.708 242.983C436.708 239.811 437.176 237.107 438.114 234.872C439.061 232.637 440.41 230.937 442.162 229.773C443.924 228.598 446.021 228.011 448.455 228.011C450.889 228.011 452.981 228.598 454.733 229.773C456.495 230.947 457.849 232.652 458.796 234.886C459.743 237.112 460.211 239.811 460.202 242.983C460.202 246.174 459.729 248.902 458.782 251.165C457.844 253.428 456.499 255.156 454.747 256.349C452.996 257.543 450.898 258.139 448.455 258.139ZM448.455 253.04C450.121 253.04 451.452 252.202 452.446 250.526C453.441 248.849 453.933 246.335 453.924 242.983C453.924 240.777 453.696 238.939 453.242 237.472C452.797 236.004 452.162 234.901 451.338 234.162C450.524 233.423 449.563 233.054 448.455 233.054C446.798 233.054 445.472 233.883 444.478 235.54C443.483 237.197 442.981 239.678 442.972 242.983C442.972 245.218 443.194 247.083 443.639 248.58C444.094 250.066 444.733 251.184 445.557 251.932C446.381 252.67 447.347 253.04 448.455 253.04Z" fill="#404040"/>
<path d="M344.932 288.5V273.955H353.348V275.148H346.26V280.624H352.688V281.817H346.26V288.5H344.932ZM359.727 288.727C358.785 288.727 357.951 288.488 357.227 288.01C356.507 287.532 355.944 286.871 355.537 286.028C355.13 285.181 354.926 284.203 354.926 283.095C354.926 281.978 355.13 280.995 355.537 280.148C355.944 279.295 356.507 278.633 357.227 278.159C357.951 277.681 358.785 277.442 359.727 277.442C360.669 277.442 361.5 277.681 362.22 278.159C362.94 278.637 363.503 279.3 363.91 280.148C364.322 280.995 364.528 281.978 364.528 283.095C364.528 284.203 364.325 285.181 363.917 286.028C363.51 286.871 362.944 287.532 362.22 288.01C361.5 288.488 360.669 288.727 359.727 288.727ZM359.727 287.57C360.485 287.57 361.126 287.366 361.652 286.959C362.177 286.552 362.575 286.009 362.845 285.332C363.12 284.655 363.257 283.91 363.257 283.095C363.257 282.281 363.12 281.533 362.845 280.851C362.575 280.169 362.177 279.622 361.652 279.21C361.126 278.798 360.485 278.592 359.727 278.592C358.974 278.592 358.333 278.798 357.802 279.21C357.277 279.622 356.877 280.169 356.602 280.851C356.332 281.533 356.197 282.281 356.197 283.095C356.197 283.91 356.332 284.655 356.602 285.332C356.877 286.009 357.277 286.552 357.802 286.959C358.328 287.366 358.969 287.57 359.727 287.57ZM367.203 288.5V277.591H368.432V279.267H368.524C368.742 278.718 369.121 278.275 369.661 277.939C370.205 277.598 370.821 277.428 371.507 277.428C371.612 277.428 371.728 277.43 371.855 277.435C371.983 277.439 372.09 277.444 372.175 277.449V278.734C372.118 278.725 372.019 278.711 371.877 278.692C371.735 278.673 371.581 278.663 371.415 278.663C370.847 278.663 370.34 278.784 369.895 279.026C369.455 279.262 369.107 279.591 368.851 280.013C368.595 280.434 368.468 280.915 368.468 281.455V288.5H367.203ZM384.168 288.727C383.15 288.727 382.269 288.491 381.526 288.017C380.782 287.539 380.207 286.878 379.8 286.036C379.397 285.188 379.196 284.213 379.196 283.109C379.196 282.011 379.397 281.036 379.8 280.183C380.207 279.326 380.768 278.656 381.483 278.173C382.203 277.686 383.034 277.442 383.976 277.442C384.568 277.442 385.138 277.551 385.688 277.768C386.237 277.982 386.729 278.311 387.165 278.756C387.605 279.196 387.953 279.752 388.209 280.425C388.465 281.092 388.593 281.883 388.593 282.797V283.422H380.07V282.307H387.3C387.3 281.606 387.158 280.976 386.874 280.418C386.594 279.854 386.204 279.409 385.702 279.082C385.205 278.756 384.629 278.592 383.976 278.592C383.285 278.592 382.676 278.777 382.151 279.146C381.625 279.516 381.213 280.003 380.915 280.609C380.621 281.215 380.472 281.878 380.468 282.598V283.266C380.468 284.132 380.617 284.89 380.915 285.538C381.218 286.182 381.647 286.682 382.2 287.037C382.754 287.392 383.41 287.57 384.168 287.57C384.684 287.57 385.136 287.489 385.524 287.328C385.917 287.167 386.246 286.952 386.512 286.682C386.781 286.407 386.985 286.107 387.122 285.78L388.323 286.17C388.157 286.63 387.885 287.054 387.506 287.442C387.132 287.83 386.663 288.143 386.1 288.379C385.541 288.611 384.897 288.727 384.168 288.727ZM394.325 288.749C393.667 288.749 393.066 288.621 392.521 288.365C391.977 288.105 391.544 287.731 391.222 287.243C390.9 286.75 390.739 286.154 390.739 285.453C390.739 284.913 390.84 284.459 391.044 284.089C391.248 283.72 391.536 283.417 391.911 283.18C392.285 282.944 392.727 282.757 393.239 282.619C393.75 282.482 394.313 282.375 394.929 282.3C395.54 282.224 396.056 282.158 396.477 282.101C396.903 282.044 397.228 281.954 397.45 281.831C397.673 281.708 397.784 281.509 397.784 281.234V280.979C397.784 280.235 397.562 279.651 397.116 279.224C396.676 278.794 396.042 278.578 395.213 278.578C394.427 278.578 393.786 278.751 393.288 279.097C392.796 279.442 392.45 279.849 392.251 280.318L391.051 279.885C391.297 279.288 391.638 278.812 392.074 278.457C392.509 278.098 392.997 277.839 393.537 277.683C394.077 277.522 394.624 277.442 395.178 277.442C395.594 277.442 396.027 277.496 396.477 277.605C396.932 277.714 397.353 277.903 397.741 278.173C398.13 278.438 398.445 278.81 398.686 279.288C398.928 279.762 399.048 280.363 399.048 281.092V288.5H397.784V286.774H397.706C397.554 287.096 397.33 287.409 397.031 287.712C396.733 288.015 396.359 288.263 395.909 288.457C395.459 288.652 394.931 288.749 394.325 288.749ZM394.496 287.591C395.168 287.591 395.75 287.442 396.243 287.143C396.735 286.845 397.114 286.45 397.379 285.957C397.649 285.46 397.784 284.913 397.784 284.317V282.74C397.689 282.83 397.531 282.911 397.308 282.982C397.09 283.053 396.837 283.116 396.548 283.173C396.264 283.225 395.98 283.27 395.696 283.308C395.412 283.346 395.156 283.379 394.929 283.408C394.313 283.483 393.788 283.602 393.352 283.763C392.917 283.924 392.583 284.146 392.351 284.43C392.119 284.71 392.003 285.07 392.003 285.51C392.003 286.173 392.24 286.687 392.713 287.051C393.187 287.411 393.781 287.591 394.496 287.591ZM406.573 288.727C405.597 288.727 404.747 288.483 404.023 287.996C403.303 287.508 402.744 286.84 402.347 285.993C401.949 285.145 401.75 284.179 401.75 283.095C401.75 282.001 401.951 281.028 402.354 280.176C402.761 279.324 403.324 278.656 404.044 278.173C404.764 277.686 405.6 277.442 406.551 277.442C407.28 277.442 407.941 277.584 408.533 277.868C409.125 278.147 409.612 278.543 409.996 279.054C410.384 279.561 410.628 280.152 410.727 280.83H409.449C409.316 280.214 408.997 279.688 408.49 279.253C407.988 278.812 407.349 278.592 406.573 278.592C405.877 278.592 405.261 278.782 404.726 279.161C404.191 279.535 403.772 280.058 403.469 280.73C403.171 281.398 403.021 282.172 403.021 283.053C403.021 283.938 403.168 284.722 403.462 285.403C403.755 286.08 404.167 286.611 404.698 286.994C405.233 287.378 405.858 287.57 406.573 287.57C407.056 287.57 407.496 287.48 407.894 287.3C408.296 287.115 408.632 286.855 408.902 286.518C409.177 286.182 409.361 285.782 409.456 285.318H410.735C410.64 285.976 410.405 286.563 410.031 287.08C409.662 287.591 409.181 287.993 408.59 288.287C408.003 288.58 407.33 288.727 406.573 288.727ZM414.608 281.682V288.5H413.344V273.955H414.608V279.303H414.722C414.978 278.739 415.373 278.289 415.908 277.953C416.448 277.617 417.13 277.449 417.953 277.449C418.692 277.449 419.341 277.6 419.899 277.903C420.458 278.206 420.894 278.654 421.206 279.246C421.519 279.838 421.675 280.567 421.675 281.433V288.5H420.404V281.511C420.404 280.612 420.153 279.904 419.651 279.388C419.154 278.867 418.481 278.607 417.634 278.607C417.051 278.607 416.533 278.73 416.078 278.976C415.624 279.222 415.264 279.577 414.999 280.041C414.738 280.5 414.608 281.047 414.608 281.682ZM430.429 288.5V277.591H431.658V279.267H431.75C431.968 278.718 432.347 278.275 432.887 277.939C433.431 277.598 434.047 277.428 434.733 277.428C434.837 277.428 434.953 277.43 435.081 277.435C435.209 277.439 435.316 277.444 435.401 277.449V278.734C435.344 278.725 435.245 278.711 435.102 278.692C434.96 278.673 434.807 278.663 434.641 278.663C434.073 278.663 433.566 278.784 433.121 279.026C432.681 279.262 432.333 279.591 432.077 280.013C431.821 280.434 431.693 280.915 431.693 281.455V288.5H430.429ZM441.537 288.727C440.519 288.727 439.638 288.491 438.895 288.017C438.151 287.539 437.576 286.878 437.169 286.036C436.766 285.188 436.565 284.213 436.565 283.109C436.565 282.011 436.766 281.036 437.169 280.183C437.576 279.326 438.137 278.656 438.852 278.173C439.572 277.686 440.403 277.442 441.345 277.442C441.937 277.442 442.507 277.551 443.056 277.768C443.606 277.982 444.098 278.311 444.534 278.756C444.974 279.196 445.322 279.752 445.578 280.425C445.833 281.092 445.961 281.883 445.961 282.797V283.422H437.439V282.307H444.669C444.669 281.606 444.527 280.976 444.243 280.418C443.963 279.854 443.573 279.409 443.071 279.082C442.574 278.756 441.998 278.592 441.345 278.592C440.654 278.592 440.045 278.777 439.52 279.146C438.994 279.516 438.582 280.003 438.284 280.609C437.99 281.215 437.841 281.878 437.836 282.598V283.266C437.836 284.132 437.985 284.89 438.284 285.538C438.587 286.182 439.015 286.682 439.569 287.037C440.123 287.392 440.779 287.57 441.537 287.57C442.053 287.57 442.505 287.489 442.893 287.328C443.286 287.167 443.615 286.952 443.88 286.682C444.15 286.407 444.354 286.107 444.491 285.78L445.691 286.17C445.526 286.63 445.253 287.054 444.875 287.442C444.501 287.83 444.032 288.143 443.468 288.379C442.91 288.611 442.266 288.727 441.537 288.727ZM453.136 277.591V278.692H447.774V277.591H453.136ZM449.45 288.5V275.993C449.45 275.406 449.585 274.911 449.855 274.509C450.129 274.106 450.487 273.801 450.927 273.592C451.367 273.384 451.834 273.28 452.326 273.28C452.658 273.28 452.932 273.308 453.15 273.365C453.373 273.417 453.548 273.469 453.676 273.521L453.306 274.629C453.212 274.601 453.096 274.568 452.958 274.53C452.821 274.492 452.648 274.473 452.44 274.473C451.891 274.473 451.467 274.627 451.168 274.935C450.87 275.242 450.721 275.683 450.721 276.256L450.714 288.5H449.45ZM459.52 288.727C458.502 288.727 457.621 288.491 456.878 288.017C456.135 287.539 455.559 286.878 455.152 286.036C454.75 285.188 454.549 284.213 454.549 283.109C454.549 282.011 454.75 281.036 455.152 280.183C455.559 279.326 456.121 278.656 456.836 278.173C457.555 277.686 458.386 277.442 459.328 277.442C459.92 277.442 460.491 277.551 461.04 277.768C461.589 277.982 462.082 278.311 462.517 278.756C462.958 279.196 463.306 279.752 463.561 280.425C463.817 281.092 463.945 281.883 463.945 282.797V283.422H455.422V282.307H462.652C462.652 281.606 462.51 280.976 462.226 280.418C461.947 279.854 461.556 279.409 461.054 279.082C460.557 278.756 459.982 278.592 459.328 278.592C458.637 278.592 458.029 278.777 457.503 279.146C456.978 279.516 456.566 280.003 456.267 280.609C455.974 281.215 455.825 281.878 455.82 282.598V283.266C455.82 284.132 455.969 284.89 456.267 285.538C456.57 286.182 456.999 286.682 457.553 287.037C458.107 287.392 458.763 287.57 459.52 287.57C460.036 287.57 460.488 287.489 460.877 287.328C461.27 287.167 461.599 286.952 461.864 286.682C462.134 286.407 462.337 286.107 462.475 285.78L463.675 286.17C463.509 286.63 463.237 287.054 462.858 287.442C462.484 287.83 462.015 288.143 461.452 288.379C460.893 288.611 460.249 288.727 459.52 288.727ZM466.631 288.5V277.591H467.859V279.267H467.952C468.17 278.718 468.548 278.275 469.088 277.939C469.633 277.598 470.248 277.428 470.935 277.428C471.039 277.428 471.155 277.43 471.283 277.435C471.411 277.439 471.517 277.444 471.602 277.449V278.734C471.546 278.725 471.446 278.711 471.304 278.692C471.162 278.673 471.008 278.663 470.842 278.663C470.274 278.663 469.768 278.784 469.323 279.026C468.882 279.262 468.534 279.591 468.278 280.013C468.023 280.434 467.895 280.915 467.895 281.455V288.5H466.631ZM473.66 288.5V277.591H474.888V279.267H474.981C475.198 278.718 475.577 278.275 476.117 277.939C476.662 277.598 477.277 277.428 477.964 277.428C478.068 277.428 478.184 277.43 478.312 277.435C478.439 277.439 478.546 277.444 478.631 277.449V278.734C478.574 278.725 478.475 278.711 478.333 278.692C478.191 278.673 478.037 278.663 477.871 278.663C477.303 278.663 476.797 278.784 476.351 279.026C475.911 279.262 475.563 279.591 475.307 280.013C475.052 280.434 474.924 280.915 474.924 281.455V288.5H473.66ZM483.735 288.749C483.077 288.749 482.476 288.621 481.931 288.365C481.387 288.105 480.954 287.731 480.632 287.243C480.31 286.75 480.149 286.154 480.149 285.453C480.149 284.913 480.251 284.459 480.454 284.089C480.658 283.72 480.947 283.417 481.321 283.18C481.695 282.944 482.137 282.757 482.649 282.619C483.16 282.482 483.724 282.375 484.339 282.3C484.95 282.224 485.466 282.158 485.887 282.101C486.314 282.044 486.638 281.954 486.86 281.831C487.083 281.708 487.194 281.509 487.194 281.234V280.979C487.194 280.235 486.972 279.651 486.527 279.224C486.086 278.794 485.452 278.578 484.623 278.578C483.837 278.578 483.196 278.751 482.699 279.097C482.206 279.442 481.86 279.849 481.662 280.318L480.461 279.885C480.708 279.288 481.048 278.812 481.484 278.457C481.92 278.098 482.407 277.839 482.947 277.683C483.487 277.522 484.034 277.442 484.588 277.442C485.004 277.442 485.438 277.496 485.887 277.605C486.342 277.714 486.763 277.903 487.152 278.173C487.54 278.438 487.855 278.81 488.096 279.288C488.338 279.762 488.458 280.363 488.458 281.092V288.5H487.194V286.774H487.116C486.965 287.096 486.74 287.409 486.441 287.712C486.143 288.015 485.769 288.263 485.319 288.457C484.869 288.652 484.342 288.749 483.735 288.749ZM483.906 287.591C484.578 287.591 485.161 287.442 485.653 287.143C486.145 286.845 486.524 286.45 486.789 285.957C487.059 285.46 487.194 284.913 487.194 284.317V282.74C487.1 282.83 486.941 282.911 486.718 282.982C486.501 283.053 486.247 283.116 485.958 283.173C485.674 283.225 485.39 283.27 485.106 283.308C484.822 283.346 484.566 283.379 484.339 283.408C483.724 283.483 483.198 283.602 482.762 283.763C482.327 283.924 481.993 284.146 481.761 284.43C481.529 284.71 481.413 285.07 481.413 285.51C481.413 286.173 481.65 286.687 482.123 287.051C482.597 287.411 483.191 287.591 483.906 287.591ZM492.986 273.955V288.5H491.721V273.955H492.986ZM498.006 273.955L497.914 284.331H496.664L496.572 273.955H498.006ZM497.289 288.607C497.01 288.607 496.768 288.507 496.565 288.308C496.366 288.105 496.266 287.863 496.266 287.584C496.266 287.3 496.366 287.058 496.565 286.859C496.768 286.661 497.01 286.561 497.289 286.561C497.568 286.561 497.807 286.661 498.006 286.859C498.21 287.058 498.312 287.3 498.312 287.584C498.312 287.768 498.264 287.939 498.17 288.095C498.08 288.251 497.957 288.377 497.8 288.472C497.649 288.562 497.478 288.607 497.289 288.607Z" fill="#404040"/>
</svg>
