<svg width="464" height="478" viewBox="0 0 464 478" fill="none" xmlns="http://www.w3.org/2000/svg">
<path d="M129.106 123.786H77.7805C77.4818 123.786 77.2129 123.546 77.2129 123.217C77.2129 122.888 77.4519 122.648 77.7805 122.648H129.106C129.404 122.648 129.673 122.888 129.673 123.217C129.673 123.546 129.404 123.786 129.106 123.786Z" fill="#EBF0FA"/>
<path d="M161.818 73.7466H142.907C142.609 73.7466 142.34 73.5072 142.34 73.178C142.34 72.8488 142.579 72.6094 142.907 72.6094H161.818C162.117 72.6094 162.386 72.8488 162.386 73.178C162.386 73.5072 162.117 73.7466 161.818 73.7466Z" fill="#EBF0FA"/>
<path d="M123.818 73.7466H117.604C117.305 73.7466 117.036 73.5072 117.036 73.178C117.036 72.8488 117.275 72.6094 117.604 72.6094H123.818C124.116 72.6094 124.385 72.8488 124.385 73.178C124.385 73.5072 124.116 73.7466 123.818 73.7466Z" fill="#EBF0FA"/>
<rect x="50.6193" y="180.051" width="129.432" height="46.1341" rx="5.76676" fill="white" stroke="black" stroke-width="1.2815" stroke-dasharray="2.56 2.56"/>
<path d="M361.384 218.031C361.384 213.528 365.293 206.322 373.939 206.322C382.584 206.322 387.245 210.257 388.097 213.694C389.175 212.983 390.478 212.556 391.907 212.556C395.59 212.556 398.547 214.808 398.547 219.335C398.547 223.838 395.966 225.45 392.834 225.45C392.834 225.45 367.949 225.663 367.173 225.45C364.266 225.308 361.384 222.558 361.384 218.031Z" fill="#EBF0FA"/>
<path d="M209.844 168.395C208.781 168.395 207.717 168.301 206.654 168.088C202.259 167.236 198.455 164.726 195.95 161.01C193.445 157.294 192.524 152.82 193.374 148.441C194.225 144.038 196.73 140.227 200.439 137.718C204.149 135.209 208.615 134.285 212.987 135.138C222.06 136.889 228.015 145.695 226.266 154.785C225.415 159.187 222.911 162.998 219.201 165.508C216.389 167.401 213.152 168.395 209.844 168.395ZM209.773 136.013C206.701 136.013 203.677 136.937 201.077 138.712C197.628 141.055 195.312 144.582 194.509 148.677C192.878 157.128 198.431 165.318 206.867 166.951C210.954 167.733 215.09 166.88 218.539 164.561C221.989 162.217 224.305 158.69 225.108 154.595C226.739 146.145 221.186 137.954 212.75 136.321C211.758 136.108 210.765 136.013 209.773 136.013ZM209.797 160.537C208.733 160.537 207.859 159.661 207.859 158.596V153.554H202.826C201.763 153.554 200.888 152.678 200.888 151.613C200.888 150.547 201.763 149.672 202.826 149.672H207.859V144.63C207.859 143.564 208.733 142.689 209.797 142.689C210.86 142.689 211.734 143.564 211.734 144.63V149.672H216.767C217.831 149.672 218.705 150.547 218.705 151.613C218.705 152.678 217.831 153.554 216.767 153.554H211.734V158.596C211.734 159.661 210.86 160.537 209.797 160.537ZM202.826 150.855C202.401 150.855 202.07 151.187 202.07 151.613C202.07 152.039 202.401 152.37 202.826 152.37H208.45C208.781 152.37 209.04 152.63 209.04 152.962V158.596C209.04 159.022 209.371 159.353 209.797 159.353C210.222 159.353 210.553 159.022 210.553 158.596V152.962C210.553 152.63 210.813 152.37 211.143 152.37H216.767C217.193 152.37 217.523 152.039 217.523 151.613C217.523 151.187 217.193 150.855 216.767 150.855H211.143C210.813 150.855 210.553 150.595 210.553 150.263V144.63C210.553 144.204 210.222 143.872 209.797 143.872C209.371 143.872 209.04 144.204 209.04 144.63V150.263C209.04 150.595 208.781 150.855 208.45 150.855H202.826Z" fill="white"/>
<path d="M290.901 245.575C290.901 236.8 297.596 230.552 305.857 230.552C308.326 230.552 310.677 231.172 312.742 232.245C315.425 228.215 320.006 225.544 325.182 225.544C332.256 225.544 338.191 230.481 339.734 237.134C341.705 235.751 344.102 234.94 346.666 234.94C353.385 234.94 358.821 239.327 358.821 248.079C358.821 256.854 354.12 259.954 348.375 259.954C348.375 259.954 302.866 260.383 301.489 259.954C296.124 259.692 290.901 254.327 290.901 245.575Z" fill="#EBF0FA"/>
<path d="M341.244 440.565C336.518 440.565 333.896 439.476 333.021 438.6C332.856 438.435 332.383 437.961 332.667 434.529C332.998 430.671 334.274 424.232 336.849 417.723C338.929 412.444 342.615 405.319 348.357 401.248C354.878 396.632 358.99 394.88 362.274 393.483C365.606 392.063 368.229 390.927 371.986 387.542C376.121 383.826 386.541 375.233 393.795 375.872C395.78 376.062 397.387 376.914 398.592 378.452C403.129 384.299 400.223 388.655 397.411 392.844C396.773 393.791 396.135 394.762 395.568 395.756C394.93 396.868 394.268 398.123 393.559 399.472C390.865 404.609 387.51 411 383.162 413.485C381.461 414.456 379.783 415.119 378.129 415.758C374.656 417.131 371.348 418.409 368.796 422.504C367.992 423.806 367.284 425.179 366.598 426.528C364.023 431.641 361.353 436.92 352.303 439.074C347.789 440.163 344.127 440.565 341.244 440.565ZM348.617 401.603L348.876 401.958C339.567 408.538 335.03 424.066 333.825 432.209C333.258 436.02 333.47 437.748 333.636 437.985C335.148 439.5 341.315 440.826 352.114 438.222C360.762 436.139 363.219 431.286 365.819 426.126C366.504 424.753 367.213 423.356 368.04 422.031C370.733 417.699 374.16 416.373 377.775 414.953C379.382 414.314 381.036 413.675 382.69 412.728C386.825 410.361 390.086 404.112 392.732 399.07C393.441 397.721 394.103 396.442 394.741 395.33C395.308 394.312 395.969 393.318 396.631 392.371C399.396 388.252 401.995 384.346 397.86 378.997C396.82 377.671 395.426 376.914 393.677 376.748C386.565 376.109 375.696 385.341 372.553 388.205C368.678 391.684 366.008 392.844 362.605 394.288C359.344 395.685 355.304 397.413 348.853 401.981L348.617 401.603Z" fill="#36383D"/>
<path d="M325.768 444.375C325.532 444.399 325.272 444.304 325.106 444.091C324.846 443.76 324.894 443.286 325.201 443.026C325.508 442.766 355.753 417.793 362.204 409.532C368.773 401.152 391.457 383.422 392.402 382.665C392.733 382.404 393.205 382.476 393.465 382.807C393.725 383.138 393.654 383.612 393.324 383.872C393.087 384.061 369.813 402.241 363.385 410.478C356.84 418.858 327.398 443.168 326.146 444.21C326.051 444.304 325.91 444.375 325.768 444.375Z" fill="#36383D"/>
<path d="M380.729 393.956C380.327 393.98 379.949 393.696 379.902 393.294C379.854 392.868 380.138 392.489 380.563 392.441L392.78 390.927C393.181 390.879 393.583 391.163 393.63 391.589C393.677 392.015 393.394 392.394 392.969 392.441L380.752 393.956H380.729Z" fill="#36383D"/>
<path d="M389.116 399.33H389.092L373.757 399.946C373.331 399.969 372.977 399.638 372.953 399.212C372.93 398.786 373.261 398.407 373.686 398.407L389.021 397.792C389.447 397.768 389.801 398.099 389.825 398.526C389.825 398.952 389.517 399.307 389.116 399.33Z" fill="#36383D"/>
<path d="M376.05 397.933C375.979 397.933 375.884 397.933 375.79 397.909C375.388 397.814 375.128 397.388 375.246 396.986L378.389 384.606C378.484 384.203 378.909 383.943 379.311 384.061C379.712 384.156 379.972 384.582 379.854 384.985L376.711 397.365C376.664 397.696 376.381 397.909 376.05 397.933Z" fill="#36383D"/>
<path d="M356.841 416.775C356.77 416.798 356.676 416.798 356.581 416.775C356.156 416.704 355.873 416.325 355.943 415.899L357.857 403.282C357.928 402.856 358.306 402.572 358.732 402.643C359.157 402.714 359.441 403.093 359.37 403.519L357.456 416.136C357.408 416.467 357.149 416.727 356.841 416.775Z" fill="#36383D"/>
<path d="M383.376 410.028C383.352 410.028 383.329 410.028 383.305 410.028L363.528 409.886C363.102 409.886 362.771 409.531 362.771 409.105C362.771 408.679 363.102 408.348 363.551 408.348L383.329 408.49C383.754 408.49 384.085 408.845 384.085 409.271C384.085 409.673 383.778 410.005 383.376 410.028Z" fill="#36383D"/>
<path d="M353.531 420.278C353.106 420.302 352.752 419.994 352.704 419.568C352.681 419.142 352.988 418.787 353.413 418.74L366.858 417.651C367.284 417.627 367.638 417.935 367.685 418.361C367.709 418.787 367.402 419.142 366.976 419.189L353.531 420.278Z" fill="#36383D"/>
<path d="M324.377 407.875C323.691 407.875 323.006 407.827 322.368 407.709C318.777 407.093 316.036 405.152 314.429 402.099C312.066 397.601 312.397 391.116 315.327 384.748C320.053 374.475 322.605 369.267 327.189 362.687C328.465 360.84 329.977 358.355 331.56 355.727C335.553 349.099 340.539 340.838 345.265 337.714C351.739 333.405 357.93 329.997 363.129 327.819C372.391 323.961 378.653 323.961 381.701 327.795C383.733 330.328 384.04 333.334 382.694 336.932C381.536 340.033 379.291 343.229 377.117 346.306C374.494 350.023 372.037 353.502 371.541 356.627C371.21 358.71 371.092 360.864 370.973 362.947C370.595 369.456 370.265 375.587 363.719 379.304C356.371 383.47 341.059 392.11 338.601 398.856C337.444 402.004 334.915 404.632 331.465 406.241C329.173 407.307 326.669 407.875 324.377 407.875ZM374.754 325.807C365.964 325.807 352.306 334.092 345.737 338.447C341.177 341.477 336.239 349.644 332.293 356.201C330.709 358.828 329.197 361.337 327.897 363.207C323.361 369.741 320.832 374.901 316.13 385.15C313.318 391.281 312.987 397.483 315.209 401.744C316.674 404.537 319.226 406.336 322.534 406.88C327.212 407.685 335.341 405.2 337.751 398.596C340.326 391.565 355.26 383.115 363.27 378.57C369.39 375.114 369.745 369.196 370.099 362.923C370.217 360.817 370.336 358.639 370.69 356.508C371.21 353.194 373.738 349.62 376.408 345.833C380.685 339.773 385.104 333.5 381.016 328.364C379.575 326.541 377.377 325.807 374.754 325.807Z" fill="#36383D"/>
<path d="M376.335 330.328C376.099 330.044 375.674 330.044 375.39 330.281C373.996 331.535 340.915 361.361 332.29 376.368C325.816 387.636 316.979 402.241 312.985 408.845C313.411 409.011 313.812 409.2 314.214 409.39C318.255 402.738 327.021 388.228 333.448 377.031C341.978 362.189 375.934 331.559 376.288 331.251C376.571 331.015 376.595 330.612 376.335 330.328Z" fill="#36383D"/>
<path d="M355.469 351.041C355.493 351.041 355.516 351.041 355.516 351.017L373.191 345.1C373.546 344.981 373.735 344.602 373.616 344.247C373.498 343.892 373.12 343.703 372.766 343.821L356.344 349.337L360.975 334.708C361.093 334.353 360.904 333.974 360.55 333.879C360.195 333.761 359.817 333.95 359.723 334.306L354.689 350.189C354.619 350.426 354.689 350.686 354.855 350.875C355.02 351.041 355.233 351.088 355.469 351.041Z" fill="#36383D"/>
<path d="M345.898 361.054C346.158 360.983 346.347 360.793 346.395 360.533L349.986 340.01C350.057 339.655 349.797 339.3 349.443 339.229C349.088 339.158 348.734 339.418 348.663 339.773L345.071 360.296C345 360.651 345.26 361.006 345.615 361.077C345.709 361.077 345.804 361.077 345.898 361.054Z" fill="#36383D"/>
<path d="M363.953 363.752C364.307 363.657 364.52 363.302 364.449 362.947C364.354 362.592 364 362.355 363.646 362.45L338.126 368.415C337.772 368.509 337.559 368.865 337.63 369.22C337.724 369.575 338.079 369.811 338.433 369.717L363.953 363.752Z" fill="#36383D"/>
<path d="M331.651 379.754L354.808 374.191C355.162 374.096 355.375 373.741 355.304 373.386C355.209 373.031 354.855 372.818 354.5 372.889L331.344 378.452C330.989 378.546 330.777 378.902 330.848 379.257C330.942 379.612 331.297 379.825 331.651 379.754Z" fill="#36383D"/>
<path d="M130.519 469.468C129.385 469.468 128.227 469.326 127.093 469.065C124.044 468.308 121.563 466.604 120.098 464.26C117.026 459.266 103.345 454.792 96.7763 452.638C90.869 450.72 89.593 445.797 88.2461 440.613C87.8208 438.956 87.3718 437.252 86.7575 435.618C85.8596 433.227 83.3076 430.813 80.6139 428.257C75.9826 423.877 71.1858 419.333 73.9268 414.03C77.8257 406.385 95.0277 412.018 104.928 416.042C109.252 417.794 114.38 423.404 118.893 428.328C120.594 430.174 122.201 431.926 123.524 433.204C128.274 437.772 131.157 441.536 136.639 449.04C140.041 453.703 141.365 458.887 140.183 462.911C139.38 465.657 137.466 467.669 134.654 468.758C133.449 469.231 132.007 469.468 130.519 469.468ZM82.3388 411.119C78.7944 411.119 75.9353 412.018 74.7066 414.433C72.2964 419.167 76.8332 423.475 81.2283 427.641C83.9929 430.269 86.6157 432.73 87.5845 435.334C88.1989 436.991 88.6478 438.743 89.0968 440.4C90.3964 445.347 91.6015 450.034 97.0598 451.809C104.243 454.153 117.617 458.532 120.854 463.787C123.855 468.663 130.731 469.35 134.347 467.953C136.899 466.959 138.624 465.136 139.356 462.674C140.467 458.911 139.191 454.011 135.953 449.561C130.519 442.104 127.66 438.364 122.957 433.843C121.611 432.541 120.004 430.789 118.302 428.919C114.073 424.303 108.804 418.528 104.645 416.847C99.4464 414.74 89.4985 411.119 82.3388 411.119Z" fill="#36383D"/>
<path d="M78.7239 415.213C78.8657 414.953 79.2201 414.858 79.48 415.024C80.8033 415.805 112.206 434.434 121.587 445.11C128.605 453.111 138.08 463.431 142.357 468.094C142.05 468.284 141.743 468.497 141.459 468.733C137.135 464.047 127.731 453.797 120.76 445.844C111.498 435.31 79.2437 416.184 78.9129 415.994C78.653 415.805 78.5585 415.474 78.7239 415.213Z" fill="#36383D"/>
<path d="M98.8555 428.493C98.8319 428.493 98.8319 428.493 98.8083 428.493L83.6383 426.599C83.3312 426.552 83.1185 426.291 83.1658 425.983C83.213 425.676 83.4729 425.463 83.7801 425.51L97.8867 427.262L91.7904 416.231C91.6486 415.971 91.7431 415.639 92.0031 415.497C92.263 415.355 92.5938 415.45 92.7356 415.71L99.3517 427.664C99.4463 427.853 99.4463 428.066 99.3281 428.232C99.21 428.398 99.0446 428.493 98.8555 428.493Z" fill="#36383D"/>
<path d="M108.166 434.978C107.953 434.978 107.764 434.836 107.669 434.623L101.455 418.716C101.337 418.432 101.479 418.124 101.762 418.006C102.046 417.887 102.353 418.029 102.471 418.313L108.685 434.22C108.804 434.504 108.662 434.812 108.378 434.931C108.331 434.978 108.236 434.978 108.166 434.978Z" fill="#36383D"/>
<path d="M94.1074 440.091C93.8002 440.091 93.5639 439.831 93.5876 439.523C93.5876 439.216 93.8475 438.979 94.1547 439.003L115.634 439.665C115.941 439.665 116.177 439.926 116.153 440.233C116.153 440.541 115.894 440.778 115.586 440.754L94.1074 440.091Z" fill="#36383D"/>
<path d="M122.629 447.69L103.111 446.956C102.804 446.956 102.568 446.696 102.591 446.388C102.591 446.08 102.851 445.844 103.159 445.867L122.676 446.601C122.983 446.601 123.22 446.862 123.196 447.169C123.196 447.477 122.936 447.714 122.629 447.69Z" fill="#36383D"/>
<path d="M122.298 422.481C122.298 422.481 119.438 414.48 117.099 412.728C114.76 410.976 111.286 409.343 108.947 412.468C106.608 415.592 109.491 418.409 111.664 420.019C113.791 421.628 122.298 422.481 122.298 422.481Z" fill="#A0A7BF"/>
<path d="M126.906 428.232C126.906 428.232 120.621 424.492 117.998 424.445C115.375 424.398 111.996 424.966 111.949 427.972C111.901 431.002 115.469 431.452 117.88 431.499C120.313 431.57 126.906 428.232 126.906 428.232Z" fill="#454852"/>
<path d="M126.077 427.57L125.794 426.813C125.676 426.529 123.195 419.735 123.502 417.273C124.045 413.036 125.605 411.048 128.133 411.379C129.645 411.569 130.685 412.492 131.158 414.054C131.489 415.167 131.559 416.587 131.347 418.268C131.016 420.966 126.715 426.694 126.55 426.931L126.077 427.57ZM127.661 412.231C125.912 412.231 124.802 413.959 124.353 417.392C124.116 419.191 125.676 423.901 126.314 425.748C127.448 424.162 130.213 420.114 130.473 418.173C130.662 416.634 130.614 415.285 130.307 414.314C129.929 413.084 129.173 412.397 127.991 412.255C127.897 412.231 127.779 412.231 127.661 412.231Z" fill="#36383D"/>
<path d="M131.511 437.299C131.558 437.299 131.605 437.275 131.676 437.252C131.913 437.133 132.007 436.849 131.889 436.636C125.06 422.67 118.397 417.77 112.702 414.243C112.489 414.101 112.206 414.172 112.064 414.385C111.922 414.598 111.993 414.882 112.206 415.024C117.782 418.48 124.304 423.309 131.038 437.039C131.133 437.204 131.322 437.323 131.511 437.299Z" fill="#1E2124"/>
<path d="M115.491 428.044C115.539 428.28 115.751 428.422 115.987 428.399C121.918 427.902 126.172 428.612 126.219 428.612C126.479 428.659 126.715 428.493 126.762 428.233C126.81 427.973 126.644 427.736 126.384 427.689C126.195 427.665 121.966 426.955 115.917 427.476C115.657 427.499 115.468 427.712 115.491 427.973C115.491 427.996 115.491 428.02 115.491 428.044Z" fill="#1E2124"/>
<path d="M313.198 173.035C311.686 173.035 310.15 172.892 308.59 172.585C302.21 171.354 296.705 167.709 293.042 162.335C289.403 156.938 288.08 150.452 289.285 144.061C291.814 130.876 304.597 122.213 317.758 124.746C330.92 127.278 339.568 140.084 337.04 153.269C334.819 164.915 324.611 173.035 313.198 173.035ZM313.174 125.503C302.305 125.503 292.593 133.22 290.467 144.298C289.309 150.381 290.561 156.559 294.035 161.672C297.508 166.809 302.754 170.265 308.827 171.425C310.292 171.709 311.757 171.851 313.198 171.851C324.067 171.851 333.779 164.134 335.906 153.056C338.316 140.51 330.093 128.344 317.569 125.929C316.081 125.645 314.616 125.503 313.174 125.503ZM313.174 161.507C311.757 161.507 310.599 160.347 310.599 158.927V151.233H302.919C301.502 151.233 300.344 150.074 300.344 148.653C300.344 147.233 301.502 146.073 302.919 146.073H310.599V138.38C310.599 136.96 311.757 135.8 313.174 135.8C314.592 135.8 315.75 136.96 315.75 138.38V146.073H323.429C324.847 146.073 326.005 147.233 326.005 148.653C326.005 150.074 324.847 151.233 323.429 151.233H315.75V158.927C315.75 160.347 314.592 161.507 313.174 161.507ZM302.943 147.304C302.187 147.304 301.549 147.92 301.549 148.701C301.549 149.458 302.163 150.097 302.943 150.097H311.213C311.544 150.097 311.804 150.358 311.804 150.689V158.974C311.804 159.731 312.418 160.371 313.198 160.371C313.978 160.371 314.592 159.755 314.592 158.974V150.689C314.592 150.358 314.852 150.097 315.183 150.097H323.453C324.209 150.097 324.847 149.482 324.847 148.701C324.847 147.943 324.233 147.304 323.453 147.304H315.183C314.852 147.304 314.592 147.044 314.592 146.712V138.427C314.592 137.67 313.978 137.031 313.198 137.031C312.418 137.031 311.804 137.646 311.804 138.427V146.712C311.804 147.044 311.544 147.304 311.213 147.304H302.943Z" fill="white"/>
<path d="M208.885 478C324.249 478 417.77 473.41 417.77 467.748C417.77 462.086 324.249 457.496 208.885 457.496C93.5209 457.496 0 462.086 0 467.748C0 473.41 93.5209 478 208.885 478Z" fill="#EBF0FA"/>
<path d="M330.99 325.572L331.132 324.885C331.227 324.506 333.259 315.535 335.645 313.215C337.157 311.748 338.646 310.801 340.04 310.398C342.001 309.83 343.726 310.304 345.191 311.819C346.869 313.57 347.909 316.6 343.23 321.121C341.009 323.252 332.03 325.335 331.628 325.406L330.99 325.572ZM341.623 311.038C341.198 311.038 340.773 311.109 340.324 311.227C339.071 311.606 337.677 312.505 336.283 313.854C334.44 315.653 332.692 322.234 332.172 324.388C334.346 323.867 340.962 322.139 342.663 320.482C346.042 317.216 346.68 314.588 344.601 312.41C343.703 311.487 342.71 311.038 341.623 311.038Z" fill="#36383D"/>
<path d="M328.13 330.661C328.13 330.661 335.219 326.731 338.125 326.779C341.031 326.826 344.765 327.536 344.718 330.898C344.67 334.259 340.701 334.638 338.007 334.614C335.337 334.567 328.13 330.661 328.13 330.661Z" fill="#A0A7BF"/>
<path d="M322.649 341.739C322.649 341.739 329.053 336.744 331.912 336.342C334.795 335.939 338.575 336.058 339.048 339.395C339.521 342.709 335.669 343.727 332.999 344.106C330.376 344.461 322.649 341.739 322.649 341.739Z" fill="#454852"/>
<path d="M328.414 330.329C328.414 330.329 322.388 324.909 321.467 322.139C320.545 319.37 320.026 315.606 323.192 314.565C326.382 313.499 328.036 317.145 328.887 319.701C329.737 322.234 328.414 330.329 328.414 330.329Z" fill="#454852"/>
<path d="M324.043 342.615L323.381 342.165C323.098 341.975 316.6 337.454 315.3 334.779C313.315 330.661 313.646 327.702 316.245 326.447C318.774 325.216 321.089 326.755 323.145 330.992C324.35 333.478 324.09 341.478 324.09 341.81L324.043 342.615ZM317.852 326.944C317.45 326.944 317.049 327.039 316.623 327.252C313.953 328.53 314.851 331.868 316.08 334.401C317.049 336.413 321.491 339.75 323.192 340.981C323.216 338.851 323.216 333.241 322.318 331.371C320.924 328.412 319.412 326.944 317.852 326.944Z" fill="#36383D"/>
<path d="M323.43 342.544C323.382 342.544 323.312 342.544 323.264 342.52C323.004 342.426 322.863 342.141 322.957 341.857C328.581 325.572 335.221 319.228 341.01 314.588C341.222 314.399 341.553 314.446 341.742 314.659C341.931 314.872 341.884 315.204 341.671 315.393C336 319.962 329.479 326.164 323.95 342.189C323.831 342.402 323.642 342.544 323.43 342.544Z" fill="#1E2124"/>
<path d="M340.795 330.826C340.725 331.087 340.488 331.252 340.228 331.205C333.683 330.447 328.934 331.087 328.886 331.087C328.603 331.134 328.343 330.921 328.296 330.637C328.248 330.353 328.461 330.092 328.745 330.045C328.934 330.021 333.659 329.382 340.347 330.163C340.63 330.187 340.843 330.447 340.795 330.731C340.795 330.802 340.795 330.826 340.795 330.826Z" fill="#1E2124"/>
<path d="M335.81 339.821C335.786 340.081 335.573 340.271 335.313 340.294C328.721 340.508 324.137 341.833 324.09 341.833C323.806 341.904 323.523 341.762 323.452 341.478C323.381 341.194 323.523 340.91 323.806 340.839C323.995 340.792 328.579 339.466 335.29 339.253C335.573 339.253 335.81 339.466 335.81 339.75C335.81 339.774 335.81 339.797 335.81 339.821Z" fill="#1E2124"/>
<path d="M328.155 330.305C327.895 330.329 327.658 330.163 327.611 329.903C326.099 323.464 323.901 319.227 323.878 319.18C323.736 318.92 323.854 318.612 324.09 318.493C324.35 318.351 324.657 318.47 324.776 318.707C324.87 318.872 327.068 323.109 328.603 329.666C328.674 329.95 328.509 330.211 328.225 330.282C328.178 330.282 328.155 330.305 328.155 330.305Z" fill="#1E2124"/>
<path d="M306.936 465.584H178.417C169.367 465.584 161.971 458.175 161.971 449.109V180.301C161.971 171.235 169.367 163.826 178.417 163.826H306.936C315.986 163.826 323.382 171.235 323.382 180.301V449.109C323.405 458.152 315.986 465.584 306.936 465.584Z" fill="#5A5E6B"/>
<path d="M304.858 464.259H176.315C167.005 464.259 159.42 456.661 159.42 447.334V178.549C159.42 169.223 167.005 161.625 176.315 161.625H304.834C314.144 161.625 321.729 169.223 321.729 178.549V447.358C321.729 456.684 314.167 464.259 304.858 464.259ZM176.315 162.5C167.477 162.5 160.294 169.696 160.294 178.549V447.358C160.294 456.211 167.477 463.407 176.315 463.407H304.834C313.671 463.407 320.855 456.211 320.855 447.358V178.549C320.855 169.696 313.671 162.5 304.834 162.5H176.315Z" fill="#36383D"/>
<path d="M305.73 460.377H179.645C173.359 460.377 168.208 455.217 168.208 448.92V180.467C168.208 174.17 173.359 169.01 179.645 169.01H305.753C312.039 169.01 317.19 174.17 317.19 180.467V448.92C317.166 455.217 312.015 460.377 305.73 460.377Z" fill="url(#paint0_linear_712_4998)"/>
<path d="M134.894 465.822H177.733C179.269 465.822 180.522 464.568 180.522 463.029V459.052C180.522 457.514 179.269 456.259 177.733 456.259H134.894C133.358 456.259 132.105 457.514 132.105 459.052V463.029C132.105 464.568 133.358 465.822 134.894 465.822Z" fill="#F9BC38"/>
<path d="M174.024 456.259H152.214V465.822H174.024V456.259Z" fill="#FDD25A"/>
<path d="M134.894 456.259H136.548V465.822H134.894C133.358 465.822 132.105 464.568 132.105 463.029V459.052C132.105 457.514 133.358 456.259 134.894 456.259Z" fill="#FDD25A"/>
<path d="M180.309 464.118C179.884 465.112 178.891 465.822 177.734 465.822H134.894C133.736 465.822 132.744 465.112 132.318 464.118H180.309Z" fill="#F1A419"/>
<path d="M133.569 456.354H176.409C177.945 456.354 179.197 455.1 179.197 453.561V449.584C179.197 448.046 177.945 446.791 176.409 446.791H133.569C132.034 446.791 130.781 448.046 130.781 449.584V453.561C130.781 455.1 132.034 456.354 133.569 456.354Z" fill="#F9BC38"/>
<path d="M172.724 446.791H150.914V456.354H172.724V446.791Z" fill="#FDD25A"/>
<path d="M133.569 446.791H135.224V456.354H133.569C132.034 456.354 130.781 455.1 130.781 453.561V449.584C130.781 448.046 132.034 446.791 133.569 446.791Z" fill="#FDD25A"/>
<path d="M178.985 454.649C178.56 455.644 177.567 456.354 176.409 456.354H133.57C132.412 456.354 131.419 455.644 130.994 454.649H178.985Z" fill="#F1A419"/>
<path d="M129.929 446.909H172.769C174.304 446.909 175.557 445.655 175.557 444.116V440.139C175.557 438.601 174.304 437.346 172.769 437.346H129.929C128.393 437.346 127.141 438.601 127.141 440.139V444.116C127.141 445.655 128.393 446.909 129.929 446.909Z" fill="#F9BC38"/>
<path d="M169.061 437.346H147.251V446.909H169.061V437.346Z" fill="#FDD25A"/>
<path d="M129.929 437.346H131.583V446.909H129.929C128.393 446.909 127.141 445.655 127.141 444.116V440.139C127.141 438.601 128.393 437.346 129.929 437.346Z" fill="#FDD25A"/>
<path d="M175.32 445.181C174.894 446.175 173.902 446.885 172.744 446.885H129.928C128.77 446.885 127.778 446.175 127.353 445.181H175.32Z" fill="#F1A419"/>
<path d="M133.993 437.441H176.833C178.369 437.441 179.621 436.186 179.621 434.647V430.671C179.621 429.132 178.369 427.877 176.833 427.877H133.993C132.457 427.877 131.205 429.132 131.205 430.671V434.647C131.229 436.186 132.481 437.441 133.993 437.441Z" fill="#F9BC38"/>
<path d="M173.148 427.877H151.338V437.441H173.148V427.877Z" fill="#FDD25A"/>
<path d="M133.993 427.877H135.647V437.441H133.993C132.457 437.441 131.205 436.186 131.205 434.647V430.671C131.229 429.132 132.481 427.877 133.993 427.877Z" fill="#FDD25A"/>
<path d="M179.409 435.736C178.984 436.731 177.991 437.441 176.833 437.441H133.994C132.836 437.441 131.843 436.731 131.418 435.736H179.409Z" fill="#F1A419"/>
<path d="M132.009 427.972H174.849C176.385 427.972 177.637 426.718 177.637 425.179V421.202C177.637 419.664 176.385 418.409 174.849 418.409H132.009C130.473 418.409 129.221 419.664 129.221 421.202V425.179C129.221 426.718 130.497 427.972 132.009 427.972Z" fill="#F9BC38"/>
<path d="M171.163 418.409H149.354V427.972H171.163V418.409Z" fill="#FDD25A"/>
<path d="M132.009 418.409H133.663V427.972H132.009C130.473 427.972 129.221 426.718 129.221 425.179V421.202C129.221 419.664 130.497 418.409 132.009 418.409Z" fill="#FDD25A"/>
<path d="M177.424 426.268C176.999 427.262 176.007 427.972 174.849 427.972H132.009C130.851 427.972 129.859 427.262 129.434 426.268H177.424Z" fill="#F1A419"/>
<path d="M131.609 418.504H174.448C175.984 418.504 177.237 417.249 177.237 415.711V411.734C177.237 410.195 175.984 408.941 174.448 408.941H131.609C130.073 408.941 128.82 410.195 128.82 411.734V415.711C128.844 417.249 130.096 418.504 131.609 418.504Z" fill="#F9BC38"/>
<path d="M170.763 408.941H148.953V418.504H170.763V408.941Z" fill="#FDD25A"/>
<path d="M131.609 408.941H133.263V418.504H131.609C130.073 418.504 128.82 417.249 128.82 415.711V411.734C128.844 410.195 130.096 408.941 131.609 408.941Z" fill="#FDD25A"/>
<path d="M177.024 416.8C176.599 417.794 175.606 418.504 174.449 418.504H131.609C130.451 418.504 129.459 417.794 129.033 416.8H177.024Z" fill="#F1A419"/>
<path d="M164.449 403.99H171.042V400.937H164.449V403.99Z" fill="#FFD1BD"/>
<path d="M141.627 403.99H148.22V400.937H141.627V403.99Z" fill="#FFD1BD"/>
<path d="M141.865 328.932C140.258 334.755 138.651 355.752 139.006 362.521C139.36 369.291 140.069 401.579 140.069 401.579H150.206C150.206 401.579 151.695 380.843 153.112 363.113C153.75 354.947 154.648 348.698 154.648 343.514C154.648 327.062 155.617 325.997 155.617 325.997C155.617 325.997 145.575 315.605 141.865 328.932Z" fill="#2B2D33"/>
<path d="M162.729 401.578H172.512C172.512 401.578 169.912 377.671 167.928 365.054C165.919 352.437 166.841 332.577 164.761 326.375C160.366 313.309 148.457 315.179 148.599 327.725C148.67 333.524 150.891 359.136 152.616 366.166C154.317 373.197 162.729 401.578 162.729 401.578Z" fill="#454852"/>
<path d="M142.029 294.728C139.194 296.409 133.665 313.736 133.665 313.736C133.287 309.546 131.585 304.741 131.585 304.741C131.585 304.741 127.238 302.019 126.552 305.427C125.867 312.789 127.946 323.512 132.743 323.512C137.54 323.512 141.486 312.505 143.754 307.96C145.905 303.628 144.865 293.047 142.029 294.728Z" fill="url(#paint1_linear_712_4998)"/>
<path d="M154.55 293.97H155.118C156.842 293.97 158.26 292.55 158.26 290.822V285.709C158.26 284.028 156.89 282.631 155.188 282.631H154.172C152.495 282.631 151.101 284.004 151.101 285.709V290.537C151.101 292.407 152.66 293.97 154.55 293.97Z" fill="#FFBFA3"/>
<path d="M144.864 277.211C144.864 282.939 147.581 289.969 152.922 289.756C155.899 289.638 158.876 287.744 160.554 285.046C161.877 282.915 162.184 280.288 162.184 277.708C162.184 271.885 158.073 267.15 153.016 267.15C147.936 267.198 144.51 268.452 144.864 277.211Z" fill="#FFD1BD"/>
<path d="M161.003 275.933C160.766 274.56 160.719 272.429 158.167 271.127C155.615 269.826 147.203 269.423 146.211 270.275C145.195 271.127 144.982 275.246 144.888 277.874C143.659 276.548 143.73 271.98 142.808 270.583C141.887 269.186 141.178 266.488 141.627 264.689C142.501 261.186 145.289 260.617 149.141 260.949C152.992 261.28 153.04 262.156 156.017 263.008C158.994 263.837 159.301 262.416 162.704 264.807C166.107 267.222 167.572 273.826 166.272 276.548C164.972 279.27 162.019 284.076 161.074 284.549C160.152 285.022 161.239 277.329 161.003 275.933Z" fill="#111214"/>
<path d="M160.908 292.313C160.908 292.313 164.5 292.763 168.564 295.224C172.628 297.686 168.848 310.587 167.241 318.635C166.461 322.541 166.059 325.5 163.933 326.802C161.641 328.175 157.34 328.151 154.127 328.151C147.912 328.151 142.029 329.761 140.871 320.363C139.689 310.989 139.335 296.337 142.029 294.538C144.722 292.763 148.456 291.792 148.456 291.792L150.606 291.626L152.756 293.567L154.339 293.733L157.884 292.218L160.908 292.313Z" fill="#717687"/>
<path d="M142.129 328.651H165.782V325.432H142.129V328.651Z" fill="#454852"/>
<path d="M155.356 294.017C155.049 293.52 152.142 293.425 151.835 293.686C151.528 293.97 151.41 297.994 153.277 298.16C155.12 298.373 155.663 294.538 155.356 294.017Z" fill="white"/>
<path d="M166.556 326.139L164.737 327.204C164.737 327.204 163.39 326.636 161.358 327.559C160.082 328.127 157.719 330.352 158.026 331.086C158.333 331.82 160.483 330.21 160.483 330.21C158.499 331.796 155.45 334.282 156.845 335.631C158.239 336.98 161.476 336.27 164.146 334.424C166.816 332.554 167.265 330.684 167.265 330.684L169.77 328.719L166.556 326.139Z" fill="#FFD1BD"/>
<path d="M154.104 297.97L154.293 317.925L150.678 322.92L148.622 317.523L152.403 297.757L154.104 297.97Z" fill="white"/>
<path d="M158.238 289.78C157.954 291.153 155.804 292.289 154.197 293.639L156.513 296.598L161.31 292.171L158.238 289.78Z" fill="url(#paint2_linear_712_4998)"/>
<path d="M165.305 295.224C167.03 293.212 169.558 295.532 171.874 298.728C174.189 301.923 182.696 313.238 179.837 318.493C177.805 322.233 172.016 329.76 170.196 329.831C168.377 329.902 167.077 329.737 166.486 328.127C165.872 326.517 165.258 325.121 166.486 324.245C167.715 323.369 172.748 315.605 172.748 315.605C172.748 315.605 169.227 310.161 166.604 306.705C163.958 303.272 163.58 297.236 165.305 295.224Z" fill="url(#paint3_linear_712_4998)"/>
<path d="M151.102 289.875L148.479 291.46L150.252 295.911L152.875 293.615C152.875 293.591 151.15 291.626 151.102 289.875Z" fill="url(#paint4_linear_712_4998)"/>
<path d="M170.407 328.98L167.572 330.992L164.5 327.039L167.572 324.837L170.407 328.98Z" fill="url(#paint5_linear_712_4998)"/>
<path d="M131.821 305.498H126.528L126.812 301.663L131.774 301.592L131.821 305.498Z" fill="url(#paint6_linear_712_4998)"/>
<path d="M160.506 279.388C159.939 280.714 160.152 282.063 160.979 282.418C161.806 282.773 162.94 281.992 163.507 280.666C164.074 279.341 163.862 277.991 163.035 277.636C162.208 277.281 161.097 278.062 160.506 279.388Z" fill="#FFD1BD"/>
<path d="M135.98 280.146C135.98 280.146 143.589 281.874 141.793 288.431C139.973 294.988 133.995 293.307 133.995 293.307L135.98 280.146Z" fill="#2B2D33"/>
<path d="M120.998 274.583C124.496 277.163 133.215 278.536 135.979 280.146C138.744 281.756 136.405 292.455 134.467 293.212C132.506 293.97 120.62 291.745 116.816 293.875C112.988 296.029 117.501 272.003 120.998 274.583Z" fill="#FFCE3B"/>
<path d="M121.448 283.511C122.571 276.343 120.69 270.093 117.248 269.552C113.806 269.011 110.106 274.383 108.983 281.551C107.86 288.719 109.741 294.968 113.183 295.509C116.625 296.05 120.326 290.678 121.448 283.511Z" fill="#FFE494"/>
<path d="M120.368 283.344C121.392 276.809 119.807 271.132 116.829 270.664C113.851 270.196 110.607 275.114 109.584 281.649C108.56 288.184 110.145 293.861 113.123 294.329C116.101 294.797 119.345 289.879 120.368 283.344Z" fill="#FFB03B"/>
<path d="M115.777 281.566C118.116 281.66 120.668 279.956 120.668 279.956C120.644 281.045 120.55 282.181 120.361 283.341C120.101 285.069 119.676 286.679 119.132 288.099C119.132 288.099 118.518 285.945 115.21 285.164C113.437 284.761 114.406 281.092 115.777 281.566Z" fill="#2B2D33"/>
<path d="M116.391 283.507C116.226 284.572 115.541 285.353 114.879 285.235C114.218 285.14 113.792 284.17 113.958 283.105C114.123 282.039 114.808 281.258 115.47 281.377C116.155 281.495 116.557 282.442 116.391 283.507Z" fill="#FFE494"/>
<path d="M133.475 293.259C133.475 293.259 133.38 295.153 132.577 299.367C131.773 303.58 130.616 308.551 127.426 307.912C124.236 307.273 127.095 306.681 127.52 302.254C127.946 297.852 126.882 293.046 126.882 293.046L133.475 293.259Z" fill="#FFB03B"/>
<path d="M127.593 298.846L128.373 298.965C128.893 299.06 129.413 298.681 129.484 298.16C129.578 297.639 129.2 297.118 128.68 297.047L127.9 296.929C127.381 296.834 126.861 297.213 126.79 297.734C126.695 298.255 127.073 298.752 127.593 298.846Z" fill="#2B2D33"/>
<path d="M126.764 297.284C127.946 297.284 130.639 298.397 131.514 300.432C132.388 302.468 130.474 305.072 128.749 305.924C127 306.753 122.653 305.356 123.527 301.569C124.401 297.758 125.583 297.284 126.764 297.284Z" fill="#FFD1BD"/>
<path d="M171.21 403.141C172.226 403.993 172.392 408.893 171.541 408.893C170.69 408.893 168.658 408.893 168.658 408.893L168.493 408.206C168.493 408.206 160.742 409.058 158.072 409.058C154.646 409.058 153.63 406.857 155.662 406.857C157.694 406.857 164.121 403.141 164.121 403.141H171.21Z" fill="#2B2D33"/>
<path d="M148.551 403.141C149.567 403.993 149.732 408.893 148.882 408.893C148.031 408.893 145.999 408.893 145.999 408.893L145.834 408.206C145.834 408.206 138.083 409.058 135.413 409.058C131.987 409.058 130.971 406.857 133.003 406.857C135.035 406.857 141.462 403.141 141.462 403.141H148.551Z" fill="#2B2D33"/>
<path d="M93.1146 280.242C93.4218 280.242 93.6818 280.029 93.729 279.721C93.7763 279.389 93.54 279.058 93.2092 279.011L82.5997 277.354C82.2689 277.306 81.938 277.543 81.8908 277.874C81.8435 278.206 82.0798 278.537 82.4106 278.585L93.0201 280.242C93.0438 280.242 93.0674 280.242 93.1146 280.242Z" fill="#D1D7ED"/>
<path d="M83.4493 292.005C83.5202 292.005 83.5675 292.005 83.6384 291.982L93.09 288.999C93.4208 288.905 93.6099 288.55 93.4917 288.218C93.3972 287.887 93.0428 287.697 92.712 287.816L83.2603 290.798C82.9295 290.893 82.7405 291.248 82.8586 291.579C82.9295 291.84 83.1894 292.005 83.4493 292.005Z" fill="#D1D7ED"/>
<path d="M95.3589 272.359C95.548 272.359 95.737 272.264 95.8551 272.099C96.0678 271.814 95.9969 271.436 95.7134 271.223L88.0575 265.613C87.774 265.4 87.3959 265.471 87.1832 265.755C86.9706 266.039 87.0414 266.417 87.325 266.63L94.9809 272.241C95.099 272.312 95.2171 272.359 95.3589 272.359Z" fill="#D1D7ED"/>
<path d="M252.044 334.708C252.044 334.708 258.424 330.447 265.536 333.287C272.625 336.128 281.864 339.679 281.864 339.679C281.864 339.679 294.647 335.418 299.61 332.577C304.572 329.737 314.52 328.316 314.52 328.316L298.901 351.774L262.701 346.803L252.044 334.708Z" fill="#111214"/>
<path d="M262.677 363.871H301.665C301.665 363.871 345.899 423.19 333.14 444.21C320.403 465.23 306.911 468.994 296.42 468.236C285.928 467.479 280.683 467.479 276.193 468.236C271.704 468.994 257.455 467.479 250.697 468.236C243.963 468.994 219.223 451.714 222.957 429.179C226.714 406.668 262.677 363.871 262.677 363.871Z" fill="#2B2D33"/>
<path d="M262.677 360.32L251.312 334.731C251.312 334.731 261.968 339.702 268.348 340.413C274.728 341.123 272.601 330.447 282.549 328.317C292.497 326.186 287.511 338.992 293.206 340.413C298.877 341.833 309.534 326.186 313.078 328.317C316.623 330.447 300.295 360.32 300.295 360.32H262.677Z" fill="#2B2D33"/>
<path d="M301.027 362.45H261.283C260.503 362.45 259.865 361.811 259.865 361.03C259.865 360.248 260.503 359.609 261.283 359.609H301.027C301.807 359.609 302.445 360.248 302.445 361.03C302.445 361.811 301.807 362.45 301.027 362.45Z" fill="#545763"/>
<path d="M301.735 365.291H261.991C261.211 365.291 260.573 364.652 260.573 363.87C260.573 363.089 261.211 362.45 261.991 362.45H301.735C302.515 362.45 303.153 363.089 303.153 363.87C303.153 364.652 302.515 365.291 301.735 365.291Z" fill="#545763"/>
<path d="M305.427 417.179C306.229 404.274 296.436 393.161 283.554 392.358C270.672 391.555 259.579 401.365 258.777 414.27C257.975 427.174 267.768 438.287 280.65 439.09C293.532 439.894 304.625 430.084 305.427 417.179Z" fill="#545763"/>
<path d="M284.203 426.977V430.267H280.658V427.095C277.705 426.882 274.916 426.03 273.191 424.846L275.105 420.538C276.925 421.746 279.524 422.574 281.911 422.574C284.321 422.574 285.266 421.888 285.266 420.893C285.266 417.603 273.522 420.018 273.522 412.324C273.522 409.082 275.862 406.336 280.635 405.744V402.501H284.179V405.697C286.353 405.862 288.503 406.454 290.157 407.448L288.361 411.78C286.377 410.715 284.439 410.194 282.643 410.194C280.186 410.194 279.311 411.023 279.311 412.064C279.311 415.236 291.031 412.869 291.031 420.491C291.031 423.568 288.81 426.29 284.203 426.977Z" fill="#2B2D33"/>
<path d="M299.138 470.153H345.096C346.751 470.153 348.074 468.804 348.074 467.171V462.886C348.074 461.229 346.727 459.904 345.096 459.904H299.138C297.484 459.904 296.16 461.253 296.16 462.886V467.171C296.137 468.804 297.484 470.153 299.138 470.153Z" fill="#F9BC38"/>
<path d="M341.104 459.88H317.711V470.129H341.104V459.88Z" fill="#FDD25A"/>
<path d="M299.138 459.88H300.91V470.129H299.138C297.484 470.129 296.16 468.78 296.16 467.147V462.862C296.137 461.229 297.484 459.88 299.138 459.88Z" fill="#FDD25A"/>
<path d="M347.837 468.307C347.388 469.372 346.325 470.13 345.096 470.13H299.137C297.909 470.13 296.845 469.372 296.396 468.307H347.837Z" fill="#F1A419"/>
<path d="M297.862 459.999H343.821C345.475 459.999 346.798 458.649 346.798 457.016V452.732C346.798 451.075 345.451 449.749 343.821 449.749H297.862C296.208 449.749 294.885 451.098 294.885 452.732V457.016C294.885 458.649 296.232 459.999 297.862 459.999Z" fill="#F9BC38"/>
<path d="M339.852 449.749H316.459V459.999H339.852V449.749Z" fill="#FDD25A"/>
<path d="M297.862 449.749H299.634V459.999H297.862C296.208 459.999 294.885 458.649 294.885 457.016V452.732C294.885 451.098 296.232 449.749 297.862 449.749Z" fill="#FDD25A"/>
<path d="M346.562 458.176C346.113 459.241 345.05 459.998 343.821 459.998H297.862C296.633 459.998 295.57 459.241 295.121 458.176H346.562Z" fill="#F1A419"/>
<path d="M300.389 449.843H346.348C348.002 449.843 349.325 448.494 349.325 446.861V442.576C349.325 440.919 347.979 439.594 346.348 439.594H300.389C298.735 439.594 297.412 440.943 297.412 442.576V446.861C297.412 448.494 298.759 449.843 300.389 449.843Z" fill="#F9BC38"/>
<path d="M342.379 439.594H318.986V449.843H342.379V439.594Z" fill="#FDD25A"/>
<path d="M300.389 439.594H302.162V449.843H300.389C298.735 449.843 297.412 448.494 297.412 446.861V442.576C297.412 440.943 298.759 439.594 300.389 439.594Z" fill="#FDD25A"/>
<path d="M349.089 448.021C348.64 449.086 347.577 449.843 346.348 449.843H300.389C299.161 449.843 298.097 449.086 297.648 448.021H349.089Z" fill="#F1A419"/>
<path d="M299.138 439.689H345.096C346.751 439.689 348.074 438.339 348.074 436.706V432.422C348.074 430.765 346.727 429.439 345.096 429.439H299.138C297.484 429.439 296.16 430.788 296.16 432.422V436.706C296.137 438.363 297.484 439.689 299.138 439.689Z" fill="#F9BC38"/>
<path d="M341.104 429.439H317.711V439.689H341.104V429.439Z" fill="#FDD25A"/>
<path d="M299.138 429.439H300.91V439.689H299.138C297.484 439.689 296.16 438.339 296.16 436.706V432.422C296.137 430.788 297.484 429.439 299.138 429.439Z" fill="#FDD25A"/>
<path d="M347.837 437.866C347.388 438.931 346.325 439.688 345.096 439.688H299.137C297.909 439.688 296.845 438.931 296.396 437.866H347.837Z" fill="#F1A419"/>
<path d="M297.225 429.557H343.184C344.838 429.557 346.161 428.207 346.161 426.574V422.29C346.161 420.633 344.814 419.307 343.184 419.307H297.225C295.571 419.307 294.248 420.656 294.248 422.29V426.574C294.248 428.207 295.595 429.557 297.225 429.557Z" fill="#F9BC38"/>
<path d="M339.215 419.284H315.822V429.533H339.215V419.284Z" fill="#FDD25A"/>
<path d="M297.225 419.284H298.998V429.533H297.225C295.571 429.533 294.248 428.184 294.248 426.551V422.266C294.248 420.633 295.595 419.284 297.225 419.284Z" fill="#FDD25A"/>
<path d="M345.925 427.71C345.476 428.776 344.413 429.533 343.184 429.533H297.225C295.997 429.533 294.933 428.776 294.484 427.71H345.925Z" fill="#F1A419"/>
<path d="M297.862 419.402H343.821C345.475 419.402 346.798 418.053 346.798 416.42V412.135C346.798 410.478 345.451 409.153 343.821 409.153H297.862C296.208 409.153 294.885 410.502 294.885 412.135V416.42C294.885 418.053 296.232 419.402 297.862 419.402Z" fill="#F9BC38"/>
<path d="M339.852 409.153H316.459V419.402H339.852V409.153Z" fill="#FDD25A"/>
<path d="M297.862 409.153H299.634V419.402H297.862C296.208 419.402 294.885 418.053 294.885 416.42V412.135C294.885 410.478 296.232 409.153 297.862 409.153Z" fill="#FDD25A"/>
<path d="M346.562 417.58C346.113 418.645 345.05 419.403 343.821 419.403H297.862C296.633 419.403 295.57 418.645 295.121 417.58H346.562Z" fill="#F1A419"/>
<path d="M293.444 409.248H339.403C341.057 409.248 342.38 407.899 342.38 406.266V401.981C342.38 400.324 341.034 398.999 339.403 398.999H293.444C291.79 398.999 290.467 400.348 290.467 401.981V406.266C290.443 407.899 291.79 409.248 293.444 409.248Z" fill="#F9BC38"/>
<path d="M335.41 398.999H312.018V409.248H335.41V398.999Z" fill="#FDD25A"/>
<path d="M293.444 398.999H295.217V409.248H293.444C291.79 409.248 290.467 407.899 290.467 406.266V401.981C290.443 400.348 291.79 398.999 293.444 398.999Z" fill="#FDD25A"/>
<path d="M342.144 407.425C341.695 408.49 340.632 409.248 339.403 409.248H293.444C292.215 409.248 291.152 408.49 290.703 407.425H342.144Z" fill="#F1A419"/>
<path d="M299.775 399.092H345.734C347.388 399.092 348.712 397.743 348.712 396.11V391.825C348.712 390.168 347.365 388.843 345.734 388.843H299.775C298.121 388.843 296.798 390.192 296.798 391.825V396.11C296.775 397.767 298.121 399.092 299.775 399.092Z" fill="#F9BC38"/>
<path d="M341.742 388.843H318.349V399.092H341.742V388.843Z" fill="#FDD25A"/>
<path d="M299.775 388.843H301.548V399.092H299.775C298.121 399.092 296.798 397.743 296.798 396.11V391.825C296.775 390.192 298.121 388.843 299.775 388.843Z" fill="#FDD25A"/>
<path d="M348.475 397.27C348.026 398.335 346.963 399.092 345.734 399.092H299.775C298.546 399.092 297.483 398.335 297.034 397.27H348.475Z" fill="#F1A419"/>
<path d="M338.787 469.715H384.746C386.4 469.715 387.723 468.366 387.723 466.732V462.448C387.723 460.791 386.376 459.465 384.746 459.465H338.787C337.133 459.465 335.81 460.815 335.81 462.448V466.732C335.81 468.366 337.156 469.715 338.787 469.715Z" fill="#FFC445"/>
<path d="M380.777 459.441H357.384V469.691H380.777V459.441Z" fill="#FFD86B"/>
<path d="M338.787 459.441H340.559V469.691H338.787C337.133 469.691 335.81 468.342 335.81 466.708V462.424C335.81 460.791 337.156 459.441 338.787 459.441Z" fill="#FFDE82"/>
<path d="M387.487 467.868C387.038 468.933 385.974 469.691 384.746 469.691H338.787C337.558 469.691 336.495 468.933 336.046 467.868H387.487Z" fill="#F1A419"/>
<path d="M339.425 459.56H385.383C387.037 459.56 388.361 458.21 388.361 456.577V452.293C388.361 450.636 387.014 449.31 385.383 449.31H339.425C337.77 449.31 336.447 450.659 336.447 452.293V456.577C336.447 458.21 337.77 459.56 339.425 459.56Z" fill="#FFC445"/>
<path d="M381.414 449.31H358.021V459.56H381.414V449.31Z" fill="#FFD86B"/>
<path d="M339.425 449.31H341.197V459.56H339.425C337.77 459.56 336.447 458.21 336.447 456.577V452.293C336.447 450.659 337.77 449.31 339.425 449.31Z" fill="#FFDE82"/>
<path d="M388.124 457.737C387.675 458.802 386.612 459.559 385.383 459.559H339.425C338.196 459.559 337.133 458.802 336.684 457.737H388.124Z" fill="#F1A419"/>
<path d="M339.425 449.404H385.383C387.037 449.404 388.361 448.055 388.361 446.422V442.137C388.361 440.48 387.014 439.155 385.383 439.155H339.425C337.77 439.155 336.447 440.504 336.447 442.137V446.422C336.447 448.055 337.77 449.404 339.425 449.404Z" fill="#FFC445"/>
<path d="M381.414 439.155H358.021V449.404H381.414V439.155Z" fill="#FFD86B"/>
<path d="M339.425 439.155H341.197V449.404H339.425C337.77 449.404 336.447 448.055 336.447 446.422V442.137C336.447 440.504 337.77 439.155 339.425 439.155Z" fill="#FFDE82"/>
<path d="M388.124 447.582C387.675 448.647 386.612 449.404 385.383 449.404H339.425C338.196 449.404 337.133 448.647 336.684 447.582H388.124Z" fill="#F1A419"/>
<path d="M338.787 439.25H384.746C386.4 439.25 387.723 437.9 387.723 436.267V431.983C387.723 430.326 386.376 429 384.746 429H338.787C337.133 429 335.81 430.349 335.81 431.983V436.267C335.81 437.924 337.156 439.25 338.787 439.25Z" fill="#FFC445"/>
<path d="M380.777 429H357.384V439.25H380.777V429Z" fill="#FFD86B"/>
<path d="M338.787 429H340.559V439.25H338.787C337.133 439.25 335.81 437.9 335.81 436.267V431.983C335.81 430.349 337.156 429 338.787 429Z" fill="#FFDE82"/>
<path d="M387.487 437.427C387.038 438.492 385.974 439.249 384.746 439.249H338.787C337.558 439.249 336.495 438.492 336.046 437.427H387.487Z" fill="#F1A419"/>
<path d="M261.892 312.154C272.504 301.524 272.504 284.288 261.892 273.657C251.28 263.027 234.075 263.027 223.463 273.657C212.852 284.288 212.852 301.524 223.463 312.154C234.075 322.785 251.28 322.785 261.892 312.154Z" fill="#717687"/>
<path d="M251.634 286.128C252.128 281.133 248.486 276.682 243.499 276.187C238.512 275.693 234.07 279.341 233.576 284.337C233.082 289.332 236.724 293.783 241.711 294.278C246.697 294.772 251.14 291.124 251.634 286.128Z" fill="white"/>
<path d="M259.608 309.451C259.537 300.101 251.975 292.55 242.618 292.55C233.285 292.55 225.7 300.101 225.629 309.451H259.608Z" fill="white"/>
<path d="M245.476 240.775C253.751 239.232 259.211 231.261 257.671 222.971C256.13 214.681 248.173 209.212 239.898 210.755C231.623 212.298 226.164 220.269 227.704 228.559C229.244 236.849 237.201 242.318 245.476 240.775Z" fill="#A0A7BF"/>
<path d="M242.689 233.633C241.98 233.633 241.413 233.065 241.413 232.354V219.193C241.413 218.483 241.98 217.915 242.689 217.915C243.398 217.915 243.965 218.483 243.965 219.193V232.354C243.965 233.065 243.374 233.633 242.689 233.633Z" fill="white"/>
<path d="M250.535 225.774C250.535 226.484 249.967 227.053 249.259 227.053H236.121C235.412 227.053 234.845 226.484 234.845 225.774C234.845 225.064 235.412 224.496 236.121 224.496H249.259C249.944 224.52 250.535 225.088 250.535 225.774Z" fill="white"/>
<path d="M201.756 257.943C209.474 254.577 213.006 245.58 209.646 237.849C206.286 230.117 197.305 226.579 189.588 229.945C181.87 233.311 178.337 242.307 181.697 250.039C185.058 257.77 194.038 261.309 201.756 257.943Z" fill="#A0A7BF"/>
<path d="M195.691 262.299C194.557 262.299 193.375 262.18 192.218 261.967C182.293 260.05 175.772 250.392 177.662 240.45C178.584 235.621 181.325 231.455 185.389 228.709C189.453 225.964 194.321 224.946 199.141 225.869C203.961 226.792 208.12 229.538 210.861 233.609C213.602 237.681 214.618 242.557 213.697 247.386C211.995 256.191 204.292 262.299 195.691 262.299ZM195.644 226.437C192.194 226.437 188.815 227.478 185.885 229.443C182.033 232.071 179.411 236.024 178.536 240.616C176.717 250.084 182.931 259.292 192.383 261.115C193.494 261.328 194.604 261.423 195.691 261.423C203.89 261.423 211.239 255.6 212.846 247.22C213.72 242.628 212.775 237.965 210.152 234.106C207.529 230.248 203.583 227.621 198.999 226.745C197.865 226.532 196.754 226.437 195.644 226.437Z" fill="#36383D"/>
<path d="M289.735 262.323C288.577 262.323 287.396 262.204 286.238 261.991C281.417 261.068 277.259 258.322 274.518 254.251C271.777 250.179 270.761 245.303 271.682 240.474C272.604 235.645 275.345 231.479 279.409 228.733C283.473 225.987 288.341 224.97 293.161 225.893C297.981 226.816 302.14 229.562 304.881 233.633C307.622 237.705 308.638 242.581 307.717 247.41C306.795 252.239 304.054 256.405 299.99 259.151C296.918 261.234 293.374 262.323 289.735 262.323ZM289.664 226.437C286.214 226.437 282.835 227.479 279.905 229.443C276.054 232.071 273.431 236.024 272.556 240.616C271.682 245.208 272.627 249.872 275.25 253.73C277.873 257.588 281.819 260.216 286.403 261.092C290.987 261.967 295.642 261.021 299.494 258.393C303.345 255.766 305.968 251.813 306.842 247.22C307.717 242.628 306.772 237.965 304.149 234.107C301.526 230.248 297.58 227.621 292.996 226.745C291.885 226.532 290.775 226.437 289.664 226.437Z" fill="#36383D"/>
<path d="M242.69 244.167C241.556 244.167 240.374 244.048 239.217 243.835C229.292 241.918 222.771 232.26 224.661 222.318C225.583 217.489 228.324 213.323 232.388 210.578C236.452 207.832 241.32 206.814 246.14 207.737C256.064 209.654 262.586 219.312 260.696 229.254C259.018 238.036 251.315 244.167 242.69 244.167ZM242.643 208.281C239.193 208.281 235.814 209.323 232.884 211.288C229.032 213.915 226.41 217.868 225.535 222.46C223.716 231.929 229.93 241.137 239.382 242.96C248.834 244.782 258.025 238.557 259.845 229.088C261.664 219.62 255.45 210.412 245.998 208.589C244.888 208.376 243.753 208.281 242.643 208.281Z" fill="#36383D"/>
<path d="M195.668 251.789C194.959 251.789 194.392 251.221 194.392 250.511V237.35C194.392 236.64 194.959 236.072 195.668 236.072C196.376 236.072 196.944 236.64 196.944 237.35V250.511C196.944 251.221 196.376 251.789 195.668 251.789Z" fill="white"/>
<path d="M203.513 243.931C203.513 244.641 202.946 245.209 202.237 245.209H189.099C188.39 245.209 187.823 244.641 187.823 243.931C187.823 243.221 188.39 242.653 189.099 242.653H202.237C202.946 242.653 203.513 243.245 203.513 243.931Z" fill="white"/>
<path d="M294.663 258.368C302.623 255.625 306.857 246.938 304.12 238.964C301.382 230.989 292.71 226.748 284.75 229.49C276.79 232.232 272.556 240.92 275.293 248.894C278.031 256.868 286.703 261.11 294.663 258.368Z" fill="#A0A7BF"/>
<path d="M289.689 251.788C288.98 251.788 288.413 251.22 288.413 250.51V237.349C288.413 236.639 288.98 236.071 289.689 236.071C290.398 236.071 290.965 236.639 290.965 237.349V250.51C290.965 251.22 290.398 251.788 289.689 251.788Z" fill="white"/>
<path d="M297.534 243.93C297.534 244.64 296.967 245.208 296.259 245.208H283.121C282.412 245.208 281.845 244.64 281.845 243.93C281.845 243.22 282.412 242.652 283.121 242.652H296.259C296.967 242.652 297.534 243.244 297.534 243.93Z" fill="white"/>
<path d="M220.005 274.063C219.887 274.063 219.746 274.016 219.651 273.921L214.618 268.714C214.429 268.524 214.429 268.216 214.618 268.027C214.807 267.838 215.114 267.838 215.303 268.027L220.336 273.235C220.525 273.424 220.525 273.732 220.336 273.921C220.242 274.016 220.124 274.063 220.005 274.063ZM211.617 265.376C211.499 265.376 211.357 265.329 211.263 265.234L206.23 260.026C206.041 259.837 206.041 259.529 206.23 259.34C206.419 259.15 206.726 259.15 206.915 259.34L211.948 264.547C212.137 264.737 212.137 265.045 211.948 265.234C211.853 265.329 211.735 265.376 211.617 265.376Z" fill="#2B2D33"/>
<path d="M265.752 273.447C265.634 273.447 265.516 273.4 265.421 273.305C265.232 273.116 265.232 272.808 265.421 272.619L270.454 267.411C270.643 267.222 270.95 267.222 271.139 267.411C271.328 267.601 271.328 267.908 271.139 268.098L266.106 273.305C266.012 273.4 265.894 273.447 265.752 273.447ZM274.164 264.76C274.046 264.76 273.928 264.713 273.833 264.618C273.644 264.429 273.644 264.121 273.833 263.932L278.866 258.724C279.055 258.535 279.362 258.535 279.551 258.724C279.74 258.913 279.74 259.221 279.551 259.411L274.518 264.618C274.424 264.713 274.282 264.76 274.164 264.76Z" fill="#2B2D33"/>
<path d="M242.689 263.648C242.429 263.648 242.216 263.435 242.216 263.174L242.193 255.907C242.193 255.647 242.405 255.434 242.665 255.41C242.949 255.41 243.138 255.623 243.162 255.884L243.185 263.151C243.162 263.435 242.949 263.648 242.689 263.648ZM242.642 251.552C242.382 251.552 242.169 251.339 242.169 251.079L242.146 243.812C242.146 243.551 242.358 243.338 242.618 243.314C242.878 243.314 243.091 243.527 243.091 243.788L243.114 251.055C243.138 251.339 242.925 251.552 242.642 251.552Z" fill="#2B2D33"/>
<path d="M242.689 323.157C240.799 323.157 238.885 322.968 236.971 322.613C220.62 319.465 209.868 303.581 213.035 287.201C216.177 270.821 232.032 260.05 248.384 263.222C256.3 264.737 263.152 269.282 267.689 275.957C272.202 282.656 273.856 290.704 272.344 298.634C269.556 313.097 256.867 323.157 242.689 323.157ZM242.666 263.625C228.937 263.625 216.65 273.377 213.98 287.367C210.932 303.226 221.328 318.612 237.16 321.642C239.027 321.997 240.87 322.163 242.689 322.163C256.418 322.163 268.705 312.411 271.375 298.421C272.84 290.752 271.257 282.94 266.862 276.478C262.491 269.992 255.851 265.613 248.195 264.145C246.352 263.814 244.509 263.625 242.666 263.625Z" fill="#2B2D33"/>
<path d="M308.637 177.343H299.564C299.233 177.343 298.949 177.059 298.949 176.728C298.949 176.396 299.233 176.112 299.564 176.112H308.637C308.968 176.112 309.252 176.396 309.252 176.728C309.252 177.059 308.968 177.343 308.637 177.343Z" fill="white"/>
<path d="M308.637 181.485H299.564C299.233 181.485 298.949 181.201 298.949 180.87C298.949 180.538 299.233 180.254 299.564 180.254H308.637C308.968 180.254 309.252 180.538 309.252 180.87C309.252 181.201 308.968 181.485 308.637 181.485Z" fill="white"/>
<path d="M308.637 185.391H299.564C299.233 185.391 298.949 185.107 298.949 184.776C298.949 184.444 299.233 184.16 299.564 184.16H308.637C308.968 184.16 309.252 184.444 309.252 184.776C309.252 185.107 308.968 185.391 308.637 185.391Z" fill="white"/>
<path d="M462.524 181.183H440.352C440.002 181.183 439.687 180.903 439.687 180.517C439.687 180.166 439.967 179.85 440.352 179.85H462.524C462.874 179.85 463.19 180.131 463.19 180.517C463.19 180.903 462.909 181.183 462.524 181.183Z" fill="#EBF0FA"/>
<path d="M37.2316 340.105C36.6409 341.147 38.7911 344.91 41.2485 347.633C43.706 350.355 45.5254 350.142 45.5254 350.142L47.1558 353.598L51.669 351.467L49.5896 347.041C49.5896 347.041 49.3534 344.555 47.2504 342.094C45.1474 339.632 41.1777 341.739 41.1777 341.739C41.1777 341.739 37.7987 339.087 37.2316 340.105Z" fill="#FFBFA3"/>
<path d="M27.6156 348.721C20.5505 345.526 7.7907 369.315 9.61014 374.972C12.7056 384.583 27.8282 389.483 27.8282 389.483L30.1675 384.63L16.8643 373.41C16.8643 373.434 34.6807 351.917 27.6156 348.721Z" fill="url(#paint7_linear_712_4998)"/>
<path d="M32.4346 325.973C34.4667 324.364 34.1359 320.624 32.0329 319.795C29.9063 318.967 27.8742 319.132 25.9129 319.511C23.9517 319.89 23.4791 318.919 17.9735 322.612C12.4679 326.305 12.019 332.199 14.5946 336.128C17.1701 340.057 23.1011 343.726 23.1011 343.726C23.1011 343.726 30.4025 327.559 32.4346 325.973Z" fill="#111214"/>
<path d="M24.8023 352.319C24.9913 351.135 21.187 337.714 21.187 337.714C21.187 337.714 17.7372 336.53 18.2334 333.571C18.7296 330.613 22.5339 333.903 22.5339 333.903C22.5339 333.903 24.0934 337.951 24.8023 337.524C25.5112 337.098 24.8023 332.98 25.3221 331.607C25.842 330.234 33.0253 325.097 33.0253 325.097C33.0253 325.097 37.0422 333.69 35.8608 340.791C35.3882 343.632 33.1198 344.413 30.5915 344.342C31.0404 346.519 31.7257 349.952 32.1037 352.343C32.6708 356.083 24.5896 353.502 24.8023 352.319Z" fill="#FFBFA3"/>
<path d="M8.47639 457.064C4.36491 455.123 14.6436 424.421 22.5357 418.882C22.5357 418.882 23.41 396.797 26.9072 389.98C30.4043 383.162 37.8238 390.382 37.8238 390.382C37.8238 390.382 36.9023 419.071 31.1604 427.12C25.4658 435.191 13.7457 459.549 8.47639 457.064Z" fill="#111214"/>
<path d="M43.8236 384.63C43.8236 384.63 46.092 404.041 45.5249 421.368C44.9578 438.695 45.454 460.425 39.2868 460.922C33.0959 461.419 31.5364 398.951 29.268 396.916C26.5034 396.916 23.7388 392.394 23.6206 389.791C23.5025 387.187 24.8493 384.63 24.8493 384.63H43.8236Z" fill="url(#paint8_linear_712_4998)"/>
<path d="M29.0099 347.632C35.7206 348.059 40.3991 354.45 42.4313 360.438C44.4634 366.427 45.2195 387.258 44.5343 392.276C43.849 397.294 26.387 392.82 24.284 392.749C22.181 392.678 23.4098 383.731 22.4173 375.943C21.4249 368.132 20.8105 364.155 20.8105 358.403C20.8105 352.627 22.2992 347.206 29.0099 347.632Z" fill="#717687"/>
<path d="M42.1457 458.271C42.5711 459.975 42.9964 461.703 42.9964 461.703L42.0276 465.135H37.3018C37.3018 465.135 37.4672 460.59 37.6562 458.815C37.8452 457.063 41.744 456.566 42.1457 458.271Z" fill="#FFBFA3"/>
<path d="M58.1189 468.757C56.9139 468.71 37.1599 467.952 37.1599 467.952C37.1599 467.952 35.6003 466.272 37.3489 462.698C40.1844 465.964 42.8781 461.041 42.8781 461.041C42.8781 461.041 53.5585 462.106 57.481 464.686C61.427 467.29 59.324 468.805 58.1189 468.757Z" fill="#111214"/>
<path d="M12.0899 454.98C11.7827 456.708 11.4519 458.46 11.4519 458.46L9.18352 461.206L4.85938 459.265C4.85938 459.265 6.86786 455.194 7.76576 453.655C8.64004 452.116 12.4207 453.252 12.0899 454.98Z" fill="#FFBFA3"/>
<path d="M23.2662 467.692C21.2104 467.692 17.1935 467.692 15.4685 467.692C13.7672 467.692 3.58304 462.626 3.58304 462.626C3.58304 462.626 2.85054 459.644 5.8987 457.087C7.60001 460.378 11.617 457.845 11.617 457.845C11.617 457.845 14.6179 459.904 16.6264 460.922C18.6348 461.94 22.959 463.171 24.4476 464.567C25.9363 465.94 25.3219 467.692 23.2662 467.692Z" fill="#111214"/>
<path d="M29.7393 351.372C24.9189 360.107 44.7202 376.795 50.4621 374.215C56.204 371.635 51.5963 349.573 51.5963 349.573L45.6181 351.23V363.658C45.6181 363.681 34.5833 342.638 29.7393 351.372Z" fill="url(#paint9_linear_712_4998)"/>
<g opacity="0.46" clip-path="url(#clip0_712_4998)">
<path d="M321.657 40.4576C321.657 28.5551 330.874 20.049 342.231 20.049C345.644 20.049 348.851 20.8801 351.685 22.3371C355.378 16.8476 361.667 13.2358 368.804 13.2358C378.548 13.2358 386.699 19.9566 388.83 28.9758C391.54 27.0981 394.829 25.9899 398.377 25.9899C407.614 25.9899 415.093 31.9412 415.093 43.8436C415.093 55.7461 408.628 59.9633 400.715 59.9633C400.715 59.9633 338.125 60.5379 336.221 59.9633C328.846 59.6452 321.657 52.3601 321.657 40.4576Z" fill="#D1D7ED"/>
<path d="M409.702 13.6878C409.702 8.41381 414.047 0 423.677 0C433.307 0 438.51 4.60708 439.451 8.59851C440.651 7.76739 442.109 7.27487 443.681 7.27487C447.767 7.27487 451.088 9.91188 451.088 15.1859C451.088 20.4599 448.222 22.3274 444.716 22.3274C444.716 22.3274 416.995 22.5839 416.146 22.3274C412.888 22.1837 409.702 18.9619 409.702 13.6878Z" fill="#D1D7ED"/>
</g>
<path d="M89.82 185.575V192.22C89.82 193.01 90.025 193.605 90.435 194.005C90.855 194.405 91.435 194.605 92.175 194.605C92.925 194.605 93.505 194.405 93.915 194.005C94.335 193.605 94.545 193.01 94.545 192.22V185.575H96.255V192.19C96.255 193.04 96.07 193.76 95.7 194.35C95.33 194.94 94.835 195.38 94.215 195.67C93.595 195.96 92.91 196.105 92.16 196.105C91.41 196.105 90.725 195.96 90.105 195.67C89.495 195.38 89.01 194.94 88.65 194.35C88.29 193.76 88.11 193.04 88.11 192.19V185.575H89.82ZM100.191 188.95C100.481 188.57 100.876 188.25 101.376 187.99C101.876 187.73 102.441 187.6 103.071 187.6C103.791 187.6 104.446 187.78 105.036 188.14C105.636 188.49 106.106 188.985 106.446 189.625C106.786 190.265 106.956 191 106.956 191.83C106.956 192.66 106.786 193.405 106.446 194.065C106.106 194.715 105.636 195.225 105.036 195.595C104.446 195.955 103.791 196.135 103.071 196.135C102.441 196.135 101.881 196.01 101.391 195.76C100.901 195.5 100.501 195.18 100.191 194.8V199.93H98.4814V187.735H100.191V188.95ZM105.216 191.83C105.216 191.26 105.096 190.77 104.856 190.36C104.626 189.94 104.316 189.625 103.926 189.415C103.546 189.195 103.136 189.085 102.696 189.085C102.266 189.085 101.856 189.195 101.466 189.415C101.086 189.635 100.776 189.955 100.536 190.375C100.306 190.795 100.191 191.29 100.191 191.86C100.191 192.43 100.306 192.93 100.536 193.36C100.776 193.78 101.086 194.1 101.466 194.32C101.856 194.54 102.266 194.65 102.696 194.65C103.136 194.65 103.546 194.54 103.926 194.32C104.316 194.09 104.626 193.76 104.856 193.33C105.096 192.9 105.216 192.4 105.216 191.83ZM114.539 189.13V193.705C114.539 194.015 114.609 194.24 114.749 194.38C114.899 194.51 115.149 194.575 115.499 194.575H116.549V196H115.199C114.429 196 113.839 195.82 113.429 195.46C113.019 195.1 112.814 194.515 112.814 193.705V189.13H111.839V187.735H112.814V185.68H114.539V187.735H116.549V189.13H114.539ZM121.71 196.135C120.93 196.135 120.225 195.96 119.595 195.61C118.965 195.25 118.47 194.75 118.11 194.11C117.75 193.46 117.57 192.71 117.57 191.86C117.57 191.02 117.755 190.275 118.125 189.625C118.495 188.975 119 188.475 119.64 188.125C120.28 187.775 120.995 187.6 121.785 187.6C122.575 187.6 123.29 187.775 123.93 188.125C124.57 188.475 125.075 188.975 125.445 189.625C125.815 190.275 126 191.02 126 191.86C126 192.7 125.81 193.445 125.43 194.095C125.05 194.745 124.53 195.25 123.87 195.61C123.22 195.96 122.5 196.135 121.71 196.135ZM121.71 194.65C122.15 194.65 122.56 194.545 122.94 194.335C123.33 194.125 123.645 193.81 123.885 193.39C124.125 192.97 124.245 192.46 124.245 191.86C124.245 191.26 124.13 190.755 123.9 190.345C123.67 189.925 123.365 189.61 122.985 189.4C122.605 189.19 122.195 189.085 121.755 189.085C121.315 189.085 120.905 189.19 120.525 189.4C120.155 189.61 119.86 189.925 119.64 190.345C119.42 190.755 119.31 191.26 119.31 191.86C119.31 192.75 119.535 193.44 119.985 193.93C120.445 194.41 121.02 194.65 121.71 194.65Z" fill="#282A30"/>
<path d="M98.86 206.84H92.38V210.26C92.66 209.913 93.06 209.633 93.58 209.42C94.1 209.193 94.6533 209.08 95.24 209.08C96.3067 209.08 97.18 209.313 97.86 209.78C98.54 210.247 99.0333 210.847 99.34 211.58C99.6467 212.3 99.8 213.073 99.8 213.9C99.8 215.433 99.36 216.667 98.48 217.6C97.6133 218.533 96.3733 219 94.76 219C93.24 219 92.0267 218.62 91.12 217.86C90.2133 217.1 89.7 216.107 89.58 214.88H92.3C92.42 215.413 92.6867 215.84 93.1 216.16C93.5267 216.48 94.0667 216.64 94.72 216.64C95.5067 216.64 96.1 216.393 96.5 215.9C96.9 215.407 97.1 214.753 97.1 213.94C97.1 213.113 96.8933 212.487 96.48 212.06C96.08 211.62 95.4867 211.4 94.7 211.4C94.14 211.4 93.6733 211.54 93.3 211.82C92.9267 212.1 92.66 212.473 92.5 212.94H89.82V204.38H98.86V206.84ZM101.931 211.52C101.931 209.213 102.344 207.407 103.171 206.1C104.011 204.793 105.398 204.14 107.331 204.14C109.264 204.14 110.644 204.793 111.471 206.1C112.311 207.407 112.731 209.213 112.731 211.52C112.731 213.84 112.311 215.66 111.471 216.98C110.644 218.3 109.264 218.96 107.331 218.96C105.398 218.96 104.011 218.3 103.171 216.98C102.344 215.66 101.931 213.84 101.931 211.52ZM109.971 211.52C109.971 210.533 109.904 209.707 109.771 209.04C109.651 208.36 109.398 207.807 109.011 207.38C108.638 206.953 108.078 206.74 107.331 206.74C106.584 206.74 106.018 206.953 105.631 207.38C105.258 207.807 105.004 208.36 104.871 209.04C104.751 209.707 104.691 210.533 104.691 211.52C104.691 212.533 104.751 213.387 104.871 214.08C104.991 214.76 105.244 215.313 105.631 215.74C106.018 216.153 106.584 216.36 107.331 216.36C108.078 216.36 108.644 216.153 109.031 215.74C109.418 215.313 109.671 214.76 109.791 214.08C109.911 213.387 109.971 212.533 109.971 211.52ZM114.861 211.52C114.861 209.213 115.274 207.407 116.101 206.1C116.941 204.793 118.327 204.14 120.261 204.14C122.194 204.14 123.574 204.793 124.401 206.1C125.241 207.407 125.661 209.213 125.661 211.52C125.661 213.84 125.241 215.66 124.401 216.98C123.574 218.3 122.194 218.96 120.261 218.96C118.327 218.96 116.941 218.3 116.101 216.98C115.274 215.66 114.861 213.84 114.861 211.52ZM122.901 211.52C122.901 210.533 122.834 209.707 122.701 209.04C122.581 208.36 122.327 207.807 121.941 207.38C121.567 206.953 121.007 206.74 120.261 206.74C119.514 206.74 118.947 206.953 118.561 207.38C118.187 207.807 117.934 208.36 117.801 209.04C117.681 209.707 117.621 210.533 117.621 211.52C117.621 212.533 117.681 213.387 117.801 214.08C117.921 214.76 118.174 215.313 118.561 215.74C118.947 216.153 119.514 216.36 120.261 216.36C121.007 216.36 121.574 216.153 121.961 215.74C122.347 215.313 122.601 214.76 122.721 214.08C122.841 213.387 122.901 212.533 122.901 211.52Z" fill="#282A30"/>
<defs>
<linearGradient id="paint0_linear_712_4998" x1="242.683" y1="170.187" x2="242.683" y2="447.816" gradientUnits="userSpaceOnUse">
<stop stop-color="#EBF0FA"/>
<stop offset="1" stop-color="white"/>
</linearGradient>
<linearGradient id="paint1_linear_712_4998" x1="145.026" y1="307.332" x2="125.739" y2="311.828" gradientUnits="userSpaceOnUse">
<stop stop-color="#A0A7BF"/>
<stop offset="1" stop-color="#717687"/>
</linearGradient>
<linearGradient id="paint2_linear_712_4998" x1="158.685" y1="291.825" x2="152.136" y2="299.413" gradientUnits="userSpaceOnUse">
<stop stop-color="#A0A7BF"/>
<stop offset="1" stop-color="#717687"/>
</linearGradient>
<linearGradient id="paint3_linear_712_4998" x1="174.371" y1="301.19" x2="165.159" y2="328.623" gradientUnits="userSpaceOnUse">
<stop stop-color="#A0A7BF"/>
<stop offset="1" stop-color="#717687"/>
</linearGradient>
<linearGradient id="paint4_linear_712_4998" x1="149.386" y1="289.211" x2="152.92" y2="298.282" gradientUnits="userSpaceOnUse">
<stop stop-color="#A0A7BF"/>
<stop offset="1" stop-color="#717687"/>
</linearGradient>
<linearGradient id="paint5_linear_712_4998" x1="183.655" y1="318.698" x2="165.669" y2="328.982" gradientUnits="userSpaceOnUse">
<stop stop-color="#A0A7BF"/>
<stop offset="1" stop-color="#717687"/>
</linearGradient>
<linearGradient id="paint6_linear_712_4998" x1="130.194" y1="323.815" x2="127.843" y2="301.398" gradientUnits="userSpaceOnUse">
<stop stop-color="#A0A7BF"/>
<stop offset="1" stop-color="#717687"/>
</linearGradient>
<linearGradient id="paint7_linear_712_4998" x1="32.6097" y1="383.341" x2="15.1808" y2="356.701" gradientUnits="userSpaceOnUse">
<stop stop-color="#A0A7BF"/>
<stop offset="1" stop-color="#717687"/>
</linearGradient>
<linearGradient id="paint8_linear_712_4998" x1="41.6974" y1="447.825" x2="28.8779" y2="350.817" gradientUnits="userSpaceOnUse">
<stop stop-color="#111214"/>
<stop offset="1" stop-color="#454852"/>
</linearGradient>
<linearGradient id="paint9_linear_712_4998" x1="55.335" y1="362.567" x2="28.5674" y2="359.872" gradientUnits="userSpaceOnUse">
<stop stop-color="#A0A7BF"/>
<stop offset="1" stop-color="#717687"/>
</linearGradient>
<clipPath id="clip0_712_4998">
<rect width="129.432" height="60.2306" fill="white" transform="translate(321.657)"/>
</clipPath>
</defs>
</svg>
