<svg width="20" height="20" viewBox="0 0 20 20" fill="none" xmlns="http://www.w3.org/2000/svg">
<path fill-rule="evenodd" clip-rule="evenodd" d="M5.00002 0V3H17V15H20V17H17V20H15V17H3V4.99997H0V3H3V0H5.00002ZM7.74998 8.02936L5.00002 10.968V13.8948L7.797 10.905L11.0465 14.1544L12.864 12.336L15 14.4714V11.643L12.8647 9.5078L11.046 11.3261L7.74998 8.02936ZM11.5 5.49998C10.6716 5.49998 9.99998 6.17156 9.99998 6.99998C9.99998 7.82841 10.6716 8.49998 11.5 8.49998C12.3284 8.49998 13 7.82841 13 6.99998C13 6.17156 12.3284 5.49998 11.5 5.49998Z" fill="#404040"/>
</svg>
