<svg width="24" height="25" viewBox="0 0 24 25" fill="none" xmlns="http://www.w3.org/2000/svg">
<path d="M14.7366 6.22079C14.5735 6.07343 14.3998 5.92081 14.2472 5.77872C13.9419 5.47348 13.5104 5.2998 13.0631 5.2998C12.7262 5.2998 12.3999 5.39453 12.1105 5.584L8.60547 7.92067H16.0839L16.1891 7.41545C15.9313 7.30493 15.2682 6.70497 14.7366 6.22079Z" fill="#FFF8EF"/>
<path d="M21.5263 10.0258V8.23643H3.58017C2.8539 8.23643 2.19079 7.9575 1.65925 7.43122L1.21191 6.98389V8.8627L1.29086 8.94164C1.53821 9.189 2.55393 9.98368 5.42214 10.0258V10.3415C3.84857 10.3152 2.56445 10.0416 1.5961 9.53108L1.28559 9.9521C1.3277 9.9942 1.37506 10.0258 1.43295 10.0574L1.96976 16.4832C2.06449 17.5147 2.53287 18.4041 3.29072 18.983L3.29598 18.9883C4.26433 19.6883 5.50109 20.0619 6.95888 20.0882H7.36411H21.521V16.1938H15.3267C14.5689 16.1938 13.9479 15.5728 13.9479 14.8149V13.0887C13.9479 12.3309 14.5689 11.7099 15.3267 11.7099H21.5263V10.3415H17.316V10.0258H21.5263ZM8.36931 10.3415H6.79047V10.0258H8.36931V10.3415ZM15.5267 10.3415H10.1587V10.0258H15.5267V10.3415Z" fill="#E4B832"/>
<path d="M1.55881 8.83609L1.47461 7.65723V8.75189C1.51671 8.79399 1.51671 8.79399 1.55881 8.83609Z" fill="#E4B832"/>
<path d="M6.96875 19.8247C7.10032 19.83 7.23189 19.83 7.36872 19.8247H6.96875Z" fill="#E4B832"/>
<path d="M16.2105 13.2886C15.8316 13.2886 15.5264 13.5938 15.5264 13.9727C15.5264 14.3517 15.8316 14.6569 16.2105 14.6569C16.5895 14.6569 16.8947 14.3517 16.8947 13.9727C16.8947 13.5938 16.5895 13.2886 16.2105 13.2886Z" fill="#FFF8EF"/>
<path d="M8.80052 3.18408H3.57983C3.07987 3.18408 2.55885 3.35775 2.15888 3.65773L1.52734 4.13138H8.04268L8.80052 3.18408Z" fill="#E4B832"/>
<path d="M20.2632 7.92059V4.44715H18.5791V4.13138H20.2632V3.18408H15.6846L19.237 7.92059H20.2632Z" fill="#E4B832"/>
<path d="M15.3268 12.0679C14.7426 12.0679 14.2637 12.5468 14.2637 13.131V14.8571C14.2637 15.3992 14.7373 15.9044 15.3004 15.9623H15.311H22.7841V12.0679H15.3268ZM16.2109 14.9729C15.6425 14.9729 15.211 14.5414 15.211 13.973C15.211 13.4046 15.6425 12.9731 16.2109 12.9731C16.7793 12.9731 17.2108 13.4046 17.2108 13.973C17.2108 14.5414 16.7793 14.9729 16.2109 14.9729Z" fill="#E4B832"/>
<path d="M7.33203 21.588L9.12138 23.872L11.7844 23.13L7.6478 21.188L7.33203 21.588Z" fill="#7AC943"/>
<path d="M7.88965 20.9458L14.0892 23.8929L17.1311 20.4458H8.00017L7.88965 20.9458Z" fill="#7AC943"/>
<path d="M7.19495 6.68359L12.4156 2.47862L10.7789 1.13135L6.82129 6.32046L7.19495 6.68359Z" fill="#7AC943"/>
<path d="M8.17423 7.92033L13.5896 3.74167C13.6054 3.73115 13.6317 3.72062 13.6738 3.72062C13.737 3.72062 13.7949 3.74694 13.8107 3.77325L17.1368 7.92033H18.8366L14.1107 1.55762L6.15332 7.92033H8.17423Z" fill="#7AC943"/>
<path d="M3.58017 7.92071H5.17479L6.02737 6.92604L5.24847 7.10497L5.22216 7.11024C5.00639 7.1576 4.80114 7.18392 4.61168 7.18392C3.28019 7.18392 3.01179 5.97347 3.00126 5.92085V5.91032L2.996 5.8998C2.87496 5.4893 2.88548 5.04196 2.92232 4.74198L2.94863 4.44727H1.454L1.39611 4.6262C1.30664 4.8946 1.21191 5.21563 1.21191 5.55245C1.21191 6.87867 2.25395 7.92071 3.58017 7.92071Z" fill="#E4B832"/>
<path d="M2.73731 5.97352C2.73731 5.97352 3.11097 7.85233 5.27398 7.36816L7.32647 4.71045H2.65311C2.61101 5.08937 2.61101 5.5525 2.73731 5.97352Z" fill="#E4B832"/>
<path d="M6.96902 19.8252H4.33763C2.77984 19.8673 1.47467 18.5622 1.47467 17.0044V16.9623C1.47467 18.5622 2.77984 19.8252 4.33763 19.8252H6.96902C5.26388 19.7884 4.1587 19.2832 3.45348 18.7727C2.73774 18.2253 2.31672 17.3833 2.23251 16.457L1.68518 9.88908C1.60098 9.84698 1.51678 9.80488 1.47467 9.76277C1.61151 9.83645 1.77465 9.9154 1.95885 9.98907L1.9378 9.72067L1.80623 9.65226C1.75886 9.6312 1.67992 9.5891 1.66413 9.57331L1.2168 9.12598V16.9623C1.2168 18.6885 2.6167 20.0884 4.34289 20.0884H6.97429L6.96902 19.8252Z" fill="#E4B832"/>
<path d="M1.47461 16.9619V17.004C1.47461 18.5618 2.77978 19.867 4.33757 19.8249C2.77978 19.8249 1.47461 18.5618 1.47461 16.9619Z" fill="#E4B832"/>
<path d="M13.6845 4.08936L9.99004 6.94179L9.31641 7.44701L9.62165 7.87856L9.94794 7.65753H9.47429L12.253 5.80502C12.8425 5.4261 13.6003 5.51031 14.0634 5.97343C14.7792 6.60497 15.7054 7.48912 16.0844 7.65753H15.6002C15.7528 7.76804 15.8791 7.85225 15.9791 7.89961L16.0317 7.92067H16.7633L13.6845 4.08936Z" fill="#E0CBB5"/>
<path d="M13.6156 4.47857L13.5998 4.45752L9.43164 7.65729H9.47374L10.1474 7.15207L13.6156 4.47857Z" fill="#FFF8EF"/>
<path d="M9.89532 9.76251H15.7896V10.6046H9.89532V9.76251ZM15.7896 13.9727C15.7896 14.1832 16.0002 14.3938 16.2107 14.3938C16.4212 14.3938 16.6317 14.1832 16.6317 13.9727C16.6317 13.7622 16.4212 13.5517 16.2107 13.5517C16.0002 13.5517 15.7896 13.7622 15.7896 13.9727ZM17.4737 13.9727C17.4737 14.6885 16.9264 15.2358 16.2107 15.2358C15.4949 15.2358 14.9476 14.6885 14.9476 13.9727C14.9476 13.257 15.4949 12.7097 16.2107 12.7097C16.9264 12.7097 17.4737 13.257 17.4737 13.9727ZM6.52714 9.76251H8.63225V10.6046H6.52714V9.76251ZM11.0321 23.0668L7.53759 21.4248L9.22168 23.5721L11.0321 23.0668ZM3.57997 3.44716C3.11685 3.44716 2.69583 3.61557 2.3169 3.86818H7.95861L8.29543 3.44716H3.57997ZM12.0004 2.47881L10.7795 1.51046L6.99026 6.47853L12.0004 2.47881ZM8.00072 20.7091L14.0213 23.5721L16.5475 20.7091H8.00072ZM13.6003 4.45762L9.43219 7.65739H16.1686L13.6003 4.45762ZM14.0213 3.61557L17.2632 7.65739H18.3158L14.0213 1.93148L6.90606 7.65739H8.08492L13.4319 3.53137C13.6003 3.40506 13.8529 3.40506 14.0213 3.61557ZM1.47486 5.55228C1.47486 6.73114 2.40111 7.65739 3.57997 7.65739H5.05356L7.32708 4.71023H1.64327C1.55906 4.96284 1.47486 5.25756 1.47486 5.55228ZM3.57997 8.49944C2.73793 8.49944 2.02219 8.16262 1.47486 7.61529V8.75205C1.72747 9.00467 2.78003 9.76251 5.68509 9.76251V10.6046C3.45367 10.6046 2.1906 10.1835 1.47486 9.76251V16.962C1.47486 18.5619 2.78003 19.825 4.33782 19.825H21.2629V16.4568H15.3265C14.4003 16.4568 13.6845 15.6989 13.6845 14.8148V13.0886C13.6845 12.1623 14.4424 11.4466 15.3265 11.4466H21.2629V10.6046H17.0527V9.76251H21.2629V8.49944H20.4209H19.5789H3.57997ZM22.526 12.2886H15.3265C14.8634 12.2886 14.5266 12.6676 14.5266 13.0886V14.8148C14.5266 15.2779 14.9055 15.6147 15.3265 15.6147H22.526V12.2886ZM19.3683 7.65739H19.5789H19.9999V4.71023H18.3158V3.86818H19.9999V3.44716H16.2107L19.3683 7.65739ZM22.105 8.07841V11.4466H22.947C23.1575 11.4466 23.3681 11.6571 23.3681 11.8676V16.0779C23.3681 16.2884 23.1575 16.4989 22.947 16.4989H22.105V20.2881C22.105 20.4986 21.8945 20.7091 21.684 20.7091H17.6842L14.4424 24.372C14.3161 24.4983 14.1056 24.5404 13.9371 24.4562L12.1267 23.5721V23.6142L9.17958 24.4562C9.13748 24.4562 9.09538 24.4562 9.05327 24.4562C8.92697 24.4562 8.80066 24.4141 8.71646 24.2878L5.8956 20.7091H4.33782C2.3169 20.7091 0.632812 19.025 0.632812 17.0041V5.13125H0.674915C0.885426 3.69977 2.10639 2.60512 3.57997 2.60512H8.92697L10.4005 0.668409C10.4848 0.584205 10.569 0.5 10.6953 0.5C10.8216 0.5 10.9058 0.5 10.99 0.584205L12.6741 1.93148L13.8529 1.00523C13.9371 0.963125 14.0635 0.921023 14.1477 0.921023C14.274 0.921023 14.3582 1.00523 14.4424 1.08943L15.5791 2.60512H20.4209C20.6314 2.60512 20.8419 2.77352 20.8419 3.02614V7.65739H21.684C21.8945 7.65739 22.105 7.8679 22.105 8.07841Z" fill="#42210B"/>
</svg>
