<svg width="17" height="17" viewBox="0 0 17 17" fill="none" xmlns="http://www.w3.org/2000/svg">
<g clip-path="url(#clip0_539_6077)">
<path d="M14.0092 12.5853V14.9202C14.0092 15.2298 13.8862 15.5268 13.6673 15.7457C13.4484 15.9646 13.1514 16.0876 12.8418 16.0876H1.75117C1.44155 16.0876 1.14461 15.9646 0.925674 15.7457C0.706738 15.5268 0.58374 15.2298 0.58374 14.9202V6.16441C0.58374 4.23015 2.15178 2.66211 4.08604 2.66211H11.6744V5.5807" stroke="#404040" stroke-width="0.817204" stroke-linecap="round" stroke-linejoin="round"/>
<path d="M15.1766 9.08203H11.0906C10.7682 9.08203 10.5068 9.34337 10.5068 9.66575V12.0006C10.5068 12.3229 10.7682 12.5843 11.0906 12.5843H15.1766C15.4989 12.5843 15.7603 12.3229 15.7603 12.0006V9.66575C15.7603 9.34337 15.4989 9.08203 15.1766 9.08203Z" stroke="#404040" stroke-width="0.817204" stroke-linecap="round" stroke-linejoin="round"/>
<path d="M14.0094 9.08238V6.74751C14.0094 6.43789 13.8863 6.14095 13.6674 5.92201C13.4485 5.70308 13.1515 5.58008 12.8419 5.58008H11.6745H4.08618" stroke="#404040" stroke-width="0.817204" stroke-linecap="round" stroke-linejoin="round"/>
</g>
<defs>
<clipPath id="clip0_539_6077">
<rect width="16.3441" height="16.3441" fill="white" transform="translate(0 0.328125)"/>
</clipPath>
</defs>
</svg>
