<svg width="162" height="144" viewBox="0 0 162 144" fill="none" xmlns="http://www.w3.org/2000/svg">
<rect x="1.25293" y="0.5" width="136" height="143" rx="16.8494" fill="white"/>
<rect x="1.25293" y="0.5" width="136" height="143" rx="16.8494" stroke="#979797"/>
<rect x="13.7529" y="21" width="110" height="11" rx="5.5" fill="#979797"/>
<rect x="13.7529" y="48" width="88" height="11" rx="5.5" fill="#D8D8D8"/>
<rect x="13.7529" y="75" width="90" height="30" rx="8.33333" fill="#222FDD"/>
<path d="M48.9761 86.1212H50.8419L52.6385 89.5143H52.7154L54.512 86.1212H56.3778L53.5041 91.2147V94H51.8498V91.2147L48.9761 86.1212ZM58.6578 94.1154C58.05 94.1154 57.5268 93.9923 57.0882 93.7461C56.6522 93.4973 56.3163 93.146 56.0803 92.692C55.8444 92.2355 55.7264 91.6956 55.7264 91.0724C55.7264 90.4645 55.8444 89.9311 56.0803 89.472C56.3163 89.0129 56.6484 88.6551 57.0767 88.3987C57.5076 88.1422 58.0128 88.014 58.5924 88.014C58.9823 88.014 59.3452 88.0768 59.6812 88.2025C60.0197 88.3256 60.3147 88.5115 60.566 88.7603C60.8199 89.0091 61.0174 89.322 61.1584 89.699C61.2995 90.0734 61.37 90.512 61.37 91.0147V91.4648H56.3804V90.4492H59.8274C59.8274 90.2132 59.7761 90.0042 59.6735 89.8221C59.5709 89.64 59.4285 89.4977 59.2465 89.3951C59.0669 89.2899 58.8579 89.2373 58.6194 89.2373C58.3706 89.2373 58.15 89.295 57.9577 89.4105C57.7679 89.5233 57.6191 89.6759 57.5114 89.8683C57.4037 90.058 57.3486 90.2696 57.346 90.503V91.4686C57.346 91.761 57.3999 92.0136 57.5076 92.2265C57.6179 92.4394 57.773 92.6035 57.9731 92.7189C58.1731 92.8343 58.4104 92.892 58.6848 92.892C58.8669 92.892 59.0336 92.8664 59.1849 92.8151C59.3362 92.7638 59.4657 92.6869 59.5735 92.5843C59.6812 92.4817 59.7632 92.356 59.8197 92.2073L61.3354 92.3073C61.2585 92.6715 61.1007 92.9895 60.8622 93.2614C60.6263 93.5307 60.3211 93.741 59.9466 93.8923C59.5747 94.041 59.1451 94.1154 58.6578 94.1154ZM67.3019 89.7759L65.8015 89.8683C65.7759 89.74 65.7208 89.6246 65.6361 89.522C65.5515 89.4169 65.4399 89.3335 65.3014 89.272C65.1655 89.2078 65.0026 89.1758 64.8128 89.1758C64.5589 89.1758 64.3448 89.2296 64.1704 89.3374C63.996 89.4425 63.9088 89.5836 63.9088 89.7605C63.9088 89.9016 63.9652 90.0209 64.0781 90.1183C64.1909 90.2158 64.3845 90.294 64.659 90.353L65.7284 90.5684C66.3029 90.6864 66.7312 90.8762 67.0134 91.1378C67.2955 91.3994 67.4365 91.7431 67.4365 92.1688C67.4365 92.5561 67.3224 92.8959 67.0942 93.1883C66.8685 93.4806 66.5581 93.7089 66.1632 93.873C65.7708 94.0346 65.3181 94.1154 64.8052 94.1154C64.0229 94.1154 63.3997 93.9526 62.9355 93.6268C62.4738 93.2986 62.2033 92.8523 62.1237 92.2881L63.7357 92.2034C63.7844 92.4419 63.9024 92.624 64.0896 92.7497C64.2768 92.8728 64.5166 92.9344 64.809 92.9344C65.0962 92.9344 65.3271 92.8792 65.5015 92.7689C65.6784 92.6561 65.7682 92.5112 65.7708 92.3342C65.7682 92.1855 65.7054 92.0636 65.5823 91.9688C65.4592 91.8713 65.2694 91.7969 65.0129 91.7456L63.9896 91.5417C63.4125 91.4263 62.9829 91.2263 62.7008 90.9416C62.4213 90.6569 62.2815 90.294 62.2815 89.8529C62.2815 89.4733 62.3841 89.1463 62.5892 88.8719C62.797 88.5974 63.0881 88.3859 63.4625 88.2371C63.8395 88.0883 64.2807 88.014 64.7859 88.014C65.5322 88.014 66.1196 88.1717 66.5479 88.4872C66.9787 88.8026 67.2301 89.2322 67.3019 89.7759Z" fill="white"/>
<rect x="73.2529" y="99.5" width="88" height="28.4812" rx="5.0625" fill="#FF1010"/>
<rect x="73.2529" y="99.5" width="88" height="28.4812" rx="5.0625" stroke="white"/>
<path d="M117.109 110.982V116.241H116.148L113.86 112.931H113.822V116.241H112.71V110.982H113.686L115.956 114.289H116.002V110.982H117.109ZM119.753 116.318C119.354 116.318 119.009 116.233 118.718 116.064C118.429 115.892 118.205 115.654 118.048 115.35C117.89 115.043 117.812 114.688 117.812 114.284C117.812 113.877 117.89 113.52 118.048 113.216C118.205 112.909 118.429 112.671 118.718 112.502C119.009 112.331 119.354 112.245 119.753 112.245C120.152 112.245 120.496 112.331 120.785 112.502C121.076 112.671 121.301 112.909 121.458 113.216C121.616 113.52 121.694 113.877 121.694 114.284C121.694 114.688 121.616 115.043 121.458 115.35C121.301 115.654 121.076 115.892 120.785 116.064C120.496 116.233 120.152 116.318 119.753 116.318ZM119.758 115.47C119.94 115.47 120.091 115.419 120.213 115.316C120.334 115.212 120.426 115.07 120.487 114.89C120.551 114.71 120.582 114.506 120.582 114.276C120.582 114.047 120.551 113.842 120.487 113.663C120.426 113.483 120.334 113.341 120.213 113.236C120.091 113.132 119.94 113.08 119.758 113.08C119.575 113.08 119.421 113.132 119.296 113.236C119.173 113.341 119.079 113.483 119.016 113.663C118.954 113.842 118.924 114.047 118.924 114.276C118.924 114.506 118.954 114.71 119.016 114.89C119.079 115.07 119.173 115.212 119.296 115.316C119.421 115.419 119.575 115.47 119.758 115.47Z" fill="white"/>
</svg>
