<svg width="40" height="41" viewBox="0 0 40 41" fill="none" xmlns="http://www.w3.org/2000/svg">
<path d="M0.854297 19.9458C0.853359 23.3075 1.73836 26.5898 3.42117 29.483L0.693359 39.368L10.8859 36.7155C13.705 38.2387 16.8636 39.0368 20.0734 39.037H20.0818C30.6779 39.037 39.3034 30.4794 39.3079 19.9609C39.3099 14.8639 37.3118 10.0711 33.6815 6.4652C30.0518 2.85964 25.2245 0.872932 20.081 0.870605C9.48367 0.870605 0.858828 9.42782 0.854453 19.9458" fill="url(#paint0_linear_712_5081)"/>
<path d="M0.167188 19.9396C0.166094 23.4222 1.08281 26.822 2.82562 29.8187L0 40.058L10.558 37.3105C13.467 38.8847 16.7423 39.7147 20.0752 39.7159H20.0837C31.06 39.7159 39.9953 30.8504 40 19.9554C40.0019 14.6753 37.9319 9.71019 34.1719 5.97513C30.4114 2.24054 25.4114 0.182347 20.0837 0.180176C9.10562 0.180176 0.171563 9.04444 0.167188 19.9396ZM6.45484 29.3026L6.06062 28.6815C4.40344 26.0663 3.52875 23.0441 3.53 19.9408C3.53344 10.8851 10.9591 3.51746 20.09 3.51746C24.5119 3.51932 28.6675 5.23014 31.7931 8.33418C34.9186 11.4385 36.6384 15.5652 36.6373 19.9542C36.6333 29.01 29.2075 36.3785 20.0837 36.3785H20.0772C17.1064 36.377 14.1928 35.5851 11.6519 34.0888L11.0472 33.7329L4.78188 35.3632L6.45484 29.3026Z" fill="url(#paint1_linear_712_5081)"/>
<path d="M15.1051 11.6789C14.7323 10.8565 14.3399 10.8399 13.9854 10.8255C13.6951 10.813 13.3632 10.814 13.0316 10.814C12.6998 10.814 12.1605 10.9379 11.7048 11.4318C11.2485 11.9262 9.96289 13.1209 9.96289 15.5508C9.96289 17.9808 11.7462 20.3293 11.9948 20.6591C12.2437 20.9883 15.4374 26.1345 20.4955 28.1142C24.6993 29.7594 25.5548 29.4322 26.4671 29.3497C27.3796 29.2675 29.4115 28.1553 29.826 27.002C30.2409 25.8488 30.2409 24.8603 30.1165 24.6538C29.9921 24.448 29.6602 24.3244 29.1626 24.0775C28.6649 23.8306 26.2182 22.6356 25.7621 22.4707C25.3059 22.306 24.9741 22.2239 24.6423 22.7184C24.3104 23.2122 23.3574 24.3244 23.067 24.6538C22.7768 24.9839 22.4863 25.025 21.9888 24.778C21.4909 24.5302 19.8882 24.0093 17.9868 22.3268C16.5074 21.0177 15.5087 19.401 15.2184 18.9064C14.928 18.4127 15.1873 18.145 15.4368 17.8989C15.6604 17.6776 15.9346 17.3221 16.1837 17.0339C16.4318 16.7454 16.5146 16.5396 16.6805 16.2102C16.8466 15.8805 16.7635 15.5921 16.6393 15.3451C16.5146 15.098 15.5476 12.6554 15.1051 11.6789Z" fill="white"/>
<defs>
<linearGradient id="paint0_linear_712_5081" x1="1931.42" y1="3850.61" x2="1931.42" y2="0.870605" gradientUnits="userSpaceOnUse">
<stop stop-color="#1FAF38"/>
<stop offset="1" stop-color="#60D669"/>
</linearGradient>
<linearGradient id="paint1_linear_712_5081" x1="2000" y1="3987.97" x2="2000" y2="0.180176" gradientUnits="userSpaceOnUse">
<stop stop-color="#F9F9F9"/>
<stop offset="1" stop-color="white"/>
</linearGradient>
</defs>
</svg>
